<?xml version="1.0" encoding="us-ascii" standalone="no"?><svg xmlns="http://www.w3.org/2000/svg" xmlns:xlink="http://www.w3.org/1999/xlink" contentStyleType="text/css" height="1152px" preserveAspectRatio="none" style="width:1161px;height:1152px;background:#FEFEFE;" version="1.1" viewBox="0 0 1161 1152" width="1161px" zoomAndPan="magnify"><defs/><g><rect fill="#FEFEFE" height="1152" style="stroke:none;stroke-width:1.0;" width="1161" x="0" y="0"/><text fill="#000000" font-family="sans-serif" font-size="14" font-weight="bold" lengthAdjust="spacing" textLength="347" x="399" y="24.9659">Smart X-Ray Screening - Model Training Use Cases</text><!--cluster Model Training System--><g id="cluster_Model Training System"><rect fill="none" height="715.5" rx="2.5" ry="2.5" style="stroke:#181818;stroke-width:1.0;" width="944" x="14" y="177.0679"/><text fill="#000000" font-family="sans-serif" font-size="14" font-weight="bold" lengthAdjust="spacing" textLength="159" x="406.5" y="194.0339">Model Training System</text></g><!--entity DataScientist--><g id="elem_DataScientist"><ellipse cx="499" cy="60.5679" fill="#90EE90" rx="8" ry="8" style="stroke:#181818;stroke-width:0.5;"/><path d="M499,68.5679 L499,95.5679 M486,76.5679 L512,76.5679 M499,95.5679 L486,110.5679 M499,95.5679 L512,110.5679 " fill="none" style="stroke:#181818;stroke-width:0.5;"/><text fill="#000000" font-family="sans-serif" font-size="14" lengthAdjust="spacing" textLength="97" x="450.5" y="127.0339">Data Scientist/</text><text fill="#000000" font-family="sans-serif" font-size="14" lengthAdjust="spacing" textLength="85" x="450.5" y="146.1018">ML Engineer</text></g><g id="elem_GMN25"><path d="M966,197.5679 L966,260.686 A0,0 0 0 0 966,260.686 L1001.602,260.686 L891.8302,324.4071 L1009.602,260.686 L1154,260.686 A0,0 0 0 0 1154,260.686 L1154,207.5679 L1144,197.5679 L966,197.5679 A0,0 0 0 0 966,197.5679 " fill="#FEFFDD" style="stroke:#181818;stroke-width:0.5;"/><path d="M1144,197.5679 L1144,207.5679 L1154,207.5679 L1144,197.5679 " fill="#FEFFDD" style="stroke:#181818;stroke-width:0.5;"/><text fill="#000000" font-family="sans-serif" font-size="13" lengthAdjust="spacing" textLength="131" x="972" y="216.4649">Batch processing with</text><text fill="#000000" font-family="sans-serif" font-size="13" lengthAdjust="spacing" textLength="105" x="972" y="234.1709">parallel execution</text><text fill="#000000" font-family="sans-serif" font-size="13" lengthAdjust="spacing" textLength="167" x="972" y="251.877">Output: HOG feature matrix</text></g><g id="elem_GMN28"><path d="M966.5,553.5679 L966.5,581.0679 L946.6699,585.0679 L966.5,589.0679 L966.5,616.686 A0,0 0 0 0 966.5,616.686 L1153.5,616.686 A0,0 0 0 0 1153.5,616.686 L1153.5,563.5679 L1143.5,553.5679 L966.5,553.5679 A0,0 0 0 0 966.5,553.5679 " fill="#FEFFDD" style="stroke:#181818;stroke-width:0.5;"/><path d="M1143.5,553.5679 L1143.5,563.5679 L1153.5,563.5679 L1143.5,553.5679 " fill="#FEFFDD" style="stroke:#181818;stroke-width:0.5;"/><text fill="#000000" font-family="sans-serif" font-size="13" lengthAdjust="spacing" textLength="129" x="972.5" y="572.4649">Parallel training using</text><text fill="#000000" font-family="sans-serif" font-size="13" lengthAdjust="spacing" textLength="126" x="972.5" y="590.1709">ProcessPoolExecutor</text><text fill="#000000" font-family="sans-serif" font-size="13" lengthAdjust="spacing" textLength="166" x="972.5" y="607.877">One binary SVM per disease</text></g><g id="elem_GMN31"><path d="M966.5,432.0679 L966.5,450.5679 L948.6914,454.5679 L966.5,458.5679 L966.5,477.4799 A0,0 0 0 0 966.5,477.4799 L1139.5,477.4799 A0,0 0 0 0 1139.5,477.4799 L1139.5,442.0679 L1129.5,432.0679 L966.5,432.0679 A0,0 0 0 0 966.5,432.0679 " fill="#FEFFDD" style="stroke:#181818;stroke-width:0.5;"/><path d="M1129.5,432.0679 L1129.5,442.0679 L1139.5,442.0679 L1129.5,432.0679 " fill="#FEFFDD" style="stroke:#181818;stroke-width:0.5;"/><text fill="#000000" font-family="sans-serif" font-size="13" lengthAdjust="spacing" textLength="151" x="972.5" y="450.9649">SMOTE balancing applied</text><text fill="#000000" font-family="sans-serif" font-size="13" lengthAdjust="spacing" textLength="152" x="972.5" y="468.6709">to handle class imbalance</text></g><g id="elem_GMN34"><path d="M966,671.5679 L966,725.5679 L931.5645,729.5679 L966,733.5679 L966,787.804 A0,0 0 0 0 966,787.804 L1098,787.804 A0,0 0 0 0 1098,787.804 L1098,681.5679 L1088,671.5679 L966,671.5679 A0,0 0 0 0 966,671.5679 " fill="#FEFFDD" style="stroke:#181818;stroke-width:0.5;"/><path d="M1088,671.5679 L1088,681.5679 L1098,681.5679 L1088,671.5679 " fill="#FEFFDD" style="stroke:#181818;stroke-width:0.5;"/><text fill="#000000" font-family="sans-serif" font-size="13" font-weight="bold" lengthAdjust="spacing" textLength="53" x="972" y="690.4649">Metrics:</text><text fill="#000000" font-family="sans-serif" font-size="13" lengthAdjust="spacing" textLength="60" x="972" y="708.1709">- Accuracy</text><text fill="#000000" font-family="sans-serif" font-size="13" lengthAdjust="spacing" textLength="111" x="972" y="725.877">- Precision &amp; Recall</text><text fill="#000000" font-family="sans-serif" font-size="13" lengthAdjust="spacing" textLength="58" x="972" y="743.583">- F1-Score</text><text fill="#000000" font-family="sans-serif" font-size="13" lengthAdjust="spacing" textLength="97" x="972" y="761.289">- Hamming Loss</text><text fill="#000000" font-family="sans-serif" font-size="13" lengthAdjust="spacing" textLength="86" x="972" y="778.995">- Jaccard Score</text></g><g id="elem_GMN37"><path d="M740.5,921.5679 L740.5,1055.51 A0,0 0 0 0 740.5,1055.51 L957.5,1055.51 A0,0 0 0 0 957.5,1055.51 L957.5,931.5679 L947.5,921.5679 L853,921.5679 L849,884.6037 L845,921.5679 L740.5,921.5679 A0,0 0 0 0 740.5,921.5679 " fill="#FEFFDD" style="stroke:#181818;stroke-width:0.5;"/><path d="M947.5,921.5679 L947.5,931.5679 L957.5,931.5679 L947.5,921.5679 " fill="#FEFFDD" style="stroke:#181818;stroke-width:0.5;"/><text fill="#000000" font-family="sans-serif" font-size="13" font-weight="bold" lengthAdjust="spacing" textLength="74" x="746.5" y="940.4649">Saved Files:</text><text fill="#000000" font-family="sans-serif" font-size="13" lengthAdjust="spacing" textLength="143" x="746.5" y="958.1709">- svm_stage1_binary.pkl</text><text fill="#000000" font-family="sans-serif" font-size="13" lengthAdjust="spacing" textLength="196" x="746.5" y="975.877">- svm_stage2_&lt;Disease&gt;.pkl (&#215;14)</text><text fill="#000000" font-family="sans-serif" font-size="13" lengthAdjust="spacing" textLength="111" x="746.5" y="993.583">- feature_scaler.pkl</text><text fill="#000000" font-family="sans-serif" font-size="13" lengthAdjust="spacing" textLength="90" x="746.5" y="1011.289">- age_scaler.pkl</text><text fill="#000000" font-family="sans-serif" font-size="13" lengthAdjust="spacing" textLength="103" x="746.5" y="1028.995">- sex_encoder.pkl</text><text fill="#000000" font-family="sans-serif" font-size="13" lengthAdjust="spacing" textLength="110" x="746.5" y="1046.701">- view_encoder.pkl</text></g><g id="elem_UC1"><ellipse cx="499.1483" cy="228.8976" fill="#F1F1F1" rx="97.1483" ry="21.8297" style="stroke:#181818;stroke-width:0.5;"/><text fill="#000000" font-family="sans-serif" font-size="14" lengthAdjust="spacing" textLength="148" x="422.1483" y="233.6305">Load Training Dataset</text></g><g id="elem_UC2"><ellipse cx="855.1149" cy="345.9909" fill="#F1F1F1" rx="95.1149" ry="21.423" style="stroke:#181818;stroke-width:0.5;"/><text fill="#000000" font-family="sans-serif" font-size="14" lengthAdjust="spacing" textLength="143" x="780.6149" y="350.7239">Extract HOG Features</text></g><g id="elem_UC3"><ellipse cx="106.9582" cy="345.9596" fill="#F1F1F1" rx="84.9582" ry="19.3916" style="stroke:#181818;stroke-width:0.5;"/><text fill="#000000" font-family="sans-serif" font-size="14" lengthAdjust="spacing" textLength="117" x="45.4582" y="350.6925">Encode Metadata</text></g><g id="elem_UC4"><ellipse cx="327.7995" cy="345.9824" fill="#F1F1F1" rx="117.2995" ry="30.4145" style="stroke:#181818;stroke-width:0.5;"/><text fill="#000000" font-family="sans-serif" font-size="14" lengthAdjust="spacing" textLength="147" x="251.2995" y="341.1814">Prepare Binary Labels</text><text fill="#000000" font-family="sans-serif" font-size="14" lengthAdjust="spacing" textLength="58" x="295.7995" y="360.2493">(Stage 1)</text></g><g id="elem_UC5"><ellipse cx="603.2449" cy="346.059" fill="#F1F1F1" rx="139.2449" ry="30.4911" style="stroke:#181818;stroke-width:0.5;"/><text fill="#000000" font-family="sans-serif" font-size="14" lengthAdjust="spacing" textLength="177" x="511.7449" y="341.258">Prepare Multi-label Labels</text><text fill="#000000" font-family="sans-serif" font-size="14" lengthAdjust="spacing" textLength="58" x="571.2449" y="360.3259">(Stage 2)</text></g><g id="elem_UC6"><ellipse cx="599.8505" cy="515.338" fill="#F1F1F1" rx="86.8505" ry="19.7701" style="stroke:#181818;stroke-width:0.5;"/><text fill="#000000" font-family="sans-serif" font-size="14" lengthAdjust="spacing" textLength="122" x="535.8505" y="520.071">Train Stage 1 SVM</text></g><g id="elem_UC7"><ellipse cx="849.0577" cy="584.9795" fill="#F1F1F1" rx="97.5577" ry="21.9115" style="stroke:#181818;stroke-width:0.5;"/><text fill="#000000" font-family="sans-serif" font-size="14" lengthAdjust="spacing" textLength="149" x="771.5577" y="589.7124">Train 14 Stage 2 SVMs</text></g><g id="elem_UC8"><ellipse cx="846.0347" cy="454.4749" fill="#F1F1F1" rx="102.5347" ry="22.9069" style="stroke:#181818;stroke-width:0.5;"/><text fill="#000000" font-family="sans-serif" font-size="14" lengthAdjust="spacing" textLength="161" x="762.5347" y="459.2078">Apply SMOTE Balancing</text></g><g id="elem_UC9"><ellipse cx="848.8656" cy="729.441" fill="#F1F1F1" rx="82.3656" ry="18.8731" style="stroke:#181818;stroke-width:0.5;"/><text fill="#000000" font-family="sans-serif" font-size="14" lengthAdjust="spacing" textLength="110" x="790.8656" y="734.174">Evaluate Models</text></g><g id="elem_UC10"><ellipse cx="848.906" cy="863.7491" fill="#F1F1F1" rx="93.906" ry="21.1812" style="stroke:#181818;stroke-width:0.5;"/><text fill="#000000" font-family="sans-serif" font-size="14" lengthAdjust="spacing" textLength="140" x="775.906" y="868.4821">Save Trained Models</text></g><polygon fill="#181818" points="499,206.9872,503,197.9872,499,201.9872,495,197.9872,499,206.9872" style="stroke:#181818;stroke-width:1.0;"/><path d="M499,150.4225 C499,169.9932 499,185.5601 499,200.9872 " fill="none" style="stroke:#181818;stroke-width:1.0;"/><polygon fill="#181818" points="791.3158,324.4958,783.9812,317.9229,786.5579,322.9588,781.522,325.5356,791.3158,324.4958" style="stroke:#181818;stroke-width:1.0;"/><path d="M564.2959,251.1607 C628.9312,272.0401 721.5381,301.9552 785.6063,322.6514 " fill="none" style="stroke:#181818;stroke-width:1.0;stroke-dasharray:7.0,7.0;"/><text fill="#000000" font-family="sans-serif" font-size="13" lengthAdjust="spacing" textLength="57" x="699" y="293.4649">&#171;include&#187;</text><polygon fill="#181818" points="165.3481,326.5108,175.1311,327.6473,170.1209,325.0209,172.7473,320.0107,165.3481,326.5108" style="stroke:#181818;stroke-width:1.0;"/><path d="M423.8367,251.079 C363.4916,268.0813 276.6481,292.8492 201,315.5679 C189.4511,319.0363 182.8616,321.0438 171.0755,324.7229 " fill="none" style="stroke:#181818;stroke-width:1.0;stroke-dasharray:7.0,7.0;"/><text fill="#000000" font-family="sans-serif" font-size="13" lengthAdjust="spacing" textLength="57" x="325" y="293.4649">&#171;include&#187;</text><polygon fill="#181818" points="372.0437,315.4479,381.7441,313.7446,376.1927,312.6576,377.2797,307.1062,372.0437,315.4479" style="stroke:#181818;stroke-width:1.0;"/><path d="M467.636,251.1607 C440.8316,269.187 406.9472,291.9748 377.0225,312.0996 " fill="none" style="stroke:#181818;stroke-width:1.0;stroke-dasharray:7.0,7.0;"/><text fill="#000000" font-family="sans-serif" font-size="13" lengthAdjust="spacing" textLength="57" x="424" y="293.4649">&#171;include&#187;</text><polygon fill="#181818" points="576.2132,315.4479,573.1432,306.0897,572.8595,311.7394,567.2097,311.4557,576.2132,315.4479" style="stroke:#181818;stroke-width:1.0;"/><path d="M518.0752,251.1607 C534.3773,269.187 553.9889,290.873 572.1887,310.9978 " fill="none" style="stroke:#181818;stroke-width:1.0;stroke-dasharray:7.0,7.0;"/><text fill="#000000" font-family="sans-serif" font-size="13" lengthAdjust="spacing" textLength="57" x="558" y="293.4649">&#171;include&#187;</text><polygon fill="#181818" points="568.9751,495.4625,563.4091,487.3373,564.7176,492.8407,559.2142,494.1493,568.9751,495.4625" style="stroke:#181818;stroke-width:1.0;"/><path d="M376.002,376.628 C431.6687,410.908 516.6966,463.2689 563.8661,492.3164 " fill="none" style="stroke:#181818;stroke-width:1.0;stroke-dasharray:7.0,7.0;"/><text fill="#000000" font-family="sans-serif" font-size="13" lengthAdjust="spacing" textLength="57" x="436" y="409.4649">&#171;include&#187;</text><polygon fill="#181818" points="795.4946,431.4328,788.8572,424.1566,790.9151,429.4258,785.6459,431.4837,795.4946,431.4328" style="stroke:#181818;stroke-width:1.0;"/><path d="M670.3663,376.5927 C709.9756,393.9523 753.7376,413.1319 789.9992,429.0244 " fill="none" style="stroke:#181818;stroke-width:1.0;stroke-dasharray:7.0,7.0;"/><text fill="#000000" font-family="sans-serif" font-size="13" lengthAdjust="spacing" textLength="57" x="754" y="409.4649">&#171;include&#187;</text><polygon fill="#181818" points="848.501,562.6932,852.2898,553.6023,848.3843,557.6946,844.292,553.789,848.501,562.6932" style="stroke:#181818;stroke-width:1.0;"/><path d="M846.5157,477.6579 C847.0719,501.4815 847.8113,533.1528 848.3609,556.6949 " fill="none" style="stroke:#181818;stroke-width:1.0;stroke-dasharray:7.0,7.0;"/><text fill="#000000" font-family="sans-serif" font-size="13" lengthAdjust="spacing" textLength="57" x="848" y="520.9649">&#171;include&#187;</text><polygon fill="#181818" points="817.0348,710.4966,811.3061,702.4853,812.7253,707.9612,807.2494,709.3805,817.0348,710.4966" style="stroke:#181818;stroke-width:1.0;"/><path d="M613.4865,535.6058 C629.0351,556.7892 656.06,591.3497 684,616.5679 C726.2783,654.7278 777.1806,687.0493 811.8634,707.4541 " fill="none" style="stroke:#181818;stroke-width:1.0;stroke-dasharray:7.0,7.0;"/><text fill="#000000" font-family="sans-serif" font-size="13" lengthAdjust="spacing" textLength="57" x="685" y="590.4649">&#171;include&#187;</text><polygon fill="#181818" points="849,710.1757,853,701.1757,849,705.1757,845,701.1757,849,710.1757" style="stroke:#181818;stroke-width:1.0;"/><path d="M849,607.0943 C849,634.9653 849,677.6974 849,704.1757 " fill="none" style="stroke:#181818;stroke-width:1.0;stroke-dasharray:7.0,7.0;"/><text fill="#000000" font-family="sans-serif" font-size="13" lengthAdjust="spacing" textLength="57" x="850" y="649.4649">&#171;include&#187;</text><polygon fill="#181818" points="849,842.5536,853,833.5536,849,837.5536,845,833.5536,849,842.5536" style="stroke:#181818;stroke-width:1.0;"/><path d="M849,748.6452 C849,773.2169 849,811.0159 849,836.5536 " fill="none" style="stroke:#181818;stroke-width:1.0;stroke-dasharray:7.0,7.0;"/><text fill="#000000" font-family="sans-serif" font-size="13" lengthAdjust="spacing" textLength="57" x="850" y="820.4649">&#171;include&#187;</text><rect fill="none" height="71.2038" id="_legend" rx="7.5" ry="7.5" style="stroke:#000000;stroke-width:1.0;" width="207" x="469" y="1061.5679"/><text fill="#000000" font-family="sans-serif" font-size="14" font-weight="bold" lengthAdjust="spacing" textLength="86" x="478" y="1083.5339">Relationship</text><text fill="#000000" font-family="sans-serif" font-size="14" font-weight="bold" lengthAdjust="spacing" textLength="79" x="572" y="1083.5339">Description</text><text fill="#000000" font-family="sans-serif" font-size="14" lengthAdjust="spacing" textLength="24" x="478" y="1102.6018">&#9472;&#9472;&gt;</text><text fill="#000000" font-family="sans-serif" font-size="14" lengthAdjust="spacing" textLength="93" x="572" y="1102.6018">Actor initiates</text><text fill="#000000" font-family="sans-serif" font-size="14" lengthAdjust="spacing" textLength="84" x="478" y="1121.6697">..&gt; &#171;include&#187;</text><text fill="#000000" font-family="sans-serif" font-size="14" lengthAdjust="spacing" textLength="95" x="572" y="1121.6697">Required step</text><line style="stroke:#000000;stroke-width:1.0;" x1="474" x2="671" y1="1068.5679" y2="1068.5679"/><line style="stroke:#000000;stroke-width:1.0;" x1="474" x2="671" y1="1087.6358" y2="1087.6358"/><line style="stroke:#000000;stroke-width:1.0;" x1="474" x2="671" y1="1106.7038" y2="1106.7038"/><line style="stroke:#000000;stroke-width:1.0;" x1="474" x2="671" y1="1125.7717" y2="1125.7717"/><line style="stroke:#000000;stroke-width:1.0;" x1="474" x2="474" y1="1068.5679" y2="1125.7717"/><line style="stroke:#000000;stroke-width:1.0;" x1="568" x2="568" y1="1068.5679" y2="1125.7717"/><line style="stroke:#000000;stroke-width:1.0;" x1="671" x2="671" y1="1068.5679" y2="1125.7717"/><!--SRC=[VLLjRXit4Fs_fvWgG9iOa1if_ehX2f1jEKuXMOPMBXeWW33YZYN2N79BScqBJO4S8a0Fr9lq91tkhkpLgewa7-QyDn-SUKF_a5bSf0WALoRtu5Bog35oTr9dQ365EOgxXJMvJiwCCXPUNGp2jyPGKfDVPGJ6-gM98Y-z8eXJj1v-Rqzm1R6mH5hg1RHXP19ICBKe2yED8pX3HowAVe9VQX_edqt7atZ35g7mN4Bh73roK4dQI-T__gn7GnZe1TT1jWNe812US7Wrb8kb_n1gsCeIVugdWn6SZc-kplkJJvlfB0dkne9lqsgK7Q-SfxG5VqO0_CiT2Ru4j8O6asTMACEHBqgwEUlKYOD7R_asS3d-01U4FhVaAbvtWwS5PuOHZoNXQ1NbNProROa7GN0gDTeL375EodtMhsEF2uBEcyfdx_zyHhdoigs2IzEnktRShpiMTuCgDCI_ZIhImJQfirVnke6tljrXdTZFCiNo68sd0pX5XLfmsohYqKORxb7bwAcKpphM-pebndigMq_99gtpDlfhQ_2JmR0__JY-YYy_NZTK5ctAfztk5TFZ24-JlLNc8M8ZxEu6i0l7S78YjL1vGhrU3Ndt8hBt8hBVGA90Bg63BQVz2ZdQTZggeCDjwA22tc_5Etm1YOAfX3flcrYZjrSypqPFjU7XUPE1kQqaVefUB26pHf1peQSFqY_P7XuLfLYFz4WYzz9eDevpd-N-k5YNst9T84LlvMD4Ee4GFIfpsB3hPPOWjUjrDByUNHwI1QJCV6sC6XIPZ0s9DC6yN2GMBMHa8P6EM67VIHIaMefulXOn84jRKiA8Dx14dV0h8XGw1p8jMT-B69IziyDRRwLmnpixV6n3NuYS7urLSU0D5j9nT-17cF0AA5MOBphjM1XBnU4IqpJKCZJE5OPVKGYq2PIKHlgvyTwaPNvUcL10sAa4BgIYfoBSVJfpOQqxix9FkzcTsaIwivFpicUz0CBhV_xkxBqfEDNiPeuB9llaoavDawF76HMFtxFjNjB3Xl7v1eeMuL3UWSbVUCD9OP2FMyeidC_92IkpO88lWGB_VllAlnx_rI_-iR10lEHNnbLua7jDvsoPq1-vjDmJVluvQ2YWp1pz1m00]--></g></svg>