<?xml version="1.0" encoding="us-ascii" standalone="no"?><svg xmlns="http://www.w3.org/2000/svg" xmlns:xlink="http://www.w3.org/1999/xlink" contentStyleType="text/css" height="1229px" preserveAspectRatio="none" style="width:1057px;height:1229px;background:#FEFEFE;" version="1.1" viewBox="0 0 1057 1229" width="1057px" zoomAndPan="magnify"><defs/><g><rect fill="#FEFEFE" height="1229" style="stroke:none;stroke-width:1.0;" width="1057" x="0" y="0"/><text fill="#000000" font-family="sans-serif" font-size="14" font-weight="bold" lengthAdjust="spacing" textLength="357" x="321.75" y="24.9659">Smart X-Ray Screening - Web Application Use Cases</text><!--cluster Web Application--><g id="cluster_Web Application"><rect fill="none" height="936" rx="2.5" ry="2.5" style="stroke:#181818;stroke-width:1.0;" width="800" x="26.0747" y="169.0679"/><text fill="#000000" font-family="sans-serif" font-size="14" font-weight="bold" lengthAdjust="spacing" textLength="114" x="369.0747" y="186.0339">Web Application</text></g><!--entity Doctor--><g id="elem_Doctor"><ellipse cx="412.0747" cy="52.5679" fill="#ADD8E6" rx="8" ry="8" style="stroke:#181818;stroke-width:0.5;"/><path d="M412.0747,60.5679 L412.0747,87.5679 M399.0747,68.5679 L425.0747,68.5679 M412.0747,87.5679 L399.0747,102.5679 M412.0747,87.5679 L425.0747,102.5679 " fill="none" style="stroke:#181818;stroke-width:0.5;"/><text fill="#000000" font-family="sans-serif" font-size="14" lengthAdjust="spacing" textLength="80" x="342.5747" y="119.0339">Radiologist/</text><text fill="#000000" font-family="sans-serif" font-size="14" lengthAdjust="spacing" textLength="139" x="342.5747" y="138.1018">Medical Professional</text></g><g id="elem_GMN34"><path d="M834.0747,387.0679 L834.0747,485.598 A0,0 0 0 0 834.0747,485.598 L844.2776,485.598 L754.1407,558.9533 L852.2776,485.598 L988.0747,485.598 A0,0 0 0 0 988.0747,485.598 L988.0747,397.0679 L978.0747,387.0679 L834.0747,387.0679 A0,0 0 0 0 834.0747,387.0679 " fill="#FEFFDD" style="stroke:#181818;stroke-width:0.5;"/><path d="M978.0747,387.0679 L978.0747,397.0679 L988.0747,397.0679 L978.0747,387.0679 " fill="#FEFFDD" style="stroke:#181818;stroke-width:0.5;"/><text fill="#000000" font-family="sans-serif" font-size="13" lengthAdjust="spacing" textLength="88" x="840.0747" y="405.9649">Preprocessing:</text><text fill="#000000" font-family="sans-serif" font-size="13" lengthAdjust="spacing" textLength="133" x="840.0747" y="423.6709">- CLAHE enhancement</text><text fill="#000000" font-family="sans-serif" font-size="13" lengthAdjust="spacing" textLength="79" x="840.0747" y="441.377">- Median blur</text><text fill="#000000" font-family="sans-serif" font-size="13" lengthAdjust="spacing" textLength="112" x="840.0747" y="459.083">- Resize to 256x256</text><text fill="#000000" font-family="sans-serif" font-size="13" lengthAdjust="spacing" textLength="97" x="840.0747" y="476.789">- Edge detection</text></g><g id="elem_GMN37"><path d="M834.5747,745.0679 L834.5747,772.5679 L813.2661,776.5679 L834.5747,780.5679 L834.5747,808.186 A0,0 0 0 0 834.5747,808.186 L1021.5747,808.186 A0,0 0 0 0 1021.5747,808.186 L1021.5747,755.0679 L1011.5747,745.0679 L834.5747,745.0679 A0,0 0 0 0 834.5747,745.0679 " fill="#FEFFDD" style="stroke:#181818;stroke-width:0.5;"/><path d="M1011.5747,745.0679 L1011.5747,755.0679 L1021.5747,755.0679 L1011.5747,745.0679 " fill="#FEFFDD" style="stroke:#181818;stroke-width:0.5;"/><text fill="#000000" font-family="sans-serif" font-size="13" lengthAdjust="spacing" textLength="151" x="840.5747" y="763.9649">Two-stage ML prediction:</text><text fill="#000000" font-family="sans-serif" font-size="13" lengthAdjust="spacing" textLength="166" x="840.5747" y="781.6709">Stage 1: Finding/No Finding</text><text fill="#000000" font-family="sans-serif" font-size="13" lengthAdjust="spacing" textLength="162" x="840.5747" y="799.377">Stage 2: Identify conditions</text></g><g id="elem_UC1"><ellipse cx="532.8826" cy="220.9295" fill="#F1F1F1" rx="92.3079" ry="20.8616" style="stroke:#181818;stroke-width:0.5;"/><text fill="#000000" font-family="sans-serif" font-size="14" lengthAdjust="spacing" textLength="136" x="461.8826" y="225.6625">Upload X-Ray Image</text></g><g id="elem_UC2"><ellipse cx="730.9251" cy="220.838" fill="#F1F1F1" rx="86.8505" ry="19.7701" style="stroke:#181818;stroke-width:0.5;"/><text fill="#000000" font-family="sans-serif" font-size="14" lengthAdjust="spacing" textLength="122" x="666.9251" y="225.571">Enter Patient Data</text></g><g id="elem_UC12"><ellipse cx="554.1444" cy="315.2819" fill="#F1F1F1" rx="74.0697" ry="17.2139" style="stroke:#181818;stroke-width:0.5;"/><text fill="#000000" font-family="sans-serif" font-size="14" lengthAdjust="spacing" textLength="86" x="508.1444" y="320.0148">Submit Form</text></g><g id="elem_UC13"><ellipse cx="566.0166" cy="436.4563" fill="#F1F1F1" rx="89.942" ry="20.3884" style="stroke:#181818;stroke-width:0.5;"/><text fill="#000000" font-family="sans-serif" font-size="14" lengthAdjust="spacing" textLength="130" x="498.0166" y="441.1893">Validate Input Data</text></g><g id="elem_UC3"><ellipse cx="723.1896" cy="977.4909" fill="#F1F1F1" rx="95.1149" ry="21.423" style="stroke:#181818;stroke-width:0.5;"/><text fill="#000000" font-family="sans-serif" font-size="14" lengthAdjust="spacing" textLength="143" x="648.6896" y="982.2239">View Analysis Results</text></g><g id="elem_UC4"><ellipse cx="551.0944" cy="1075.5719" fill="#F1F1F1" rx="95.5197" ry="21.5039" style="stroke:#181818;stroke-width:0.5;"/><text fill="#000000" font-family="sans-serif" font-size="14" lengthAdjust="spacing" textLength="144" x="476.0944" y="1080.3048">Export Results as PDF</text></g><g id="elem_UC5"><ellipse cx="738.3218" cy="1075.7173" fill="#F1F1F1" rx="73.7471" ry="17.1494" style="stroke:#181818;stroke-width:0.5;"/><text fill="#000000" font-family="sans-serif" font-size="14" lengthAdjust="spacing" textLength="85" x="692.8218" y="1080.4503">Print Results</text></g><g id="elem_UC6"><ellipse cx="132.1323" cy="220.9795" fill="#F1F1F1" rx="97.5577" ry="21.9115" style="stroke:#181818;stroke-width:0.5;"/><text fill="#000000" font-family="sans-serif" font-size="14" lengthAdjust="spacing" textLength="149" x="54.6323" y="225.7124">View Technical Details</text></g><g id="elem_UC7"><ellipse cx="335.1909" cy="220.9912" fill="#F1F1F1" rx="87.6162" ry="19.9232" style="stroke:#181818;stroke-width:0.5;"/><text fill="#000000" font-family="sans-serif" font-size="14" lengthAdjust="spacing" textLength="124" x="270.1909" y="225.7241">Access User Guide</text></g><g id="elem_UC8"><ellipse cx="730.0441" cy="578.7618" fill="#F1F1F1" rx="86.4695" ry="19.6939" style="stroke:#181818;stroke-width:0.5;"/><text fill="#000000" font-family="sans-serif" font-size="14" lengthAdjust="spacing" textLength="121" x="666.5441" y="583.4948">Preprocess Image</text></g><g id="elem_UC9"><ellipse cx="726.2125" cy="671.7955" fill="#F1F1F1" rx="81.6378" ry="18.7276" style="stroke:#181818;stroke-width:0.5;"/><text fill="#000000" font-family="sans-serif" font-size="14" lengthAdjust="spacing" textLength="108" x="669.2125" y="676.5284">Extract Features</text></g><g id="elem_UC10"><ellipse cx="726.3074" cy="776.4145" fill="#F1F1F1" rx="87.2327" ry="19.8465" style="stroke:#181818;stroke-width:0.5;"/><text fill="#000000" font-family="sans-serif" font-size="14" lengthAdjust="spacing" textLength="123" x="661.8074" y="781.1474">Run ML Prediction</text></g><g id="elem_UC11"><ellipse cx="724.2852" cy="882.31" fill="#F1F1F1" rx="84.2105" ry="19.2421" style="stroke:#181818;stroke-width:0.5;"/><text fill="#000000" font-family="sans-serif" font-size="14" lengthAdjust="spacing" textLength="115" x="663.7852" y="887.043">Generate Results</text></g><polygon fill="#181818" points="479.887,309.4534,471.1776,304.8547,474.8984,309.1157,470.6374,312.8365,479.887,309.4534" style="stroke:#181818;stroke-width:1.0;"/><path d="M342.4377,97.3161 C207.6728,106.02 -67.7139,136.9937 25.0747,243.0679 C54.569,276.7854 335.3584,299.6708 473.9007,309.0482 " fill="none" style="stroke:#181818;stroke-width:1.0;"/><polygon fill="#181818" points="513.7681,199.9635,510.4193,190.7015,510.3048,196.3572,504.6491,196.2427,513.7681,199.9635" style="stroke:#181818;stroke-width:1.0;"/><path d="M458.5104,142.4225 C477.7044,162.4096 494.7418,180.1511 509.6122,195.6359 " fill="none" style="stroke:#181818;stroke-width:1.0;"/><polygon fill="#181818" points="698.4102,200.9972,692.5104,193.111,694.0472,198.5551,688.6031,200.0919,698.4102,200.9972" style="stroke:#181818;stroke-width:1.0;"/><path d="M481.7352,114.2686 C526.2753,127.9701 584.8923,147.4724 635.0747,169.0679 C656.744,178.3932 674.9044,187.8406 693.1746,198.0667 " fill="none" style="stroke:#181818;stroke-width:1.0;"/><polygon fill="#181818" points="818.0959,967.9375,827.5049,970.8477,823.0609,967.3476,826.5611,962.9036,818.0959,967.9375" style="stroke:#181818;stroke-width:1.0;"/><path d="M481.8713,93.2976 C647.4171,93.3446 1050.0747,105.2594 1050.0747,220.0679 C1050.0747,220.0679 1050.0747,220.0679 1050.0747,883.0679 C1050.0747,931.707 920.6016,955.7586 824.054,967.2296 " fill="none" style="stroke:#181818;stroke-width:1.0;"/><polygon fill="#181818" points="175.3808,198.995,185.2252,198.6998,179.8869,196.8283,181.7584,191.49,175.3808,198.995" style="stroke:#181818;stroke-width:1.0;"/><path d="M342.3766,123.6117 C310.7321,137.1976 272.8948,153.683 239.0747,169.0679 C218.0017,178.6541 200.1935,187.0639 180.7881,196.3949 " fill="none" style="stroke:#181818;stroke-width:1.0;"/><polygon fill="#181818" points="346.7745,200.9227,354.8807,195.3289,349.3818,196.6563,348.0545,191.1573,346.7745,200.9227" style="stroke:#181818;stroke-width:1.0;"/><path d="M382.5247,142.4225 C370.0558,162.826 359.3898,180.2795 349.9032,195.803 " fill="none" style="stroke:#181818;stroke-width:1.0;"/><polygon fill="#181818" points="550.4032,297.9836,552.3001,288.3191,549.2905,293.1089,544.5007,290.0994,550.4032,297.9836" style="stroke:#181818;stroke-width:1.0;"/><path d="M537.7352,242.4857 C541.5536,259.2139 545.5475,276.7108 549.068,292.134 " fill="none" style="stroke:#181818;stroke-width:1.0;stroke-dasharray:7.0,7.0;"/><text fill="#000000" font-family="sans-serif" font-size="13" lengthAdjust="spacing" textLength="57" x="546.0747" y="275.9649">&#171;include&#187;</text><polygon fill="#181818" points="585.0908,297.9465,594.9213,297.345,589.5273,295.6405,591.2317,290.2466,585.0908,297.9465" style="stroke:#181818;stroke-width:1.0;"/><path d="M694.4001,241.1304 C662.0987,257.9198 620.8991,279.3343 590.4146,295.1794 " fill="none" style="stroke:#181818;stroke-width:1.0;stroke-dasharray:7.0,7.0;"/><text fill="#000000" font-family="sans-serif" font-size="13" lengthAdjust="spacing" textLength="57" x="654.0747" y="275.9649">&#171;include&#187;</text><polygon fill="#181818" points="564.0834,415.7385,567.1642,406.3839,563.5839,410.7636,559.2042,407.1832,564.0834,415.7385" style="stroke:#181818;stroke-width:1.0;"/><path d="M555.693,332.1842 C557.8682,353.8449 561.133,386.3575 563.4839,409.7686 " fill="none" style="stroke:#181818;stroke-width:1.0;stroke-dasharray:7.0,7.0;"/><text fill="#000000" font-family="sans-serif" font-size="13" lengthAdjust="spacing" textLength="57" x="560.0747" y="364.9649">&#171;include&#187;</text><polygon fill="#181818" points="708.3503,559.0227,704.1023,550.1371,704.5475,555.7764,698.9082,556.2216,708.3503,559.0227" style="stroke:#181818;stroke-width:1.0;"/><path d="M589.224,457.3296 C620.9217,484.3886 672.853,528.7202 703.7869,555.1272 " fill="none" style="stroke:#181818;stroke-width:1.0;stroke-dasharray:7.0,7.0;"/><text fill="#000000" font-family="sans-serif" font-size="13" lengthAdjust="spacing" textLength="57" x="687.0747" y="518.9649">&#171;include&#187;</text><text fill="#000000" font-family="sans-serif" font-size="13" lengthAdjust="spacing" textLength="46" x="692.5747" y="536.6709">[if valid]</text><polygon fill="#181818" points="726.8481,652.9717,731.2395,644.156,727.0677,647.9765,723.2472,643.8047,726.8481,652.9717" style="stroke:#181818;stroke-width:1.0;"/><path d="M729.2459,598.4232 C728.5411,614.4575 727.8001,631.3139 727.1116,646.9774 " fill="none" style="stroke:#181818;stroke-width:1.0;stroke-dasharray:7.0,7.0;"/><text fill="#000000" font-family="sans-serif" font-size="13" lengthAdjust="spacing" textLength="57" x="729.0747" y="630.9649">&#171;include&#187;</text><polygon fill="#181818" points="653.8389,652.9376,646.8192,646.0294,649.158,651.1801,644.0072,653.5189,653.8389,652.9376" style="stroke:#181818;stroke-width:1.0;"/><path d="M561.4669,457.0757 C555.0054,489.4151 547.0455,554.8429 576.0747,598.0679 C594.0549,624.8408 619.2107,639.9364 648.2218,650.8286 " fill="none" style="stroke:#181818;stroke-width:1.0;stroke-dasharray:7.0,7.0;"/><text fill="#000000" font-family="sans-serif" font-size="13" lengthAdjust="spacing" textLength="57" x="577.0747" y="574.9649">&#171;include&#187;</text><text fill="#000000" font-family="sans-serif" font-size="13" lengthAdjust="spacing" textLength="46" x="582.5747" y="592.6709">[if valid]</text><polygon fill="#181818" points="726.0747,756.4358,730.0747,747.4358,726.0747,751.4358,722.0747,747.4358,726.0747,756.4358" style="stroke:#181818;stroke-width:1.0;"/><path d="M726.0747,690.5091 C726.0747,708.953 726.0747,731.5681 726.0747,750.4358 " fill="none" style="stroke:#181818;stroke-width:1.0;stroke-dasharray:7.0,7.0;"/><text fill="#000000" font-family="sans-serif" font-size="13" lengthAdjust="spacing" textLength="57" x="727.0747" y="722.9649">&#171;include&#187;</text><polygon fill="#181818" points="724.429,862.73,728.6022,853.8089,724.5256,857.7309,720.6036,853.6544,724.429,862.73" style="stroke:#181818;stroke-width:1.0;"/><path d="M725.6985,797.0355 C725.3341,815.891 724.9017,838.2677 724.5449,856.7311 " fill="none" style="stroke:#181818;stroke-width:1.0;stroke-dasharray:7.0,7.0;"/><text fill="#000000" font-family="sans-serif" font-size="13" lengthAdjust="spacing" textLength="57" x="726.0747" y="840.9649">&#171;include&#187;</text><polygon fill="#181818" points="723.2947,955.9911,727.3908,947.0344,723.3482,950.9914,719.3912,946.9488,723.2947,955.9911" style="stroke:#181818;stroke-width:1.0;"/><path d="M723.8819,901.0957 C723.7139,916.8033 723.5345,933.5743 723.3589,949.9914 " fill="none" style="stroke:#181818;stroke-width:1.0;stroke-dasharray:7.0,7.0;"/><text fill="#000000" font-family="sans-serif" font-size="13" lengthAdjust="spacing" textLength="57" x="724.0747" y="933.9649">&#171;include&#187;</text><polygon fill="#181818" points="587.912,1054.0076,597.7202,1053.1141,592.2779,1051.5707,593.8213,1046.1285,587.912,1054.0076" style="stroke:#181818;stroke-width:1.0;"/><path d="M686.1763,999.1623 C657.1558,1015.3599 622.156,1034.8946 593.1511,1051.0834 " fill="none" style="stroke:#181818;stroke-width:1.0;stroke-dasharray:7.0,7.0;"/><text fill="#000000" font-family="sans-serif" font-size="13" lengthAdjust="spacing" textLength="56" x="653.0747" y="1031.9649">&#171;extend&#187;</text><polygon fill="#181818" points="735.569,1058.5318,738.1317,1049.0222,734.7971,1053.5917,730.2276,1050.2572,735.569,1058.5318" style="stroke:#181818;stroke-width:1.0;"/><path d="M726.3294,999.3985 C729.1039,1017.1553 732.1079,1036.3805 734.6428,1052.6037 " fill="none" style="stroke:#181818;stroke-width:1.0;stroke-dasharray:7.0,7.0;"/><text fill="#000000" font-family="sans-serif" font-size="13" lengthAdjust="spacing" textLength="56" x="732.0747" y="1031.9649">&#171;extend&#187;</text><rect fill="none" height="90.2717" id="_legend" rx="7.5" ry="7.5" style="stroke:#000000;stroke-width:1.0;" width="247" x="376.75" y="1119.0679"/><text fill="#000000" font-family="sans-serif" font-size="14" font-weight="bold" lengthAdjust="spacing" textLength="86" x="385.75" y="1141.0339">Relationship</text><text fill="#000000" font-family="sans-serif" font-size="14" font-weight="bold" lengthAdjust="spacing" textLength="79" x="479.75" y="1141.0339">Description</text><text fill="#000000" font-family="sans-serif" font-size="14" lengthAdjust="spacing" textLength="24" x="385.75" y="1160.1018">&#9472;&#9472;&gt;</text><text fill="#000000" font-family="sans-serif" font-size="14" lengthAdjust="spacing" textLength="135" x="479.75" y="1160.1018">Actor uses Use Case</text><text fill="#000000" font-family="sans-serif" font-size="14" lengthAdjust="spacing" textLength="84" x="385.75" y="1179.1697">..&gt; &#171;include&#187;</text><text fill="#000000" font-family="sans-serif" font-size="14" lengthAdjust="spacing" textLength="95" x="479.75" y="1179.1697">Required step</text><text fill="#000000" font-family="sans-serif" font-size="14" lengthAdjust="spacing" textLength="80" x="385.75" y="1198.2376">..&gt; &#171;extend&#187;</text><text fill="#000000" font-family="sans-serif" font-size="14" lengthAdjust="spacing" textLength="111" x="479.75" y="1198.2376">Optional feature</text><line style="stroke:#000000;stroke-width:1.0;" x1="381.75" x2="618.75" y1="1126.0679" y2="1126.0679"/><line style="stroke:#000000;stroke-width:1.0;" x1="381.75" x2="618.75" y1="1145.1358" y2="1145.1358"/><line style="stroke:#000000;stroke-width:1.0;" x1="381.75" x2="618.75" y1="1164.2038" y2="1164.2038"/><line style="stroke:#000000;stroke-width:1.0;" x1="381.75" x2="618.75" y1="1183.2717" y2="1183.2717"/><line style="stroke:#000000;stroke-width:1.0;" x1="381.75" x2="618.75" y1="1202.3396" y2="1202.3396"/><line style="stroke:#000000;stroke-width:1.0;" x1="381.75" x2="381.75" y1="1126.0679" y2="1202.3396"/><line style="stroke:#000000;stroke-width:1.0;" x1="475.75" x2="475.75" y1="1126.0679" y2="1202.3396"/><line style="stroke:#000000;stroke-width:1.0;" x1="618.75" x2="618.75" y1="1126.0679" y2="1202.3396"/><!--SRC=[TLNRSjCm47ttLopXeV0GshIqq4xfJ9fBoKpRP98Kw00FYhrnDCYIaMJQS9dX8_X2leILR1ShWIIUiVOSxQvspogFSitIZ85WQrLOC1bQ9bbaFd6PCyqoMB3uKwfL8PEU4ah3u-70VHiCmINQTOwWj5sfABBS2eHPnhI5T-qfMyCireYIonJQy1ONqCrpmMDckP9mOn1wpA29eXrurVX0jpSVJsU1BMAnfHnQKvPmoYRbnkv-a5UOa3S14wsMQ0nvPQ85p41VUVhZIvwkxBaeS2l6x7Os7rp1-VZckj-TteR1DCPKZ9GEqzh8kWNV8W3wxS0Lun8AEaJi3m7ktRr2woONYYLL2KOPIz4dTTFhD5a3QL73XDoYjD1dbbMi_IPhLYmoRc6eT5Ox2V0tJF24MOIHp8l0JUSWu76yWoxLPssuWIcQGbXJCGFYu3wdTjOCHvZqXnNnUPCuqLpQ3K-7Mo7d6A-aRrAV1CP5pJngChjnJErpYj1mKV2ahjUBkjRdf4MK2UHQEQOJr1CkOr4ac3mDayAA4nJ-PNX2gqbEC4Hc2urrHiTDphIGS7L9md8AAnjV5dMloRf0YTeLFwn2fnFzs1BST73PdO_6rxFNeyc6jebQ2POxJJ0Vq4ILhTq-AxiUhiFb1deGBe_2vGiNiHBMKgWxkEDs1LzA9L7eYDp3isTbM3Y1qzEgrcTd1Et_7-eyO0SR60Mife99zrGwTD4ZJo_tlGotVP3l-R9Cx6Faq99rl1tuuD_GXeFZEhszRGzxDTRPnkfg_EDKrRYetFSCbbfbe4irH6v3kV6vtuZtbaJiNTR0OGXiYkPwF1ziY4KgqfjLEQXb9Uo_cgUvE2536tgNtTS3GBbYCiQCxXTlTTSbax0GXVPhKYt_wfp1_k7HFJtUEaXIX0GjUXb6RknSpAYChDsDMiRsip2_KsrZQTBSkEGFu-BIc7bpvmI6N2QKskwrgbyVqFqJ62MK7r-k8LQ4bTB_6rHWwXOBPQtAQDjtcYGKNgPcnNEtxgE9DVSDWE-E0hz__QJV6RrrlUnfOCt3_qt5SVLlz98iK_nSS3e168jvmAhxGuQnZqFNsRAyFOX7K9bbz0S0]--></g></svg>