<?xml version="1.0" encoding="us-ascii" standalone="no"?><svg xmlns="http://www.w3.org/2000/svg" xmlns:xlink="http://www.w3.org/1999/xlink" contentStyleType="text/css" height="1176px" preserveAspectRatio="none" style="width:977px;height:1176px;background:#FEFEFE;" version="1.1" viewBox="0 0 977 1176" width="977px" zoomAndPan="magnify"><defs/><g><rect fill="#FEFEFE" height="1176" style="stroke:none;stroke-width:1.0;" width="977" x="0" y="0"/><text fill="#000000" font-family="sans-serif" font-size="14" font-weight="bold" lengthAdjust="spacing" textLength="398" x="271.75" y="24.9659">Smart X-Ray Screening System - Global Use Case Diagram</text><!--cluster Smart X-Ray Screening System--><g id="cluster_Smart X-Ray Screening System"><rect fill="none" height="803" rx="2.5" ry="2.5" style="stroke:#181818;stroke-width:1.0;" width="884" x="64" y="169.0679"/><text fill="#000000" font-family="sans-serif" font-size="14" font-weight="bold" lengthAdjust="spacing" textLength="212" x="400" y="186.0339">Smart X-Ray Screening System</text></g><!--entity Doctor--><g id="elem_Doctor"><ellipse cx="81" cy="52.5679" fill="#ADD8E6" rx="8" ry="8" style="stroke:#181818;stroke-width:0.5;"/><path d="M81,60.5679 L81,87.5679 M68,68.5679 L94,68.5679 M81,87.5679 L68,102.5679 M81,87.5679 L94,102.5679 " fill="none" style="stroke:#181818;stroke-width:0.5;"/><text fill="#000000" font-family="sans-serif" font-size="14" lengthAdjust="spacing" textLength="80" x="11.5" y="119.0339">Radiologist/</text><text fill="#000000" font-family="sans-serif" font-size="14" lengthAdjust="spacing" textLength="139" x="11.5" y="138.1018">Medical Professional</text></g><!--entity DataScientist--><g id="elem_DataScientist"><ellipse cx="741" cy="52.5679" fill="#90EE90" rx="8" ry="8" style="stroke:#181818;stroke-width:0.5;"/><path d="M741,60.5679 L741,87.5679 M728,68.5679 L754,68.5679 M741,87.5679 L728,102.5679 M741,87.5679 L754,102.5679 " fill="none" style="stroke:#181818;stroke-width:0.5;"/><text fill="#000000" font-family="sans-serif" font-size="14" lengthAdjust="spacing" textLength="97" x="692.5" y="119.0339">Data Scientist/</text><text fill="#000000" font-family="sans-serif" font-size="14" lengthAdjust="spacing" textLength="85" x="692.5" y="138.1018">ML Engineer</text></g><g id="elem_UC1"><ellipse cx="168.0197" cy="225.5719" fill="#F1F1F1" rx="95.5197" ry="21.5039" style="stroke:#181818;stroke-width:0.5;"/><text fill="#000000" font-family="sans-serif" font-size="14" lengthAdjust="spacing" textLength="144" x="93.0197" y="230.3048">Analyze Patient X-Ray</text></g><g id="elem_UC2"><ellipse cx="174.1973" cy="941.8074" fill="#F1F1F1" rx="101.6973" ry="22.7395" style="stroke:#181818;stroke-width:0.5;"/><text fill="#000000" font-family="sans-serif" font-size="14" lengthAdjust="spacing" textLength="159" x="91.6973" y="946.5403">View Diagnostic Results</text></g><g id="elem_UC3"><ellipse cx="370.0473" cy="941.6774" fill="#F1F1F1" rx="76.0473" ry="17.6095" style="stroke:#181818;stroke-width:0.5;"/><text fill="#000000" font-family="sans-serif" font-size="14" lengthAdjust="spacing" textLength="92" x="321.0473" y="946.4103">Export Report</text></g><g id="elem_UC15"><ellipse cx="295.2473" cy="846.0174" fill="#F1F1F1" rx="77.7473" ry="17.9495" style="stroke:#181818;stroke-width:0.5;"/><text fill="#000000" font-family="sans-serif" font-size="14" lengthAdjust="spacing" textLength="97" x="243.7473" y="850.7503">Create Results</text></g><g id="elem_UC8"><ellipse cx="174.9545" cy="336.0588" fill="#F1F1F1" rx="102.9545" ry="22.9909" style="stroke:#181818;stroke-width:0.5;"/><text fill="#000000" font-family="sans-serif" font-size="14" lengthAdjust="spacing" textLength="162" x="90.9545" y="340.7918">Preprocess X-Ray Image</text></g><g id="elem_UC9"><ellipse cx="347.0317" cy="445.4743" fill="#F1F1F1" rx="100.0317" ry="22.4063" style="stroke:#181818;stroke-width:0.5;"/><text fill="#000000" font-family="sans-serif" font-size="14" lengthAdjust="spacing" textLength="155" x="266.5317" y="450.2072">Extract Image Features</text></g><g id="elem_UC10"><ellipse cx="346.9683" cy="643.1616" fill="#F1F1F1" rx="83.4683" ry="19.0937" style="stroke:#181818;stroke-width:0.5;"/><text fill="#000000" font-family="sans-serif" font-size="14" lengthAdjust="spacing" textLength="113" x="287.4683" y="647.8946">Classify Findings</text></g><g id="elem_UC11"><ellipse cx="422.2105" cy="754.31" fill="#F1F1F1" rx="84.2105" ry="19.2421" style="stroke:#181818;stroke-width:0.5;"/><text fill="#000000" font-family="sans-serif" font-size="14" lengthAdjust="spacing" textLength="115" x="361.7105" y="759.043">Identify Diseases</text></g><g id="elem_UC4"><ellipse cx="365.0993" cy="225.5878" fill="#F1F1F1" rx="83.0993" ry="19.0199" style="stroke:#181818;stroke-width:0.5;"/><text fill="#000000" font-family="sans-serif" font-size="14" lengthAdjust="spacing" textLength="112" x="306.0993" y="230.3208">Train ML Models</text></g><g id="elem_UC5"><ellipse cx="759.7923" cy="336.2264" fill="#F1F1F1" rx="116.2923" ry="25.6585" style="stroke:#181818;stroke-width:0.5;"/><text fill="#000000" font-family="sans-serif" font-size="14" lengthAdjust="spacing" textLength="193" x="660.2923" y="340.9594">Evaluate Model Performance</text></g><g id="elem_UC6"><ellipse cx="832.7649" cy="225.3209" fill="#F1F1F1" rx="106.7649" ry="23.753" style="stroke:#181818;stroke-width:0.5;"/><text fill="#000000" font-family="sans-serif" font-size="14" lengthAdjust="spacing" textLength="171" x="744.2649" y="230.0539">Analyze Dataset Statistics</text></g><g id="elem_UC14"><ellipse cx="430.0169" cy="336.1713" fill="#F1F1F1" rx="133.5169" ry="29.1034" style="stroke:#181818;stroke-width:0.5;"/><text fill="#000000" font-family="sans-serif" font-size="14" lengthAdjust="spacing" textLength="231" x="314.5169" y="339.6033">Batch Preprocess Training Images</text></g><g id="elem_UC12"><ellipse cx="760.2317" cy="445.8143" fill="#F1F1F1" rx="116.7317" ry="25.7463" style="stroke:#181818;stroke-width:0.5;"/><text fill="#000000" font-family="sans-serif" font-size="14" lengthAdjust="spacing" textLength="194" x="660.2317" y="450.5472">Save Training Data &amp; Models</text></g><g id="elem_UC13"><ellipse cx="346.808" cy="547.3295" fill="#F1F1F1" rx="94.308" ry="21.2616" style="stroke:#181818;stroke-width:0.5;"/><text fill="#000000" font-family="sans-serif" font-size="14" lengthAdjust="spacing" textLength="141" x="273.308" y="552.0625">Load Trained Models</text></g><g id="elem_UC7"><ellipse cx="587.168" cy="225.7015" fill="#F1F1F1" rx="121.168" ry="26.6336" style="stroke:#181818;stroke-width:0.5;"/><text fill="#000000" font-family="sans-serif" font-size="14" lengthAdjust="spacing" textLength="204" x="483.0593" y="230.089">Access System Documentation</text></g><polygon fill="#181818" points="154.15,203.7929,152.4859,194.0856,151.3765,199.6326,145.8295,198.5232,154.15,203.7929" style="stroke:#181818;stroke-width:1.0;"/><path d="M113.1484,142.2905 C127.2825,163.4917 139.8075,182.2792 150.8218,198.8006 " fill="none" style="stroke:#181818;stroke-width:1.0;"/><polygon fill="#181818" points="72.2444,924.9489,65.1964,918.0696,67.5563,923.2107,62.4152,925.5706,72.2444,924.9489" style="stroke:#181818;stroke-width:1.0;"/><path d="M37.5894,142.179 C21.0035,165.3858 6,194.6475 6,224.5679 C6,224.5679 6,224.5679 6,847.0679 C6,873.3315 10.0852,883.9455 30,901.0679 C42.1873,911.5463 51.2919,917.1803 66.6187,922.863 " fill="none" style="stroke:#181818;stroke-width:1.0;"/><polygon fill="#181818" points="306.7574,924.0451,299.0742,917.8832,301.9225,922.7707,297.0351,925.619,306.7574,924.0451" style="stroke:#181818;stroke-width:1.0;"/><path d="M60.552,142.1112 C51.9949,166.3755 44,196.5443 44,224.5679 C44,224.5679 44,224.5679 44,847.0679 C44,853.8298 206.153,897.5264 300.9556,922.5158 " fill="none" style="stroke:#181818;stroke-width:1.0;"/><polygon fill="#181818" points="533.8567,198.9332,527.2842,191.5982,529.2952,196.8856,524.0079,198.8966,533.8567,198.9332" style="stroke:#181818;stroke-width:1.0;"/><path d="M150.6772,103.5535 C226.974,114.9542 352.3994,136.6892 457,169.0679 C482.9042,177.0865 505.1928,186.066 528.3829,196.476 " fill="none" style="stroke:#181818;stroke-width:1.0;"/><polygon fill="#181818" points="390.5112,206.4603,400.2134,204.767,394.663,203.6743,395.7558,198.1239,390.5112,206.4603" style="stroke:#181818;stroke-width:1.0;"/><path d="M692.391,102.5244 C634.711,113.5442 536.363,135.4668 457,169.0679 C433.2952,179.1042 413.3953,191.1045 395.4934,203.1171 " fill="none" style="stroke:#181818;stroke-width:1.0;"/><polygon fill="#181818" points="871.1211,310.5095,880.9649,310.8241,875.7527,308.6258,877.951,303.4136,871.1211,310.5095" style="stroke:#181818;stroke-width:1.0;"/><path d="M789.6223,96.3467 C838.9997,101.5624 913.1444,118.024 949,169.0679 C970.2039,199.2538 969.1697,221.1814 949,252.0679 C930.973,279.6733 907.0513,295.8964 876.679,308.2491 " fill="none" style="stroke:#181818;stroke-width:1.0;"/><polygon fill="#181818" points="816.6442,201.3676,814.7277,191.707,813.7632,197.281,808.1892,196.3165,816.6442,201.3676" style="stroke:#181818;stroke-width:1.0;"/><path d="M774.996,142.2905 C789.2258,162.4752 801.6462,180.0933 813.187,196.4637 " fill="none" style="stroke:#181818;stroke-width:1.0;"/><polygon fill="#181818" points="617.5175,198.7073,626.9697,195.9405,621.332,195.4749,621.7977,189.8372,617.5175,198.7073" style="stroke:#181818;stroke-width:1.0;"/><path d="M692.2734,135.3589 C667.7762,156.1179 643.4227,176.7551 622.095,194.8284 " fill="none" style="stroke:#181818;stroke-width:1.0;"/><polygon fill="#181818" points="173.5756,312.9897,176.9879,303.7509,173.2537,308.0001,169.0045,304.2659,173.5756,312.9897" style="stroke:#181818;stroke-width:1.0;"/><path d="M169.3331,247.2313 C170.547,266.0457 171.9478,287.7581 173.1893,307.0022 " fill="none" style="stroke:#181818;stroke-width:1.0;stroke-dasharray:7.0,7.0;"/><text fill="#000000" font-family="sans-serif" font-size="13" lengthAdjust="spacing" textLength="57" x="173" y="284.9649">&#171;include&#187;</text><polygon fill="#181818" points="312.4131,422.9511,306.9011,414.7891,308.1731,420.3011,302.6611,421.5731,312.4131,422.9511" style="stroke:#181818;stroke-width:1.0;"/><path d="M210.2218,359.0816 C240.0998,377.7553 277.6294,401.2113 307.3251,419.7711 " fill="none" style="stroke:#181818;stroke-width:1.0;stroke-dasharray:7.0,7.0;"/><text fill="#000000" font-family="sans-serif" font-size="13" lengthAdjust="spacing" textLength="57" x="278" y="397.9649">&#171;include&#187;</text><polygon fill="#181818" points="347,525.9369,351,516.9369,347,520.9369,343,516.9369,347,525.9369" style="stroke:#181818;stroke-width:1.0;"/><path d="M347,468.2664 C347,485.3844 347,503.1015 347,519.9369 " fill="none" style="stroke:#181818;stroke-width:1.0;stroke-dasharray:7.0,7.0;"/><text fill="#000000" font-family="sans-serif" font-size="13" lengthAdjust="spacing" textLength="57" x="348" y="503.9649">&#171;include&#187;</text><polygon fill="#181818" points="347,623.9016,351,614.9016,347,618.9016,343,614.9016,347,623.9016" style="stroke:#181818;stroke-width:1.0;"/><path d="M347,569.3186 C347,585.674 347,602.2543 347,617.9016 " fill="none" style="stroke:#181818;stroke-width:1.0;stroke-dasharray:7.0,7.0;"/><text fill="#000000" font-family="sans-serif" font-size="13" lengthAdjust="spacing" textLength="57" x="348" y="601.9649">&#171;include&#187;</text><polygon fill="#181818" points="409.4652,734.8506,407.6588,725.1688,406.6309,730.7315,401.0682,729.7036,409.4652,734.8506" style="stroke:#181818;stroke-width:1.0;"/><path d="M359.7227,662.5583 C373.5979,682.7235 392.2634,709.8507 406.0641,729.9077 " fill="none" style="stroke:#181818;stroke-width:1.0;stroke-dasharray:7.0,7.0;"/><text fill="#000000" font-family="sans-serif" font-size="13" lengthAdjust="spacing" textLength="56" x="426" y="694.9649">&#171;extend&#187;</text><text fill="#000000" font-family="sans-serif" font-size="13" lengthAdjust="spacing" textLength="116" x="396" y="712.6709">[if finding detected]</text><polygon fill="#181818" points="285.1452,827.9094,284.5926,818.076,282.8614,823.4615,277.4759,821.7302,285.1452,827.9094" style="stroke:#181818;stroke-width:1.0;"/><path d="M324.5583,662.2964 C305.9367,678.9875 280.8199,705.5302 270,735.0679 C258.3465,766.8814 271.1198,800.5943 282.4046,822.5719 " fill="none" style="stroke:#181818;stroke-width:1.0;stroke-dasharray:7.0,7.0;"/><text fill="#000000" font-family="sans-serif" font-size="13" lengthAdjust="spacing" textLength="57" x="271" y="759.4649">&#171;include&#187;</text><polygon fill="#181818" points="319.3695,827.7982,329.0253,825.8581,323.4489,824.9072,324.3998,819.3309,319.3695,827.7982" style="stroke:#181818;stroke-width:1.0;"/><path d="M396.2997,773.2808 C373.8308,789.2035 346.3301,808.6923 324.2648,824.3291 " fill="none" style="stroke:#181818;stroke-width:1.0;stroke-dasharray:7.0,7.0;"/><text fill="#000000" font-family="sans-serif" font-size="13" lengthAdjust="spacing" textLength="57" x="370" y="805.9649">&#171;include&#187;</text><polygon fill="#181818" points="356.5834,923.8419,354.0722,914.3185,353.4548,919.9416,347.8318,919.3242,356.5834,923.8419" style="stroke:#181818;stroke-width:1.0;"/><path d="M308.7562,864.2173 C322.3731,881.1931 339.3316,902.3346 352.8291,919.1616 " fill="none" style="stroke:#181818;stroke-width:1.0;stroke-dasharray:7.0,7.0;"/><text fill="#000000" font-family="sans-serif" font-size="13" lengthAdjust="spacing" textLength="56" x="337" y="896.9649">&#171;extend&#187;</text><polygon fill="#181818" points="202.0164,918.9189,211.5837,916.581,205.9728,915.8617,206.6922,910.2507,202.0164,918.9189" style="stroke:#181818;stroke-width:1.0;"/><path d="M272.8067,864.2173 C252.8848,879.6115 228.2965,898.6115 206.7641,915.2502 " fill="none" style="stroke:#181818;stroke-width:1.0;stroke-dasharray:7.0,7.0;"/><text fill="#000000" font-family="sans-serif" font-size="13" lengthAdjust="spacing" textLength="56" x="250" y="896.9649">&#171;extend&#187;</text><polygon fill="#181818" points="413.044,306.7645,411.8502,296.9882,410.4745,302.4753,404.9874,301.0996,413.044,306.7645" style="stroke:#181818;stroke-width:1.0;"/><path d="M376.0264,244.9735 C386.168,261.9023 398.2758,282.1129 409.9605,301.6174 " fill="none" style="stroke:#181818;stroke-width:1.0;stroke-dasharray:7.0,7.0;"/><text fill="#000000" font-family="sans-serif" font-size="13" lengthAdjust="spacing" textLength="57" x="402" y="284.9649">&#171;include&#187;</text><polygon fill="#181818" points="363.6809,422.9632,372.3472,418.284,366.7365,419.0055,366.015,413.3949,363.6809,422.9632" style="stroke:#181818;stroke-width:1.0;"/><path d="M408.1927,365.3123 C394.264,383.3525 380.1491,401.6339 367.3477,418.214 " fill="none" style="stroke:#181818;stroke-width:1.0;stroke-dasharray:7.0,7.0;"/><text fill="#000000" font-family="sans-serif" font-size="13" lengthAdjust="spacing" textLength="57" x="394" y="397.9649">&#171;include&#187;</text><polygon fill="#181818" points="670.156,310.5335,662.5295,304.3017,665.333,309.2149,660.4198,312.0185,670.156,310.5335" style="stroke:#181818;stroke-width:1.0;"/><path d="M430.3294,244.7017 C439.2895,247.1811 448.3714,249.6903 457,252.0679 C528.6435,271.8093 604.0675,292.4656 664.3684,308.9512 " fill="none" style="stroke:#181818;stroke-width:1.0;stroke-dasharray:7.0,7.0;"/><text fill="#000000" font-family="sans-serif" font-size="13" lengthAdjust="spacing" textLength="57" x="590" y="284.9649">&#171;include&#187;</text><polygon fill="#181818" points="760,420.02,764,411.02,760,415.02,756,411.02,760,420.02" style="stroke:#181818;stroke-width:1.0;"/><path d="M760,361.7306 C760,379.2111 760,396.5653 760,414.02 " fill="none" style="stroke:#181818;stroke-width:1.0;stroke-dasharray:7.0,7.0;"/><text fill="#000000" font-family="sans-serif" font-size="13" lengthAdjust="spacing" textLength="57" x="761" y="397.9649">&#171;include&#187;</text><rect fill="none" height="170.5433" id="_legend" rx="7.5" ry="7.5" style="stroke:#000000;stroke-width:1.0;" width="393" x="536.5" y="986.0679"/><text fill="#000000" font-family="sans-serif" font-size="14" font-weight="bold" lengthAdjust="spacing" textLength="38" x="545.5" y="1008.0339">Actor</text><text fill="#000000" font-family="sans-serif" font-size="14" font-weight="bold" lengthAdjust="spacing" textLength="30" x="645.5" y="1008.0339">Role</text><text fill="#000000" font-family="sans-serif" font-size="14" lengthAdjust="spacing" textLength="75" x="545.5" y="1027.1018">Radiologist</text><text fill="#000000" font-family="sans-serif" font-size="14" lengthAdjust="spacing" textLength="275" x="645.5" y="1027.1018">Diagnoses patients using ML predictions</text><text fill="#000000" font-family="sans-serif" font-size="14" lengthAdjust="spacing" textLength="92" x="545.5" y="1046.1697">Data Scientist</text><text fill="#000000" font-family="sans-serif" font-size="14" lengthAdjust="spacing" textLength="239" x="645.5" y="1046.1697">Develops and maintains ML models</text><line style="stroke:#000000;stroke-width:1.0;" x1="541.5" x2="924.5" y1="993.0679" y2="993.0679"/><line style="stroke:#000000;stroke-width:1.0;" x1="541.5" x2="924.5" y1="1012.1358" y2="1012.1358"/><line style="stroke:#000000;stroke-width:1.0;" x1="541.5" x2="924.5" y1="1031.2038" y2="1031.2038"/><line style="stroke:#000000;stroke-width:1.0;" x1="541.5" x2="924.5" y1="1050.2717" y2="1050.2717"/><line style="stroke:#000000;stroke-width:1.0;" x1="541.5" x2="541.5" y1="993.0679" y2="1050.2717"/><line style="stroke:#000000;stroke-width:1.0;" x1="641.5" x2="641.5" y1="993.0679" y2="1050.2717"/><line style="stroke:#000000;stroke-width:1.0;" x1="924.5" x2="924.5" y1="993.0679" y2="1050.2717"/><text fill="#000000" font-family="sans-serif" font-size="14" lengthAdjust="spacing" textLength="4" x="541.5" y="1067.2376">&#160;</text><text fill="#000000" font-family="sans-serif" font-size="14" font-weight="bold" lengthAdjust="spacing" textLength="86" x="545.5" y="1088.3055">Relationship</text><text fill="#000000" font-family="sans-serif" font-size="14" lengthAdjust="spacing" textLength="24" x="545.5" y="1107.3734">&#9472;&#9472;&gt;</text><text fill="#000000" font-family="sans-serif" font-size="14" lengthAdjust="spacing" textLength="84" x="545.5" y="1126.4414">..&gt; &#171;include&#187;</text><text fill="#000000" font-family="sans-serif" font-size="14" lengthAdjust="spacing" textLength="80" x="545.5" y="1145.5093">..&gt; &#171;extend&#187;</text><line style="stroke:#000000;stroke-width:1.0;" x1="541.5" x2="635.5" y1="1073.3396" y2="1073.3396"/><line style="stroke:#000000;stroke-width:1.0;" x1="541.5" x2="635.5" y1="1092.4075" y2="1092.4075"/><line style="stroke:#000000;stroke-width:1.0;" x1="541.5" x2="635.5" y1="1111.4754" y2="1111.4754"/><line style="stroke:#000000;stroke-width:1.0;" x1="541.5" x2="635.5" y1="1130.5433" y2="1130.5433"/><line style="stroke:#000000;stroke-width:1.0;" x1="541.5" x2="635.5" y1="1149.6113" y2="1149.6113"/><line style="stroke:#000000;stroke-width:1.0;" x1="541.5" x2="541.5" y1="1073.3396" y2="1149.6113"/><line style="stroke:#000000;stroke-width:1.0;" x1="635.5" x2="635.5" y1="1073.3396" y2="1149.6113"/><!--SRC=[VLNXRjis4FwlfxYwGBl-I1l7TjiChO74TZe3IMDOoRPYtGzMEYj4A58ZgQHUKw0FqIVia-n8KOvePtNisBhxxlZTnploKQLPKJ8GRArg2wP4ooHBp3MN5TEiX4yikowqgcK-KK9fU7moStyTXE0IxRf2KDfUgIInt0g4j6JQmfzxIxQ6DDE8aii2qhMnMC8Ul1Fg4nDmQH0cZFvDEIieMP8yXRUT5nnDBiwNQMHBM6Q9I6_9SawK2cxiYu_o37EUKSQ5LYiqXYl9H0-OWQdoyCUdlBYonwB6DdxAB2Dg7AKDAKvX9Wkg1dKJIO2DFoHuvohPOPb-I2zcPt1yVlb-UhJy4DFLc96c1MdI-vaeFVYI0D3xAKn8Kb_C7qfVhuIw9MjjC7D2zOweiFM_20jc7RKcc-TxEUbtWRzplFMwIcKips29fXRM1EX15phxND7c4S9z1S2W2vXeP1QtKlH7BU6mhQHzvhIdcdwPIukQg3xhfbbeh1fC465UiW93kjSn8wjfdne0dD3gjSPsuSE8cc2qv6eD9rpcjFI6tNuNDS_TDX9goWsIPOFgjpMSgHm5JF46XQfAGdV3BpJZ4gX1FAeD7aQCRvYedKXDeWNgbT8barbRt-YXNNGzPj12QfdhCfwrkLzsqSVCPbVGKS_pSJfxVJR53DjYV6-VqIGNk5rAocxmFju3dyHbzQFUE5KiR_2OR-46c_slAzSvb32gCVDSGtFG7DQE2zMfPCZmAlcwCqlBsUdHnVpyVVhRVB4r-0Jj33rGVr0gauG9tziR-n687W_Ynq7y-CgbZC-1-wpHz3VuuOFMqOFMbmzQ_OhkrFCIvLYXfCuaa76EpU3VXi6davBBJDGv6Z2DZjLco1Ag5fu_TsbVmw_mvas0ZiU9ipIUmntFOV3q1pikCWNV_gvll_NrlGy_M-8-7d-KV_4Lh9hXeuei7NUO_nr5Z7QpzN_Y6mNV85gewpc8FKaxlldz-6uqfBXXkzXmTx7X_mhLUdOPjZJw1rkkH611b42xku9cuOvkCDzlz6Efw0guSyQeY-_QCvgsk6hET4CpvCIaywRIxbxp7HbYjzhrhZso331QkAGvjVGnBhZqq-hZ6YvB57xyp1MlGheVtx_HUqo_BXs3nkYgwvJb6EC_DISk4Q3LdmpdbVLNBld9rAYG_0S0]--></g></svg>