<?xml version="1.0" encoding="us-ascii" standalone="no"?><svg xmlns="http://www.w3.org/2000/svg" xmlns:xlink="http://www.w3.org/1999/xlink" contentStyleType="text/css" height="660px" preserveAspectRatio="none" style="width:972px;height:660px;background:#FEFEFE;" version="1.1" viewBox="0 0 972 660" width="972px" zoomAndPan="magnify"><defs/><g><rect fill="#FEFEFE" height="660" style="stroke:none;stroke-width:1.0;" width="972" x="0" y="0"/><text fill="#000000" font-family="sans-serif" font-size="14" font-weight="bold" lengthAdjust="spacing" textLength="398" x="274.75" y="24.9659">Smart X-Ray Screening System - Global Use Case Diagram</text><!--cluster Smart X-Ray Screening System--><g id="cluster_Smart X-Ray Screening System"><rect fill="none" height="287" rx="2.5" ry="2.5" style="stroke:#181818;stroke-width:1.0;" width="884" x="22.6444" y="169.0679"/><text fill="#000000" font-family="sans-serif" font-size="14" font-weight="bold" lengthAdjust="spacing" textLength="212" x="358.6444" y="186.0339">Smart X-Ray Screening System</text></g><!--entity Doctor--><g id="elem_Doctor"><ellipse cx="895.6444" cy="52.5679" fill="#ADD8E6" rx="8" ry="8" style="stroke:#181818;stroke-width:0.5;"/><path d="M895.6444,60.5679 L895.6444,87.5679 M882.6444,68.5679 L908.6444,68.5679 M895.6444,87.5679 L882.6444,102.5679 M895.6444,87.5679 L908.6444,102.5679 " fill="none" style="stroke:#181818;stroke-width:0.5;"/><text fill="#000000" font-family="sans-serif" font-size="14" lengthAdjust="spacing" textLength="80" x="826.1444" y="119.0339">Radiologist/</text><text fill="#000000" font-family="sans-serif" font-size="14" lengthAdjust="spacing" textLength="139" x="826.1444" y="138.1018">Medical Professional</text></g><!--entity DataScientist--><g id="elem_DataScientist"><ellipse cx="241.6444" cy="52.5679" fill="#90EE90" rx="8" ry="8" style="stroke:#181818;stroke-width:0.5;"/><path d="M241.6444,60.5679 L241.6444,87.5679 M228.6444,68.5679 L254.6444,68.5679 M241.6444,87.5679 L228.6444,102.5679 M241.6444,87.5679 L254.6444,102.5679 " fill="none" style="stroke:#181818;stroke-width:0.5;"/><text fill="#000000" font-family="sans-serif" font-size="14" lengthAdjust="spacing" textLength="97" x="193.1444" y="119.0339">Data Scientist/</text><text fill="#000000" font-family="sans-serif" font-size="14" lengthAdjust="spacing" textLength="85" x="193.1444" y="138.1018">ML Engineer</text></g><g id="elem_UC1"><ellipse cx="802.6641" cy="225.5719" fill="#F1F1F1" rx="95.5197" ry="21.5039" style="stroke:#181818;stroke-width:0.5;"/><text fill="#000000" font-family="sans-serif" font-size="14" lengthAdjust="spacing" textLength="144" x="727.6641" y="230.3048">Analyze Patient X-Ray</text></g><g id="elem_UC2"><ellipse cx="796.8417" cy="332.8074" fill="#F1F1F1" rx="101.6973" ry="22.7395" style="stroke:#181818;stroke-width:0.5;"/><text fill="#000000" font-family="sans-serif" font-size="14" lengthAdjust="spacing" textLength="159" x="714.3417" y="337.5403">View Diagnostic Results</text></g><g id="elem_UC3"><ellipse cx="815.6916" cy="430.6774" fill="#F1F1F1" rx="76.0473" ry="17.6095" style="stroke:#181818;stroke-width:0.5;"/><text fill="#000000" font-family="sans-serif" font-size="14" lengthAdjust="spacing" textLength="92" x="766.6916" y="435.4103">Export Report</text></g><g id="elem_UC4"><ellipse cx="345.7437" cy="225.5878" fill="#F1F1F1" rx="83.0993" ry="19.0199" style="stroke:#181818;stroke-width:0.5;"/><text fill="#000000" font-family="sans-serif" font-size="14" lengthAdjust="spacing" textLength="112" x="286.7437" y="230.3208">Train ML Models</text></g><g id="elem_UC5"><ellipse cx="197.4367" cy="332.7264" fill="#F1F1F1" rx="116.2923" ry="25.6585" style="stroke:#181818;stroke-width:0.5;"/><text fill="#000000" font-family="sans-serif" font-size="14" lengthAdjust="spacing" textLength="193" x="97.9367" y="337.4594">Evaluate Model Performance</text></g><g id="elem_UC6"><ellipse cx="137.4093" cy="225.3209" fill="#F1F1F1" rx="106.7649" ry="23.753" style="stroke:#181818;stroke-width:0.5;"/><text fill="#000000" font-family="sans-serif" font-size="14" lengthAdjust="spacing" textLength="171" x="48.9093" y="230.0539">Analyze Dataset Statistics</text></g><g id="elem_UC7"><ellipse cx="567.8124" cy="225.7015" fill="#F1F1F1" rx="121.168" ry="26.6336" style="stroke:#181818;stroke-width:0.5;"/><text fill="#000000" font-family="sans-serif" font-size="14" lengthAdjust="spacing" textLength="204" x="463.7036" y="230.089">Access System Documentation</text></g><polygon fill="#181818" points="817.4496,203.7929,825.9302,198.785,820.3513,199.7211,819.4153,194.1422,817.4496,203.7929" style="stroke:#181818;stroke-width:1.0;"/><path d="M861.2788,142.2905 C846.17,163.4917 832.7056,182.3853 820.9317,198.9067 " fill="none" style="stroke:#181818;stroke-width:1.0;"/><polygon fill="#181818" points="846.7628,310.0343,856.572,309.1512,851.1314,307.6021,852.6805,302.1615,846.7628,310.0343" style="stroke:#181818;stroke-width:1.0;"/><path d="M911.3633,142.3044 C919.1402,174.824 923.8012,217.8665 907.6444,252.0679 C895.4441,277.8941 875.3782,294.1029 852.0051,307.1157 " fill="none" style="stroke:#181818;stroke-width:1.0;"/><polygon fill="#181818" points="849.2926,412.9134,859.0778,411.7958,853.6017,410.3774,855.0201,404.9012,849.2926,412.9134" style="stroke:#181818;stroke-width:1.0;"/><path d="M922.801,142.1246 C925.1884,148.0225 927.2316,154.0832 928.6444,160.0679 C948.976,246.1942 949.1391,279.9059 907.6444,358.0679 C894.8393,382.1884 875.1261,397.7095 854.4635,409.8701 " fill="none" style="stroke:#181818;stroke-width:1.0;"/><polygon fill="#181818" points="626.7954,198.9605,636.6432,199.1092,631.3946,196.999,633.5048,191.7505,626.7954,198.9605" style="stroke:#181818;stroke-width:1.0;"/><path d="M826.1112,119.8241 C788.2841,134.0155 740.7484,152.1409 698.6444,169.0679 C675.0396,178.5577 654.742,187.0418 632.3145,196.6067 " fill="none" style="stroke:#181818;stroke-width:1.0;"/><polygon fill="#181818" points="331.199,206.4417,328.7181,196.9105,328.0828,202.5316,322.4618,201.8963,331.199,206.4417" style="stroke:#181818;stroke-width:1.0;"/><path d="M280.0747,142.2905 C297.8964,164.6534 314.2652,185.193 327.4596,201.7495 " fill="none" style="stroke:#181818;stroke-width:1.0;"/><polygon fill="#181818" points="93.1743,307.0081,86.4492,299.8128,88.5709,305.0567,83.3269,307.1783,93.1743,307.0081" style="stroke:#181818;stroke-width:1.0;"/><path d="M192.6994,95.2355 C140.5839,99.4166 60.3918,114.9214 21.6444,169.0679 C0.177,199.0669 1.6367,221.0762 21.6444,252.0679 C38.1926,277.701 59.691,292.8143 87.6502,304.6664 " fill="none" style="stroke:#181818;stroke-width:1.0;"/><polygon fill="#181818" points="156.1336,201.3676,164.8708,196.8222,159.2497,197.4574,158.6145,191.8363,156.1336,201.3676" style="stroke:#181818;stroke-width:1.0;"/><path d="M203.2141,142.2905 C187.1283,162.4752 172.9191,180.3049 159.873,196.6753 " fill="none" style="stroke:#181818;stroke-width:1.0;"/><polygon fill="#181818" points="508.9518,198.9506,502.2628,191.7217,504.3581,196.9762,499.1037,199.0715,508.9518,198.9506" style="stroke:#181818;stroke-width:1.0;"/><path d="M290.1735,112.0515 C329.9603,126.9359 387.6588,148.8429 437.6444,169.0679 C461.0754,178.5485 481.1839,187.0152 503.4394,196.5813 " fill="none" style="stroke:#181818;stroke-width:1.0;"/><polygon fill="#181818" points="797.8893,309.782,802.3962,301.0248,798.1745,304.7901,794.4093,300.5684,797.8893,309.782" style="stroke:#181818;stroke-width:1.0;"/><path d="M801.459,247.3125 C800.4276,265.3619 799.2801,285.4422 798.2316,303.7917 " fill="none" style="stroke:#181818;stroke-width:1.0;stroke-dasharray:7.0,7.0;"/><text fill="#000000" font-family="sans-serif" font-size="13" lengthAdjust="spacing" textLength="57" x="800.6444" y="284.9649">&#171;include&#187;</text><polygon fill="#181818" points="812.3558,412.9522,814.5324,403.3468,811.3851,408.0473,806.6846,404.9,812.3558,412.9522" style="stroke:#181818;stroke-width:1.0;"/><path d="M800.9558,355.3518 C804.4156,372.833 808.035,391.1205 811.1909,407.0663 " fill="none" style="stroke:#181818;stroke-width:1.0;stroke-dasharray:7.0,7.0;"/><text fill="#000000" font-family="sans-serif" font-size="13" lengthAdjust="spacing" textLength="56" x="808.6444" y="390.9649">&#171;extend&#187;</text><polygon fill="#181818" points="232.4395,306.8822,242.0943,304.9369,236.5175,303.989,237.4653,298.4122,232.4395,306.8822" style="stroke:#181818;stroke-width:1.0;"/><path d="M320.2023,244.6181 C295.9866,261.7981 264.2439,284.3183 237.3331,303.4104 " fill="none" style="stroke:#181818;stroke-width:1.0;stroke-dasharray:7.0,7.0;"/><text fill="#000000" font-family="sans-serif" font-size="13" lengthAdjust="spacing" textLength="57" x="280.6444" y="284.9649">&#171;include&#187;</text><rect fill="none" height="170.5433" id="_legend" rx="7.5" ry="7.5" style="stroke:#000000;stroke-width:1.0;" width="393" x="542.5" y="470.0679"/><text fill="#000000" font-family="sans-serif" font-size="14" font-weight="bold" lengthAdjust="spacing" textLength="38" x="551.5" y="492.0339">Actor</text><text fill="#000000" font-family="sans-serif" font-size="14" font-weight="bold" lengthAdjust="spacing" textLength="30" x="651.5" y="492.0339">Role</text><text fill="#000000" font-family="sans-serif" font-size="14" lengthAdjust="spacing" textLength="75" x="551.5" y="511.1018">Radiologist</text><text fill="#000000" font-family="sans-serif" font-size="14" lengthAdjust="spacing" textLength="275" x="651.5" y="511.1018">Diagnoses patients using ML predictions</text><text fill="#000000" font-family="sans-serif" font-size="14" lengthAdjust="spacing" textLength="92" x="551.5" y="530.1697">Data Scientist</text><text fill="#000000" font-family="sans-serif" font-size="14" lengthAdjust="spacing" textLength="239" x="651.5" y="530.1697">Develops and maintains ML models</text><line style="stroke:#000000;stroke-width:1.0;" x1="547.5" x2="930.5" y1="477.0679" y2="477.0679"/><line style="stroke:#000000;stroke-width:1.0;" x1="547.5" x2="930.5" y1="496.1358" y2="496.1358"/><line style="stroke:#000000;stroke-width:1.0;" x1="547.5" x2="930.5" y1="515.2038" y2="515.2038"/><line style="stroke:#000000;stroke-width:1.0;" x1="547.5" x2="930.5" y1="534.2717" y2="534.2717"/><line style="stroke:#000000;stroke-width:1.0;" x1="547.5" x2="547.5" y1="477.0679" y2="534.2717"/><line style="stroke:#000000;stroke-width:1.0;" x1="647.5" x2="647.5" y1="477.0679" y2="534.2717"/><line style="stroke:#000000;stroke-width:1.0;" x1="930.5" x2="930.5" y1="477.0679" y2="534.2717"/><text fill="#000000" font-family="sans-serif" font-size="14" lengthAdjust="spacing" textLength="4" x="547.5" y="551.2376">&#160;</text><text fill="#000000" font-family="sans-serif" font-size="14" font-weight="bold" lengthAdjust="spacing" textLength="86" x="551.5" y="572.3055">Relationship</text><text fill="#000000" font-family="sans-serif" font-size="14" lengthAdjust="spacing" textLength="24" x="551.5" y="591.3734">&#9472;&#9472;&gt;</text><text fill="#000000" font-family="sans-serif" font-size="14" lengthAdjust="spacing" textLength="84" x="551.5" y="610.4414">..&gt; &#171;include&#187;</text><text fill="#000000" font-family="sans-serif" font-size="14" lengthAdjust="spacing" textLength="80" x="551.5" y="629.5093">..&gt; &#171;extend&#187;</text><line style="stroke:#000000;stroke-width:1.0;" x1="547.5" x2="641.5" y1="557.3396" y2="557.3396"/><line style="stroke:#000000;stroke-width:1.0;" x1="547.5" x2="641.5" y1="576.4075" y2="576.4075"/><line style="stroke:#000000;stroke-width:1.0;" x1="547.5" x2="641.5" y1="595.4754" y2="595.4754"/><line style="stroke:#000000;stroke-width:1.0;" x1="547.5" x2="641.5" y1="614.5433" y2="614.5433"/><line style="stroke:#000000;stroke-width:1.0;" x1="547.5" x2="641.5" y1="633.6113" y2="633.6113"/><line style="stroke:#000000;stroke-width:1.0;" x1="547.5" x2="547.5" y1="557.3396" y2="633.6113"/><line style="stroke:#000000;stroke-width:1.0;" x1="641.5" x2="641.5" y1="557.3396" y2="633.6113"/><!--SRC=[VLHTRzCm57tthxXq3tlg4FkKqAZKjMLCsjOgQO59l7Z9RMhDiOFjR2iKYH_1B-INSEqaa7GL_SxrkIVd7X_tLM5ubdEGVArB1pP7nnLdza6eWXkUmprF7ZAZIvMEjDG6zjvF_BE5a4AXMnS8shYLPim99n7Yd1i7d_iHNqES64GbL0RnsZhCeG-NKjzp2GkBCEBqCHOy8pB6zk5Twm73qNmQnPqQuuaZ8Rs8fu8aPSAwrr_K3QOY8SQPqKkqLcZ5PG-uXR4EyBrhaQtSXIonwHzpnqcQGELgYckOg8ocGLDr4k3lUarmwITveJA-Y-UJ6xYOBcx7m-YkAzTWGfvcv4dlVwRqu3i3eDS-ZCZICCmdRHwMKZzHjRIOUADwGnfi_GrXnfsNLh45lOlHcpRmey2duAlIrea48hIbTBQ67hQXa-U2DeyG_gi673LgRdIA4iRuY58NETsotJatN2WWvmAg8J_ka3zoMNA7DT4CpLARdAi4Q_J9hl6y-HOTn8vx-qNIS9yskkAoy7B9mKv_aj3sDq6ZpI-zPEBGgYOuOpzUR60qkHxEhwQtyOUhsLRQ2DfA6b1uYCgoEbRz_Y3uthayx5uUTI_FF6KtVFzOEv6hyCSxgoSxgwSxg-6E_gW5Yr8iKAMe26GPQOU3Wo0QtiBvkL29B5CS39YlL2j7OGMV7RM5XUDwuMIhXKdC20F6dnJQb0sTtp0u_OWq7O2DBtRit3G9HGj5bMXBc-cF1OMgCFvK1slgtYtVDaqkBN2wSKvXTFIslZaFYGnzbPO8PSY1NOcYfllzwoUz1lHhuHLKHJzSQool6B-MWhHq08qXL9WMBlpXq3gLAXVO7m00]--></g></svg>