<?xml version="1.0" encoding="us-ascii" standalone="no"?><svg xmlns="http://www.w3.org/2000/svg" xmlns:xlink="http://www.w3.org/1999/xlink" contentStyleType="text/css" height="839px" preserveAspectRatio="none" style="width:924px;height:839px;background:#FEFEFE;" version="1.1" viewBox="0 0 924 839" width="924px" zoomAndPan="magnify"><defs/><g><rect fill="#FEFEFE" height="839" style="stroke:none;stroke-width:1.0;" width="924" x="0" y="0"/><text fill="#000000" font-family="sans-serif" font-size="14" font-weight="bold" lengthAdjust="spacing" textLength="336" x="286" y="24.9659">Smart X-Ray Screening - Data Analysis Use Cases</text><!--cluster Data Analysis System--><g id="cluster_Data Analysis System"><rect fill="none" height="442.5" rx="2.5" ry="2.5" style="stroke:#181818;stroke-width:1.0;" width="733" x="14" y="177.0679"/><text fill="#000000" font-family="sans-serif" font-size="14" font-weight="bold" lengthAdjust="spacing" textLength="148" x="306.5" y="194.0339">Data Analysis System</text></g><!--entity DataScientist--><g id="elem_DataScientist"><ellipse cx="389" cy="60.5679" fill="#90EE90" rx="8" ry="8" style="stroke:#181818;stroke-width:0.5;"/><path d="M389,68.5679 L389,95.5679 M376,76.5679 L402,76.5679 M389,95.5679 L376,110.5679 M389,95.5679 L402,110.5679 " fill="none" style="stroke:#181818;stroke-width:0.5;"/><text fill="#000000" font-family="sans-serif" font-size="14" lengthAdjust="spacing" textLength="97" x="340.5" y="127.0339">Data Scientist/</text><text fill="#000000" font-family="sans-serif" font-size="14" lengthAdjust="spacing" textLength="85" x="340.5" y="146.1018">ML Engineer</text></g><g id="elem_GMN25"><path d="M56,60.5679 L56,141.392 A0,0 0 0 0 56,141.392 L140,141.392 L144,206.7865 L148,141.392 L232,141.392 A0,0 0 0 0 232,141.392 L232,70.5679 L222,60.5679 L56,60.5679 A0,0 0 0 0 56,60.5679 " fill="#FEFFDD" style="stroke:#181818;stroke-width:0.5;"/><path d="M222,60.5679 L222,70.5679 L232,70.5679 L222,60.5679 " fill="#FEFFDD" style="stroke:#181818;stroke-width:0.5;"/><text fill="#000000" font-family="sans-serif" font-size="13" font-weight="bold" lengthAdjust="spacing" textLength="155" x="62" y="79.4649">Demographics Analysis:</text><text fill="#000000" font-family="sans-serif" font-size="13" lengthAdjust="spacing" textLength="103" x="62" y="97.1709">- Age distribution</text><text fill="#000000" font-family="sans-serif" font-size="13" lengthAdjust="spacing" textLength="105" x="62" y="114.877">- Gender patterns</text><text fill="#000000" font-family="sans-serif" font-size="13" lengthAdjust="spacing" textLength="150" x="62" y="132.583">- View position frequency</text></g><g id="elem_GMN28"><path d="M757,193.0679 L757,273.892 A0,0 0 0 0 757,273.892 L917,273.892 A0,0 0 0 0 917,273.892 L917,203.0679 L907,193.0679 L797.9542,193.0679 L420.1664,209.9435 L789.9542,193.0679 L757,193.0679 A0,0 0 0 0 757,193.0679 " fill="#FEFFDD" style="stroke:#181818;stroke-width:0.5;"/><path d="M907,193.0679 L907,203.0679 L917,203.0679 L907,193.0679 " fill="#FEFFDD" style="stroke:#181818;stroke-width:0.5;"/><text fill="#000000" font-family="sans-serif" font-size="13" font-weight="bold" lengthAdjust="spacing" textLength="110" x="763" y="211.9649">Disease Analysis:</text><text fill="#000000" font-family="sans-serif" font-size="13" lengthAdjust="spacing" textLength="139" x="763" y="229.6709">- Disease co-occurrence</text><text fill="#000000" font-family="sans-serif" font-size="13" lengthAdjust="spacing" textLength="120" x="763" y="247.377">- Disease prevalence</text><text fill="#000000" font-family="sans-serif" font-size="13" lengthAdjust="spacing" textLength="128" x="763" y="265.083">- Correlation patterns</text></g><g id="elem_GMN31"><path d="M539.5,60.5679 L539.5,141.392 A0,0 0 0 0 539.5,141.392 L622,141.392 L626,208.3527 L630,141.392 L712.5,141.392 A0,0 0 0 0 712.5,141.392 L712.5,70.5679 L702.5,60.5679 L539.5,60.5679 A0,0 0 0 0 539.5,60.5679 " fill="#FEFFDD" style="stroke:#181818;stroke-width:0.5;"/><path d="M702.5,60.5679 L702.5,70.5679 L712.5,70.5679 L702.5,60.5679 " fill="#FEFFDD" style="stroke:#181818;stroke-width:0.5;"/><text fill="#000000" font-family="sans-serif" font-size="13" font-weight="bold" lengthAdjust="spacing" textLength="152" x="545.5" y="79.4649">Bounding Box Analysis:</text><text fill="#000000" font-family="sans-serif" font-size="13" lengthAdjust="spacing" textLength="120" x="545.5" y="97.1709">- Spatial distribution</text><text fill="#000000" font-family="sans-serif" font-size="13" lengthAdjust="spacing" textLength="110" x="545.5" y="114.877">- Box size statistics</text><text fill="#000000" font-family="sans-serif" font-size="13" lengthAdjust="spacing" textLength="113" x="545.5" y="132.583">- Location patterns</text></g><g id="elem_GMN34"><path d="M755.5,531.0679 L755.5,531.0679 L657.92,476.1173 L755.5,539.0679 L755.5,647.304 A0,0 0 0 0 755.5,647.304 L904.5,647.304 A0,0 0 0 0 904.5,647.304 L904.5,541.0679 L894.5,531.0679 L755.5,531.0679 A0,0 0 0 0 755.5,531.0679 " fill="#FEFFDD" style="stroke:#181818;stroke-width:0.5;"/><path d="M894.5,531.0679 L894.5,541.0679 L904.5,541.0679 L894.5,531.0679 " fill="#FEFFDD" style="stroke:#181818;stroke-width:0.5;"/><text fill="#000000" font-family="sans-serif" font-size="13" font-weight="bold" lengthAdjust="spacing" textLength="128" x="761.5" y="549.9649">Visualization Types:</text><text fill="#000000" font-family="sans-serif" font-size="13" lengthAdjust="spacing" textLength="60" x="761.5" y="567.6709">- Bar plots</text><text fill="#000000" font-family="sans-serif" font-size="13" lengthAdjust="spacing" textLength="82" x="761.5" y="585.377">- Scatter plots</text><text fill="#000000" font-family="sans-serif" font-size="13" lengthAdjust="spacing" textLength="77" x="761.5" y="603.083">- Histograms</text><text fill="#000000" font-family="sans-serif" font-size="13" lengthAdjust="spacing" textLength="69" x="761.5" y="620.789">- Heatmaps</text><text fill="#000000" font-family="sans-serif" font-size="13" lengthAdjust="spacing" textLength="118" x="761.5" y="638.495">- Distribution charts</text></g><g id="elem_UC1"><ellipse cx="144.1161" cy="233.7911" fill="#F1F1F1" rx="121.6161" ry="26.7232" style="stroke:#181818;stroke-width:0.5;"/><text fill="#000000" font-family="sans-serif" font-size="14" lengthAdjust="spacing" textLength="205" x="39.5997" y="238.141">Analyze Patient Demographics</text></g><g id="elem_UC2"><ellipse cx="388.9886" cy="233.5656" fill="#F1F1F1" rx="105.4886" ry="23.4977" style="stroke:#181818;stroke-width:0.5;"/><text fill="#000000" font-family="sans-serif" font-size="14" lengthAdjust="spacing" textLength="168" x="301.9886" y="238.2986">Analyze Disease Patterns</text></g><g id="elem_UC3"><ellipse cx="625.796" cy="233.5271" fill="#F1F1F1" rx="112.796" ry="24.9592" style="stroke:#181818;stroke-width:0.5;"/><text fill="#000000" font-family="sans-serif" font-size="14" lengthAdjust="spacing" textLength="185" x="530.296" y="238.2601">Analyze Bounding Box Data</text></g><g id="elem_UC4"><ellipse cx="352.0837" cy="352.3847" fill="#F1F1F1" rx="84.5837" ry="19.3167" style="stroke:#181818;stroke-width:0.5;"/><text fill="#000000" font-family="sans-serif" font-size="14" lengthAdjust="spacing" textLength="116" x="291.0837" y="357.1176">Load Dataset CSV</text></g><g id="elem_UC5"><ellipse cx="136.1411" cy="352.3961" fill="#F1F1F1" rx="104.6411" ry="23.3282" style="stroke:#181818;stroke-width:0.5;"/><text fill="#000000" font-family="sans-serif" font-size="14" lengthAdjust="spacing" textLength="166" x="50.1411" y="357.1291">Process Image Metadata</text></g><g id="elem_UC6"><ellipse cx="602.8868" cy="352.6453" fill="#F1F1F1" rx="88.3868" ry="20.0774" style="stroke:#181818;stroke-width:0.5;"/><text fill="#000000" font-family="sans-serif" font-size="14" lengthAdjust="spacing" textLength="126" x="536.8868" y="357.3782">Calculate Statistics</text></g><g id="elem_UC7"><ellipse cx="617.7797" cy="453.7239" fill="#F1F1F1" rx="101.2797" ry="22.6559" style="stroke:#181818;stroke-width:0.5;"/><text fill="#000000" font-family="sans-serif" font-size="14" lengthAdjust="spacing" textLength="158" x="535.7797" y="458.4568">Generate Visualizations</text></g><g id="elem_UC8"><ellipse cx="618.0317" cy="588.9743" fill="#F1F1F1" rx="100.0317" ry="22.4063" style="stroke:#181818;stroke-width:0.5;"/><text fill="#000000" font-family="sans-serif" font-size="14" lengthAdjust="spacing" textLength="155" x="537.5317" y="593.7072">Export Analysis Results</text></g><polygon fill="#181818" points="192.1871,206.9009,202.011,206.2002,196.6001,204.5503,198.25,199.1394,192.1871,206.9009" style="stroke:#181818;stroke-width:1.0;"/><path d="M340.303,128.0065 C297.3217,150.9007 240.3103,181.268 197.4827,204.0802 " fill="none" style="stroke:#181818;stroke-width:1.0;"/><polygon fill="#181818" points="389,209.7199,393,200.7199,389,204.7199,385,200.7199,389,209.7199" style="stroke:#181818;stroke-width:1.0;"/><path d="M389,150.2905 C389,170.6204 389,187.3213 389,203.7199 " fill="none" style="stroke:#181818;stroke-width:1.0;"/><polygon fill="#181818" points="582.3213,208.517,576.3668,200.672,577.9414,206.1053,572.5081,207.6798,582.3213,208.517" style="stroke:#181818;stroke-width:1.0;"/><path d="M437.5324,128.7914 C480.0558,152.2062 536.051,183.039 577.0654,205.6229 " fill="none" style="stroke:#181818;stroke-width:1.0;"/><polygon fill="#181818" points="319.7452,332.9532,313.9379,324.9986,315.411,330.4603,309.9493,331.9334,319.7452,332.9532" style="stroke:#181818;stroke-width:1.0;"/><path d="M190.6746,260.1842 C208.628,270.0871 229.2986,281.5491 248,292.0679 C272.1136,305.6309 294.0415,318.1694 314.5441,329.9618 " fill="none" style="stroke:#181818;stroke-width:1.0;stroke-dasharray:7.0,7.0;"/><text fill="#000000" font-family="sans-serif" font-size="13" lengthAdjust="spacing" textLength="57" x="281" y="306.9649">&#171;include&#187;</text><polygon fill="#181818" points="349.7849,332.9518,353.1677,323.7021,349.4471,327.9633,345.186,324.2427,349.7849,332.9518" style="stroke:#181818;stroke-width:1.0;"/><path d="M370.8199,257.2218 C363.8453,267.2832 356.681,279.6463 353,292.0679 C349.0666,305.3413 348.5716,315.0351 349.3795,326.9655 " fill="none" style="stroke:#181818;stroke-width:1.0;stroke-dasharray:7.0,7.0;"/><text fill="#000000" font-family="sans-serif" font-size="13" lengthAdjust="spacing" textLength="57" x="354" y="306.9649">&#171;include&#187;</text><polygon fill="#181818" points="380.778,332.9613,390.4839,331.289,384.9359,330.1843,386.0406,324.6364,380.778,332.9613" style="stroke:#181818;stroke-width:1.0;"/><path d="M553.3482,258.589 C536.8455,263.8529 519.3591,269.2795 503,274.0679 C472.9958,282.8504 462.8077,277.781 435,292.0679 C423.2064,298.1272 422.6184,303.1274 412,311.0679 C402.036,318.5191 395.7949,322.9317 385.7675,329.6289 " fill="none" style="stroke:#181818;stroke-width:1.0;stroke-dasharray:7.0,7.0;"/><text fill="#000000" font-family="sans-serif" font-size="13" lengthAdjust="spacing" textLength="57" x="436" y="306.9649">&#171;include&#187;</text><polygon fill="#181818" points="116.1304,328.9381,114.3674,319.2483,113.3146,324.8064,107.7566,323.7536,116.1304,328.9381" style="stroke:#181818;stroke-width:1.0;"/><path d="M123.06,260.1991 C116.5985,269.6391 110.3142,280.7928 107,292.0679 C104.6186,300.1696 104.4183,303.0278 107,311.0679 C109.0094,317.3256 109.0027,318.4792 112.7515,323.98 " fill="none" style="stroke:#181818;stroke-width:1.0;stroke-dasharray:7.0,7.0;"/><text fill="#000000" font-family="sans-serif" font-size="13" lengthAdjust="spacing" textLength="57" x="108" y="306.9649">&#171;include&#187;</text><polygon fill="#181818" points="152.118,328.9593,160.6979,324.1235,155.1012,324.9468,154.2779,319.3502,152.118,328.9593" style="stroke:#181818;stroke-width:1.0;"/><path d="M328.2885,257.0862 C310.9007,263.08 291.8256,269.2264 274,274.0679 C235.0545,284.6456 219.5992,271.2945 185,292.0679 C176.969,296.8897 166.6473,309.4175 155.6979,324.1443 " fill="none" style="stroke:#181818;stroke-width:1.0;stroke-dasharray:7.0,7.0;"/><text fill="#000000" font-family="sans-serif" font-size="13" lengthAdjust="spacing" textLength="57" x="186" y="306.9649">&#171;include&#187;</text><polygon fill="#181818" points="551.7521,332.3597,545.2001,325.0063,547.1964,330.2992,541.9034,332.2955,551.7521,332.3597" style="stroke:#181818;stroke-width:1.0;"/><path d="M218.2488,260.102 C236.3073,265.4825 255.6947,270.5795 274,274.0679 C322.1851,283.2504 449.4854,271.4628 494,292.0679 C504.8375,297.0844 503.1715,304.2842 513,311.0679 C524.8452,319.2436 533.14,323.9419 546.2852,329.8871 " fill="none" style="stroke:#181818;stroke-width:1.0;stroke-dasharray:7.0,7.0;"/><text fill="#000000" font-family="sans-serif" font-size="13" lengthAdjust="spacing" textLength="57" x="514" y="306.9649">&#171;include&#187;</text><polygon fill="#181818" points="598.9873,332.5346,600.3727,322.7837,597.6195,327.7253,592.6779,324.9721,598.9873,332.5346" style="stroke:#181818;stroke-width:1.0;"/><path d="M451.3549,257.0755 C468.337,262.9064 486.795,268.9727 504,274.0679 C535.6271,283.4341 550.6636,270.9477 576,292.0679 C588.2858,302.3093 593.5874,313.5479 597.346,326.7635 " fill="none" style="stroke:#181818;stroke-width:1.0;stroke-dasharray:7.0,7.0;"/><text fill="#000000" font-family="sans-serif" font-size="13" lengthAdjust="spacing" textLength="57" x="592" y="306.9649">&#171;include&#187;</text><polygon fill="#181818" points="639.1752,332.4661,648.7515,330.1654,643.1434,329.4243,643.8846,323.8162,639.1752,332.4661" style="stroke:#181818;stroke-width:1.0;"/><path d="M647.0452,258.7435 C657.6634,273.9991 666.638,293.9799 658,311.0679 C653.7203,319.5342 651.5062,323.0139 643.9371,328.8159 " fill="none" style="stroke:#181818;stroke-width:1.0;stroke-dasharray:7.0,7.0;"/><text fill="#000000" font-family="sans-serif" font-size="13" lengthAdjust="spacing" textLength="57" x="662" y="306.9649">&#171;include&#187;</text><polygon fill="#181818" points="614.6989,430.7807,617.3055,421.283,613.9499,425.8371,609.3958,422.4815,614.6989,430.7807" style="stroke:#181818;stroke-width:1.0;"/><path d="M605.8922,372.6561 C608.4121,389.2878 611.1663,407.4656 613.8001,424.8484 " fill="none" style="stroke:#181818;stroke-width:1.0;stroke-dasharray:7.0,7.0;"/><text fill="#000000" font-family="sans-serif" font-size="13" lengthAdjust="spacing" textLength="57" x="613" y="408.9649">&#171;include&#187;</text><polygon fill="#181818" points="618,566.331,622,557.331,618,561.331,614,557.331,618,566.331" style="stroke:#181818;stroke-width:1.0;"/><path d="M618,476.3141 C618,501.1393 618,535.5098 618,560.331 " fill="none" style="stroke:#181818;stroke-width:1.0;stroke-dasharray:7.0,7.0;"/><text fill="#000000" font-family="sans-serif" font-size="13" lengthAdjust="spacing" textLength="56" x="619" y="508.9649">&#171;extend&#187;</text><rect fill="none" height="166.5433" id="_legend" rx="7.5" ry="7.5" style="stroke:#000000;stroke-width:1.0;" width="207" x="350.5" y="653.0679"/><text fill="#000000" font-family="sans-serif" font-size="14" font-weight="bold" lengthAdjust="spacing" textLength="86" x="359.5" y="675.0339">Relationship</text><text fill="#000000" font-family="sans-serif" font-size="14" font-weight="bold" lengthAdjust="spacing" textLength="79" x="453.5" y="675.0339">Description</text><text fill="#000000" font-family="sans-serif" font-size="14" lengthAdjust="spacing" textLength="24" x="359.5" y="694.1018">&#9472;&#9472;&gt;</text><text fill="#000000" font-family="sans-serif" font-size="14" lengthAdjust="spacing" textLength="93" x="453.5" y="694.1018">Actor initiates</text><text fill="#000000" font-family="sans-serif" font-size="14" lengthAdjust="spacing" textLength="84" x="359.5" y="713.1697">..&gt; &#171;include&#187;</text><text fill="#000000" font-family="sans-serif" font-size="14" lengthAdjust="spacing" textLength="95" x="453.5" y="713.1697">Required step</text><text fill="#000000" font-family="sans-serif" font-size="14" lengthAdjust="spacing" textLength="80" x="359.5" y="732.2376">..&gt; &#171;extend&#187;</text><text fill="#000000" font-family="sans-serif" font-size="14" lengthAdjust="spacing" textLength="91" x="453.5" y="732.2376">Optional step</text><line style="stroke:#000000;stroke-width:1.0;" x1="355.5" x2="552.5" y1="660.0679" y2="660.0679"/><line style="stroke:#000000;stroke-width:1.0;" x1="355.5" x2="552.5" y1="679.1358" y2="679.1358"/><line style="stroke:#000000;stroke-width:1.0;" x1="355.5" x2="552.5" y1="698.2038" y2="698.2038"/><line style="stroke:#000000;stroke-width:1.0;" x1="355.5" x2="552.5" y1="717.2717" y2="717.2717"/><line style="stroke:#000000;stroke-width:1.0;" x1="355.5" x2="552.5" y1="736.3396" y2="736.3396"/><line style="stroke:#000000;stroke-width:1.0;" x1="355.5" x2="355.5" y1="660.0679" y2="736.3396"/><line style="stroke:#000000;stroke-width:1.0;" x1="449.5" x2="449.5" y1="660.0679" y2="736.3396"/><line style="stroke:#000000;stroke-width:1.0;" x1="552.5" x2="552.5" y1="660.0679" y2="736.3396"/><text fill="#000000" font-family="sans-serif" font-size="14" lengthAdjust="spacing" textLength="4" x="355.5" y="753.3055">&#160;</text><text fill="#000000" font-family="sans-serif" font-size="14" font-weight="bold" lengthAdjust="spacing" textLength="94" x="355.5" y="772.3734">Data Sources:</text><text fill="#000000" font-family="sans-serif" font-size="14" lengthAdjust="spacing" textLength="189" x="355.5" y="791.4414">- Data_Entry_2017_v2020.csv</text><text fill="#000000" font-family="sans-serif" font-size="14" lengthAdjust="spacing" textLength="134" x="355.5" y="810.5093">- BBox_List_2017.csv</text><!--SRC=[VLLjJzim4FwUNt4h7oOXbK4PBK8CgRGT81MAceA6D0aPzqWj4Zkp7Q2CIViH-uNx9JixQPg-hSs7vkxnFNVFtRaVKisYX47CfYgpO1AqJBB0F0cPCiqIU63yAT8ga-EEYfM6hQyzzwqWOY7HJbC4fUr41O4LDaO84wOjVAiFsHH2hX6ba17KeSiiWxPayTG80pS6eSCCcY3u25yg7sXtHeDXk60B6BUKGSs72Bb0QOMndxxBopxqP4HfeAu1CvwZzCDMNqGJU-PIM649xy9Hxn9E1pTNtVRmRf5E8oSn8YgcjfXrE3KManhy303eoGnogW5g7l26SCsi8uSk9YhIB9q8RdnYDvszTVYkCEWCTCwYbZDiOntsrBN2INcgNdsX1NY_2kuhDlPEWnOwuMs1-Lp5N6l5qHYuI5Y4S4bz7y-Z7LIH7HRpB6QMccgPatHUJhEAEqE9si5kXSbOBDu8hCfgMbLexpMbQPahEaIJnNO6FGn-hNHgsEktHnU3g_3yudffB8B5VjVh9rxeTTR6Mkk-OojpUOpLIq01O6V7EJ_34HmV2ydZR8md9-HfRFJiR_1KmXri37Um-L1puw7cnXoQg-6QXQkrSgXLU0wz1ryjoh4xizI4gy6ejoI-LDHmgr9GZyLuRszNvxxKzMXxcvnrQDEqZKbxBHuoDn_UIACpHWrfiG3UTYlm1L9bX4F1eyOV6Ke-3GWAZZN8kRNRxfozaRCNsxHCFBDpLLUSPrfJD5pmf1gVMLoQEuemiH_YUMPBx6Nb-vvxOJkN4mWfY63nQlKER0GjjodtozlxYl-V_K5Pgv8yWPPFO67rO4JNSab_oaZWMDayTiXzp8hbd9XTsvBY5PbDM6fc2fKf0v_GrLxD9SR8lUJP4FwTrhKGpan4wjwxQBWMgJ__xY3mzyzlUaxeLzjVwq9Ie-dsC8NV3MHbICaof0aG6iSa4wOBgDd0ac7WEKZb4fGFXV_FK9dcSq6SxRudhPxUDtRtMlVFZTt6xWutpxbSr9NxFjNjdTvC77cfmJy0]--></g></svg>