<?xml version="1.0" encoding="us-ascii" standalone="no"?><svg xmlns="http://www.w3.org/2000/svg" xmlns:xlink="http://www.w3.org/1999/xlink" contentStyleType="text/css" height="1054px" preserveAspectRatio="none" style="width:673px;height:1054px;background:#FEFEFE;" version="1.1" viewBox="0 0 673 1054" width="673px" zoomAndPan="magnify"><defs/><g><rect fill="#FEFEFE" height="1054" style="stroke:none;stroke-width:1.0;" width="673" x="0" y="0"/><text fill="#000000" font-family="sans-serif" font-size="14" font-weight="bold" lengthAdjust="spacing" textLength="339" x="159" y="24.9659">Smart X-Ray Screening - ML Prediction Use Cases</text><!--cluster ML Prediction System--><g id="cluster_ML Prediction System"><rect fill="none" height="745.5" rx="2.5" ry="2.5" style="stroke:#181818;stroke-width:1.0;" width="436" x="14" y="158.5679"/><text fill="#000000" font-family="sans-serif" font-size="14" font-weight="bold" lengthAdjust="spacing" textLength="151" x="156.5" y="175.5339">ML Prediction System</text></g><!--entity System--><g id="elem_System"><ellipse cx="253" cy="60.5679" fill="#E6E6FA" rx="8" ry="8" style="stroke:#181818;stroke-width:0.5;"/><path d="M253,68.5679 L253,95.5679 M240,76.5679 L266,76.5679 M253,95.5679 L240,110.5679 M253,95.5679 L266,110.5679 " fill="none" style="stroke:#181818;stroke-width:0.5;"/><text fill="#000000" font-family="sans-serif" font-size="14" lengthAdjust="spacing" textLength="48" x="229" y="127.0339">System</text></g><g id="elem_GMN20"><path d="M460,304.0679 L460,402.598 A0,0 0 0 0 460,402.598 L608,402.598 A0,0 0 0 0 608,402.598 L608,314.0679 L598,304.0679 L492.7717,304.0679 L140.1218,331.7639 L484.7717,304.0679 L460,304.0679 A0,0 0 0 0 460,304.0679 " fill="#FEFFDD" style="stroke:#181818;stroke-width:0.5;"/><path d="M598,304.0679 L598,314.0679 L608,314.0679 L598,304.0679 " fill="#FEFFDD" style="stroke:#181818;stroke-width:0.5;"/><text fill="#000000" font-family="sans-serif" font-size="13" font-weight="bold" lengthAdjust="spacing" textLength="94" x="466" y="322.9649">HOG Features:</text><text fill="#000000" font-family="sans-serif" font-size="13" lengthAdjust="spacing" textLength="125" x="466" y="340.6709">- Image size: 256x256</text><text fill="#000000" font-family="sans-serif" font-size="13" lengthAdjust="spacing" textLength="127" x="466" y="358.377">- Pixels per cell: 32x32</text><text fill="#000000" font-family="sans-serif" font-size="13" lengthAdjust="spacing" textLength="119" x="466" y="376.083">- Cells per block: 4x4</text><text fill="#000000" font-family="sans-serif" font-size="13" lengthAdjust="spacing" textLength="95" x="466" y="393.789">- Orientations: 9</text></g><g id="elem_GMN23"><path d="M458.5,168.0679 L458.5,248.892 A0,0 0 0 0 458.5,248.892 L480.8911,248.892 L368.5068,330.0025 L488.8911,248.892 L625.5,248.892 A0,0 0 0 0 625.5,248.892 L625.5,178.0679 L615.5,168.0679 L458.5,168.0679 A0,0 0 0 0 458.5,168.0679 " fill="#FEFFDD" style="stroke:#181818;stroke-width:0.5;"/><path d="M615.5,168.0679 L615.5,178.0679 L625.5,178.0679 L615.5,168.0679 " fill="#FEFFDD" style="stroke:#181818;stroke-width:0.5;"/><text fill="#000000" font-family="sans-serif" font-size="13" font-weight="bold" lengthAdjust="spacing" textLength="68" x="464.5" y="186.9649">Metadata:</text><text fill="#000000" font-family="sans-serif" font-size="13" lengthAdjust="spacing" textLength="124" x="464.5" y="204.6709">- Patient Age (scaled)</text><text fill="#000000" font-family="sans-serif" font-size="13" lengthAdjust="spacing" textLength="133" x="464.5" y="222.377">- Patient Sex (one-hot)</text><text fill="#000000" font-family="sans-serif" font-size="13" lengthAdjust="spacing" textLength="146" x="464.5" y="240.083">- View Position (one-hot)</text></g><g id="elem_GMN26"><path d="M459.5,686.0679 L459.5,749.186 A0,0 0 0 0 459.5,749.186 L576.5,749.186 A0,0 0 0 0 576.5,749.186 L576.5,696.0679 L566.5,686.0679 L487.4963,686.0679 L386.0589,613.1932 L479.4963,686.0679 L459.5,686.0679 A0,0 0 0 0 459.5,686.0679 " fill="#FEFFDD" style="stroke:#181818;stroke-width:0.5;"/><path d="M566.5,686.0679 L566.5,696.0679 L576.5,696.0679 L566.5,686.0679 " fill="#FEFFDD" style="stroke:#181818;stroke-width:0.5;"/><text fill="#000000" font-family="sans-serif" font-size="13" font-weight="bold" lengthAdjust="spacing" textLength="96" x="465.5" y="704.9649">Stage 1 Result:</text><text fill="#000000" font-family="sans-serif" font-size="13" lengthAdjust="spacing" textLength="86" x="465.5" y="722.6709">0 = No Finding</text><text fill="#000000" font-family="sans-serif" font-size="13" lengthAdjust="spacing" textLength="91" x="465.5" y="740.377">1 = Has Finding</text></g><g id="elem_GMN29"><path d="M458,804.0679 L458,938.01 A0,0 0 0 0 458,938.01 L666,938.01 A0,0 0 0 0 666,938.01 L666,814.0679 L656,804.0679 L467.1158,804.0679 L379.3077,747.5994 L459.1158,804.0679 L458,804.0679 A0,0 0 0 0 458,804.0679 " fill="#FEFFDD" style="stroke:#181818;stroke-width:0.5;"/><path d="M656,804.0679 L656,814.0679 L666,814.0679 L656,804.0679 " fill="#FEFFDD" style="stroke:#181818;stroke-width:0.5;"/><text fill="#000000" font-family="sans-serif" font-size="13" font-weight="bold" lengthAdjust="spacing" textLength="91" x="464" y="822.9649">14 Conditions:</text><text fill="#000000" font-family="sans-serif" font-size="13" lengthAdjust="spacing" textLength="155" x="464" y="840.6709">Atelectasis, Cardiomegaly,</text><text fill="#000000" font-family="sans-serif" font-size="13" lengthAdjust="spacing" textLength="187" x="464" y="858.377">Consolidation, Edema, Effusion,</text><text fill="#000000" font-family="sans-serif" font-size="13" lengthAdjust="spacing" textLength="175" x="464" y="876.083">Emphysema, Fibrosis, Hernia,</text><text fill="#000000" font-family="sans-serif" font-size="13" lengthAdjust="spacing" textLength="153" x="464" y="893.789">Infiltration, Mass, Nodule,</text><text fill="#000000" font-family="sans-serif" font-size="13" lengthAdjust="spacing" textLength="187" x="464" y="911.495">Pleural Thickening, Pneumonia,</text><text fill="#000000" font-family="sans-serif" font-size="13" lengthAdjust="spacing" textLength="91" x="464" y="929.201">Pneumothorax</text></g><g id="elem_UC1"><ellipse cx="252.7738" cy="208.7227" fill="#F1F1F1" rx="88.7738" ry="20.1548" style="stroke:#181818;stroke-width:0.5;"/><text fill="#000000" font-family="sans-serif" font-size="14" lengthAdjust="spacing" textLength="127" x="186.2738" y="213.4557">Receive Input Data</text></g><g id="elem_UC2"><ellipse cx="117.1149" cy="353.4909" fill="#F1F1F1" rx="95.1149" ry="21.423" style="stroke:#181818;stroke-width:0.5;"/><text fill="#000000" font-family="sans-serif" font-size="14" lengthAdjust="spacing" textLength="143" x="42.6149" y="358.2239">Extract HOG Features</text></g><g id="elem_UC3"><ellipse cx="335.9886" cy="353.5656" fill="#F1F1F1" rx="105.4886" ry="23.4977" style="stroke:#181818;stroke-width:0.5;"/><text fill="#000000" font-family="sans-serif" font-size="14" lengthAdjust="spacing" textLength="168" x="248.9886" y="358.2986">Encode Patient Metadata</text></g><g id="elem_UC4"><ellipse cx="332.8505" cy="477.838" fill="#F1F1F1" rx="86.8505" ry="19.7701" style="stroke:#181818;stroke-width:0.5;"/><text fill="#000000" font-family="sans-serif" font-size="14" lengthAdjust="spacing" textLength="122" x="268.8505" y="482.571">Combine Features</text></g><g id="elem_UC5"><ellipse cx="333.066" cy="583.034" fill="#F1F1F1" rx="109.066" ry="29.9661" style="stroke:#181818;stroke-width:0.5;"/><text fill="#000000" font-family="sans-serif" font-size="14" lengthAdjust="spacing" textLength="114" x="276.066" y="576.932">Run Stage 1 SVM</text><text fill="#000000" font-family="sans-serif" font-size="14" lengthAdjust="spacing" textLength="138" x="264.066" y="596">(Finding/No Finding)</text></g><g id="elem_UC6"><ellipse cx="336.0305" cy="717.534" fill="#F1F1F1" rx="105.5305" ry="29.9661" style="stroke:#181818;stroke-width:0.5;"/><text fill="#000000" font-family="sans-serif" font-size="14" lengthAdjust="spacing" textLength="121" x="275.5305" y="711.432">Run Stage 2 SVMs</text><text fill="#000000" font-family="sans-serif" font-size="14" lengthAdjust="spacing" textLength="133" x="269.5305" y="730.5">(14 Disease Models)</text></g><g id="elem_UC7"><ellipse cx="204.1669" cy="871.2013" fill="#F1F1F1" rx="113.6669" ry="25.1334" style="stroke:#181818;stroke-width:0.5;"/><text fill="#000000" font-family="sans-serif" font-size="14" lengthAdjust="spacing" textLength="187" x="107.6669" y="875.9343">Generate Prediction Results</text></g><polygon fill="#181818" points="253,188.5659,257,179.5659,253,183.5659,249,179.5659,253,188.5659" style="stroke:#181818;stroke-width:1.0;"/><path d="M253,131.1812 C253,150.4956 253,167.0083 253,182.5659 " fill="none" style="stroke:#181818;stroke-width:1.0;"/><polygon fill="#181818" points="136.8119,331.7362,145.9128,327.9713,140.2577,328.1131,140.1158,322.4581,136.8119,331.7362" style="stroke:#181818;stroke-width:1.0;"/><path d="M234.6584,228.8535 C209.1369,255.6886 167.2304,299.7521 140.9468,327.3885 " fill="none" style="stroke:#181818;stroke-width:1.0;stroke-dasharray:7.0,7.0;"/><text fill="#000000" font-family="sans-serif" font-size="13" lengthAdjust="spacing" textLength="57" x="198" y="281.9649">&#171;include&#187;</text><polygon fill="#181818" points="322.7968,329.8202,321.7384,320.0284,320.2869,325.4959,314.8194,324.0443,322.7968,329.8202" style="stroke:#181818;stroke-width:1.0;"/><path d="M264.1937,228.8535 C279.4154,255.0787 303.5855,296.7212 319.7849,324.631 " fill="none" style="stroke:#181818;stroke-width:1.0;stroke-dasharray:7.0,7.0;"/><text fill="#000000" font-family="sans-serif" font-size="13" lengthAdjust="spacing" textLength="57" x="297" y="281.9649">&#171;include&#187;</text><polygon fill="#181818" points="299.2213,457.911,293.3659,449.9917,294.872,455.4444,289.4193,456.9505,299.2213,457.911" style="stroke:#181818;stroke-width:1.0;"/><path d="M153.1535,375.0717 C193.8666,398.1612 254.2902,432.4293 294.0022,454.9511 " fill="none" style="stroke:#181818;stroke-width:1.0;stroke-dasharray:7.0,7.0;"/><text fill="#000000" font-family="sans-serif" font-size="13" lengthAdjust="spacing" textLength="57" x="264" y="435.9649">&#171;include&#187;</text><polygon fill="#181818" points="333.4657,458.0533,337.6848,449.1539,333.5881,453.0548,329.6872,448.9581,333.4657,458.0533" style="stroke:#181818;stroke-width:1.0;"/><path d="M335.4428,377.3221 C334.8734,400.5705 334.1462,430.2641 333.6126,452.0551 " fill="none" style="stroke:#181818;stroke-width:1.0;stroke-dasharray:7.0,7.0;"/><text fill="#000000" font-family="sans-serif" font-size="13" lengthAdjust="spacing" textLength="57" x="335" y="435.9649">&#171;include&#187;</text><polygon fill="#181818" points="333,553.0425,337,544.0425,333,548.0425,329,544.0425,333,553.0425" style="stroke:#181818;stroke-width:1.0;"/><path d="M333,498.4414 C333,513.8259 333,529.5789 333,547.0425 " fill="none" style="stroke:#181818;stroke-width:1.0;stroke-dasharray:7.0,7.0;"/><text fill="#000000" font-family="sans-serif" font-size="13" lengthAdjust="spacing" textLength="57" x="334" y="530.9649">&#171;include&#187;</text><polygon fill="#181818" points="335.3432,687.5581,339.1384,678.4698,335.23,682.5593,331.1405,678.6509,335.3432,687.5581" style="stroke:#181818;stroke-width:1.0;"/><path d="M333.6584,613.1456 C334.1586,635.2375 334.7075,659.4845 335.2074,681.5596 " fill="none" style="stroke:#181818;stroke-width:1.0;stroke-dasharray:7.0,7.0;"/><text fill="#000000" font-family="sans-serif" font-size="13" lengthAdjust="spacing" textLength="56" x="344" y="645.9649">&#171;extend&#187;</text><text fill="#000000" font-family="sans-serif" font-size="13" lengthAdjust="spacing" textLength="74" x="335" y="663.6709">[if finding=1]</text><polygon fill="#181818" points="188.3465,845.8259,187.2414,836.0392,185.8159,841.5135,180.3416,840.0881,188.3465,845.8259" style="stroke:#181818;stroke-width:1.0;"/><path d="M249.2826,613.1709 C216.2841,629.2302 181.8235,652.822 163,686.0679 C133.6525,737.9012 163.7196,803.8587 185.3098,840.6511 " fill="none" style="stroke:#181818;stroke-width:1.0;stroke-dasharray:7.0,7.0;"/><text fill="#000000" font-family="sans-serif" font-size="13" lengthAdjust="spacing" textLength="57" x="164" y="722.9649">&#171;include&#187;</text><polygon fill="#181818" points="225.0252,845.9367,233.9533,841.7787,228.3098,842.1669,227.9216,836.5234,225.0252,845.9367" style="stroke:#181818;stroke-width:1.0;"/><path d="M310.5491,747.7786 C285.6765,776.3255 252.2013,814.746 228.9667,841.4129 " fill="none" style="stroke:#181818;stroke-width:1.0;stroke-dasharray:7.0,7.0;"/><text fill="#000000" font-family="sans-serif" font-size="13" lengthAdjust="spacing" textLength="57" x="294" y="781.9649">&#171;include&#187;</text><rect fill="none" height="90.2717" id="_legend" rx="7.5" ry="7.5" style="stroke:#000000;stroke-width:1.0;" width="223" x="217" y="944.0679"/><text fill="#000000" font-family="sans-serif" font-size="14" font-weight="bold" lengthAdjust="spacing" textLength="86" x="226" y="966.0339">Relationship</text><text fill="#000000" font-family="sans-serif" font-size="14" font-weight="bold" lengthAdjust="spacing" textLength="79" x="320" y="966.0339">Description</text><text fill="#000000" font-family="sans-serif" font-size="14" lengthAdjust="spacing" textLength="24" x="226" y="985.1018">&#9472;&#9472;&gt;</text><text fill="#000000" font-family="sans-serif" font-size="14" lengthAdjust="spacing" textLength="111" x="320" y="985.1018">Initiates process</text><text fill="#000000" font-family="sans-serif" font-size="14" lengthAdjust="spacing" textLength="84" x="226" y="1004.1697">..&gt; &#171;include&#187;</text><text fill="#000000" font-family="sans-serif" font-size="14" lengthAdjust="spacing" textLength="95" x="320" y="1004.1697">Required step</text><text fill="#000000" font-family="sans-serif" font-size="14" lengthAdjust="spacing" textLength="80" x="226" y="1023.2376">..&gt; &#171;extend&#187;</text><text fill="#000000" font-family="sans-serif" font-size="14" lengthAdjust="spacing" textLength="110" x="320" y="1023.2376">Conditional step</text><line style="stroke:#000000;stroke-width:1.0;" x1="222" x2="435" y1="951.0679" y2="951.0679"/><line style="stroke:#000000;stroke-width:1.0;" x1="222" x2="435" y1="970.1358" y2="970.1358"/><line style="stroke:#000000;stroke-width:1.0;" x1="222" x2="435" y1="989.2038" y2="989.2038"/><line style="stroke:#000000;stroke-width:1.0;" x1="222" x2="435" y1="1008.2717" y2="1008.2717"/><line style="stroke:#000000;stroke-width:1.0;" x1="222" x2="435" y1="1027.3396" y2="1027.3396"/><line style="stroke:#000000;stroke-width:1.0;" x1="222" x2="222" y1="951.0679" y2="1027.3396"/><line style="stroke:#000000;stroke-width:1.0;" x1="316" x2="316" y1="951.0679" y2="1027.3396"/><line style="stroke:#000000;stroke-width:1.0;" x1="435" x2="435" y1="951.0679" y2="1027.3396"/><!--SRC=[VLJRRXen47tVhvWc3qsYa9PhLDGWKG89KhY89L6ZfWzcTm0hNdjhUnDeKwaVqI_ibtJsbYpG51QndZCpFZupupUXPek0WM1h5Lam0LeccMFkkGoPPW7Cc7U_q2gIVaS9fM6_rus_1G_19TfrYA2qNIh7iTmA13TWsiBdqeIjmVKqekHo0IKONC5OeyyzovM4QuFGOGQDuxo5iy87sftfQE9ks1pcMMAmvwwDnM0Fc87q5VQls0DA7_LE6lVMdNO7y6bqFJnlJsutysdqwBGBOhktIIlVuOS3G4zaq2EIi3T13_a3Gb-69DOvionXSTqf5xswAwk9AboEBg27p4OQJUPNsV2Jdl8Hninob1O69Bt_ah9QTEseO4OoRwUhRP2BYBXb2uGok3U3EtdGuz8drTyD5MIlXrbW_T-1bJZGK6Iv1kVSO0mFYACmUM2Z67Y14ZMpM9HkWYOIDYTuwlpSAScaUzMUzaT3zx8_tYgmazMpL6ebeb9e8VLSg4U7p71o4iCLQCB7Zrnw8lAnrIeWrHsaaY6r7QJwAbBBaFeEKi-GHeBWobBljLftyWkVmpmL-gpyjU1ukfEYyGgoBTPmDErkYIGLAQxvOcb1pREUEZegDblpw8Xi9UW7SL4D_uvDgDGRA_ebzZ5VKKaXH0qU2j64QcLLhIHGXzOfCXFAksz2RLLBW96EcvJ5XJ1D-E3GaI5cugHyh0fJDjM4JTxBEPEynzl4vy1uJA1_k06uk8839R6qL3P5RZW-mbWPdjJ-1TlQUAQiLK6wTptPEv-1j1DJ1k-1f7oU0ZAKoN19BPfR_fEraMIbYUWeyaq5I9AsBOhu1Z7S7DCjfdsk0bmmiJuca9oD4jnF53k6hey1ex_vF3AnWJowGRXScyJSupEjaZINg2LdCToNSoxe8adZ1ymGEbH-9316nm8ZpGHCbzoxJ-xMOnXBZ0ALXQSBkf0rMnLE9t0HBzBpaTiJpIEAjAnB7iRhSpIUvc4Y-rFi0dz-_wAdHMzzIGBGn5EBQEMXCPb7tCo5DYRB1Bz5d6ONQA333QzyNiZmh2YT9FCZAENe_0K0]--></g></svg>