<?xml version="1.0" encoding="us-ascii" standalone="no"?><svg xmlns="http://www.w3.org/2000/svg" xmlns:xlink="http://www.w3.org/1999/xlink" contentStyleType="text/css" height="2976px" preserveAspectRatio="none" style="width:2043px;height:2976px;background:#FEFEFE;" version="1.1" viewBox="0 0 2043 2976" width="2043px" zoomAndPan="magnify"><defs/><g><rect fill="#FEFEFE" height="2976" style="stroke:none;stroke-width:1.0;" width="2043" x="0" y="0"/><text fill="#000000" font-family="Verdana" font-size="22" font-weight="bold" lengthAdjust="spacing" textLength="577" x="731.625" y="38.5181">Smart X-Ray Screening System - Complete Workflow</text><rect fill="#FFFFFF" height="14.9819" style="stroke:#FFFFFF;stroke-width:1.0;" width="2020.25" x="10" y="57.6871"/><rect fill="#ADD8E6" height="2692.4786" style="stroke:#ADD8E6;stroke-width:1.0;" width="601" x="10" y="57.6871"/><ellipse cx="311.5" cy="87.669" fill="#FFFFFF" rx="10" ry="10" style="stroke:#000000;stroke-width:1.0;"/><rect fill="#FFFFFF" height="34.9819" rx="12.5" ry="12.5" style="stroke:#000000;stroke-width:1.0;" width="167" x="228" y="117.669"/><text fill="#000000" font-family="Verdana" font-size="11" lengthAdjust="spacing" textLength="147" x="238" y="139.4279">User opens Web Application</text><rect fill="#FFFFFF" height="34.9819" rx="12.5" ry="12.5" style="stroke:#000000;stroke-width:1.0;" width="126" x="248.5" y="242.6146"/><text fill="#000000" font-family="Verdana" font-size="11" lengthAdjust="spacing" textLength="106" x="258.5" y="264.3735">Upload X-Ray Image</text><rect fill="#FFFFFF" height="79.9276" rx="12.5" ry="12.5" style="stroke:#000000;stroke-width:1.0;" width="115" x="254" y="297.5965"/><text fill="#000000" font-family="Verdana" font-size="11" lengthAdjust="spacing" textLength="95" x="264" y="319.3554">Enter Patient Data</text><text fill="#000000" font-family="Verdana" font-size="11" lengthAdjust="spacing" textLength="25" x="264" y="334.3373">- Sex</text><text fill="#000000" font-family="Verdana" font-size="11" lengthAdjust="spacing" textLength="27" x="264" y="349.3192">- Age</text><text fill="#000000" font-family="Verdana" font-size="11" lengthAdjust="spacing" textLength="78" x="264" y="364.3011">- View Position</text><rect fill="#FFFFFF" height="34.9819" rx="12.5" ry="12.5" style="stroke:#000000;stroke-width:1.0;" width="128" x="329" y="596.4335"/><text fill="#000000" font-family="Verdana" font-size="11" lengthAdjust="spacing" textLength="108" x="339" y="618.1924">Show error message</text><ellipse cx="393" cy="677.3973" fill="none" rx="11" ry="11" style="stroke:#000000;stroke-width:1.0;"/><ellipse cx="393" cy="677.3973" fill="#FFFFFF" rx="6" ry="6" style="stroke:#000000;stroke-width:1.0;"/><rect fill="#FFFFFF" height="49.9638" rx="12.5" ry="12.5" style="stroke:#000000;stroke-width:1.0;" width="146" x="238.5" y="2262.3287"/><text fill="#000000" font-family="Verdana" font-size="11" lengthAdjust="spacing" textLength="126" x="248.5" y="2284.0876">Redirect to Results Page</text><text fill="#000000" font-family="Verdana" font-size="11" lengthAdjust="spacing" textLength="57" x="248.5" y="2299.0695">(results.py)</text><polygon fill="#FFFFFF" points="82.5,2332.2924,151.5,2332.2924,163.5,2344.2924,151.5,2356.2924,82.5,2356.2924,70.5,2344.2924,82.5,2332.2924" style="stroke:#000000;stroke-width:1.0;"/><text fill="#000000" font-family="Verdana" font-size="11" lengthAdjust="spacing" textLength="79" x="121" y="2368.0514">1 - No Findings</text><text fill="#000000" font-family="Verdana" font-size="11" lengthAdjust="spacing" textLength="69" x="82.5" y="2348.5604">Result Stage?</text><rect fill="#FFFFFF" height="34.9819" rx="12.5" ry="12.5" style="stroke:#000000;stroke-width:1.0;" width="202" x="16" y="2391.2743"/><text fill="#000000" font-family="Verdana" font-size="11" lengthAdjust="spacing" textLength="182" x="26" y="2413.0332">Display: "No abnormality detected"</text><polygon fill="#FFFFFF" points="272.5,2332.2924,387.5,2332.2924,399.5,2344.2924,387.5,2356.2924,272.5,2356.2924,260.5,2344.2924,272.5,2332.2924" style="stroke:#000000;stroke-width:1.0;"/><text fill="#000000" font-family="Verdana" font-size="11" lengthAdjust="spacing" textLength="115" x="272.5" y="2348.5604">2 - Unknown Findings</text><text fill="#000000" font-family="Verdana" font-size="11" lengthAdjust="spacing" textLength="103" x="399.5" y="2341.0695">3 - Specific Findings</text><rect fill="#FFFFFF" height="49.9638" rx="12.5" ry="12.5" style="stroke:#000000;stroke-width:1.0;" width="184" x="238" y="2376.2924"/><text fill="#000000" font-family="Verdana" font-size="11" lengthAdjust="spacing" textLength="164" x="248" y="2398.0514">Display: "Abnormality detected,</text><text fill="#000000" font-family="Verdana" font-size="11" lengthAdjust="spacing" textLength="128" x="248" y="2413.0332">but condition unknown"</text><rect fill="#FFFFFF" height="49.9638" rx="12.5" ry="12.5" style="stroke:#000000;stroke-width:1.0;" width="165" x="442" y="2379.2924"/><text fill="#000000" font-family="Verdana" font-size="11" lengthAdjust="spacing" textLength="145" x="452" y="2401.0514">Display: "Findings detected"</text><text fill="#000000" font-family="Verdana" font-size="11" lengthAdjust="spacing" textLength="124" x="452" y="2416.0332">List detected conditions</text><rect fill="#FFFFFF" height="34.9819" rx="12.5" ry="12.5" style="stroke:#000000;stroke-width:1.0;" width="158" x="232.5" y="2469.2562"/><text fill="#000000" font-family="Verdana" font-size="11" lengthAdjust="spacing" textLength="138" x="242.5" y="2491.0151">Show preprocessed image</text><rect fill="#FFFFFF" height="64.9457" rx="12.5" ry="12.5" style="stroke:#000000;stroke-width:1.0;" width="142" x="240.5" y="2524.2381"/><text fill="#000000" font-family="Verdana" font-size="11" lengthAdjust="spacing" textLength="122" x="250.5" y="2545.997">Provide export options</text><text fill="#000000" font-family="Verdana" font-size="11" lengthAdjust="spacing" textLength="66" x="250.5" y="2560.9789">- PDF export</text><text fill="#000000" font-family="Verdana" font-size="11" lengthAdjust="spacing" textLength="33" x="250.5" y="2575.9608">- Print</text><polygon fill="#FFFFFF" points="276.5,2609.1838,346.5,2609.1838,358.5,2621.1838,346.5,2633.1838,276.5,2633.1838,264.5,2621.1838,276.5,2609.1838" style="stroke:#000000;stroke-width:1.0;"/><text fill="#000000" font-family="Verdana" font-size="11" lengthAdjust="spacing" textLength="70" x="276.5" y="2625.4517">Export/Print?</text><text fill="#000000" font-family="Verdana" font-size="11" lengthAdjust="spacing" textLength="17" x="247.5" y="2617.9608">yes</text><text fill="#000000" font-family="Verdana" font-size="11" lengthAdjust="spacing" textLength="14" x="358.5" y="2617.9608">no</text><rect fill="#FFFFFF" height="34.9819" rx="12.5" ry="12.5" style="stroke:#000000;stroke-width:1.0;" width="136" x="186.5" y="2643.1838"/><text fill="#000000" font-family="Verdana" font-size="11" lengthAdjust="spacing" textLength="116" x="196.5" y="2664.9427">Generate PDF or Print</text><rect fill="#FFFFFF" height="34.9819" rx="12.5" ry="12.5" style="stroke:#000000;stroke-width:1.0;" width="48" x="344.5" y="2643.1838"/><text fill="#000000" font-family="Verdana" font-size="11" lengthAdjust="spacing" textLength="28" x="354.5" y="2664.9427">Done</text><polygon fill="#FFFFFF" points="311.5,2684.1657,323.5,2696.1657,311.5,2708.1657,299.5,2696.1657,311.5,2684.1657" style="stroke:#000000;stroke-width:1.0;"/><ellipse cx="311.5" cy="2739.1657" fill="none" rx="11" ry="11" style="stroke:#000000;stroke-width:1.0;"/><ellipse cx="311.5" cy="2739.1657" fill="#FFFFFF" rx="6" ry="6" style="stroke:#000000;stroke-width:1.0;"/><line style="stroke:#000000;stroke-width:1.0;" x1="10" x2="10" y1="57.6871" y2="2750.1657"/><rect fill="#90EE90" height="2692.4786" style="stroke:#90EE90;stroke-width:1.0;" width="247" x="611" y="57.6871"/><rect fill="#FFFFFF" height="49.9638" rx="12.5" ry="12.5" style="stroke:#000000;stroke-width:1.0;" width="127" x="714" y="172.6509"/><text fill="#000000" font-family="Verdana" font-size="11" lengthAdjust="spacing" textLength="107" x="724" y="194.4098">Display upload form</text><text fill="#000000" font-family="Verdana" font-size="11" lengthAdjust="spacing" textLength="66" x="724" y="209.3917">(Home Page)</text><rect fill="#FFFFFF" height="49.9638" rx="12.5" ry="12.5" style="stroke:#000000;stroke-width:1.0;" width="142" x="706.5" y="397.5241"/><text fill="#000000" font-family="Verdana" font-size="11" lengthAdjust="spacing" textLength="122" x="716.5" y="419.283">Receive upload request</text><text fill="#000000" font-family="Verdana" font-size="11" lengthAdjust="spacing" textLength="61" x="716.5" y="434.2649">(analyze.py)</text><rect fill="#FFFFFF" height="64.9457" rx="12.5" ry="12.5" style="stroke:#000000;stroke-width:1.0;" width="141" x="707" y="467.4878"/><text fill="#000000" font-family="Verdana" font-size="11" lengthAdjust="spacing" textLength="114" x="717" y="489.2468">Validate uploaded file</text><text fill="#000000" font-family="Verdana" font-size="11" lengthAdjust="spacing" textLength="83" x="717" y="504.2286">- Check file type</text><text fill="#000000" font-family="Verdana" font-size="11" lengthAdjust="spacing" textLength="121" x="717" y="519.2105">- Verify image integrity</text><polygon fill="#FFFFFF" points="744.5,552.4335,810.5,552.4335,822.5,564.4335,810.5,576.4335,744.5,576.4335,732.5,564.4335,744.5,552.4335" style="stroke:#000000;stroke-width:1.0;"/><text fill="#000000" font-family="Verdana" font-size="11" lengthAdjust="spacing" textLength="66" x="744.5" y="568.7015">Valid image?</text><text fill="#000000" font-family="Verdana" font-size="11" lengthAdjust="spacing" textLength="17" x="715.5" y="561.2105">yes</text><text fill="#000000" font-family="Verdana" font-size="11" lengthAdjust="spacing" textLength="14" x="822.5" y="561.2105">no</text><rect fill="#FFFFFF" height="49.9638" rx="12.5" ry="12.5" style="stroke:#000000;stroke-width:1.0;" width="158" x="617" y="596.4335"/><text fill="#000000" font-family="Verdana" font-size="11" lengthAdjust="spacing" textLength="38" x="627" y="618.1924">Save to</text><text fill="#000000" font-family="Verdana" font-size="11" font-weight="bold" lengthAdjust="spacing" textLength="97" x="668" y="618.1924">Interfaces/Input/</text><text fill="#000000" font-family="Verdana" font-size="11" lengthAdjust="spacing" textLength="81" x="627" y="633.1743">with timestamp</text><rect fill="#FFFFFF" height="49.9638" rx="12.5" ry="12.5" style="stroke:#000000;stroke-width:1.0;" width="147" x="622.5" y="681.3792"/><text fill="#000000" font-family="Verdana" font-size="11" lengthAdjust="spacing" textLength="127" x="632.5" y="703.1381">Create patient_data.json</text><text fill="#000000" font-family="Verdana" font-size="11" lengthAdjust="spacing" textLength="75" x="632.5" y="718.12">with metadata</text><rect fill="#FFFFFF" height="49.9638" rx="12.5" ry="12.5" style="stroke:#000000;stroke-width:1.0;" width="143" x="706" y="2007.4917"/><text fill="#000000" font-family="Verdana" font-size="11" lengthAdjust="spacing" textLength="80" x="716" y="2029.2506">Store results to</text><text fill="#000000" font-family="Verdana" font-size="11" font-weight="bold" lengthAdjust="spacing" textLength="123" x="716" y="2044.2325">Interfaces/Processed/</text><rect fill="#FFFFFF" height="49.9638" rx="12.5" ry="12.5" style="stroke:#000000;stroke-width:1.0;" width="153" x="701" y="2077.4554"/><text fill="#000000" font-family="Verdana" font-size="11" lengthAdjust="spacing" textLength="133" x="711" y="2099.2144">Save processed_data.json</text><text fill="#000000" font-family="Verdana" font-size="11" lengthAdjust="spacing" textLength="116" x="711" y="2114.1962">with findings &amp; scores</text><rect fill="#FFFFFF" height="94.9094" rx="12.5" ry="12.5" style="stroke:#000000;stroke-width:1.0;" width="135" x="710" y="2147.4192"/><text fill="#000000" font-family="Verdana" font-size="11" lengthAdjust="spacing" textLength="115" x="720" y="2169.1781">Store result in session</text><text fill="#000000" font-family="Verdana" font-size="11" lengthAdjust="spacing" textLength="98" x="720" y="2184.16">- Image references</text><text fill="#000000" font-family="Verdana" font-size="11" lengthAdjust="spacing" textLength="70" x="720" y="2199.1419">- Patient data</text><text fill="#000000" font-family="Verdana" font-size="11" lengthAdjust="spacing" textLength="85" x="720" y="2214.1238">- ML predictions</text><text fill="#000000" font-family="Verdana" font-size="11" lengthAdjust="spacing" textLength="70" x="720" y="2229.1057">- Result stage</text><line style="stroke:#000000;stroke-width:1.0;" x1="611" x2="611" y1="57.6871" y2="2750.1657"/><rect fill="#FFC0CB" height="2692.4786" style="stroke:#FFC0CB;stroke-width:1.0;" width="378" x="858" y="57.6871"/><rect fill="#FFFFFF" height="49.9638" rx="12.5" ry="12.5" style="stroke:#000000;stroke-width:1.0;" width="110" x="895.5" y="751.3429"/><text fill="#000000" font-family="Verdana" font-size="11" lengthAdjust="spacing" textLength="90" x="905.5" y="773.1019">Load image from</text><text fill="#000000" font-family="Verdana" font-size="11" lengthAdjust="spacing" textLength="89" x="905.5" y="788.0837">Interfaces/Input/</text><path d="M1057,811.3067 L1057,857.2524 L1037,861.2524 L1057,865.2524 L1057,911.198 A0,0 0 0 0 1057,911.198 L1231,911.198 A0,0 0 0 0 1231,911.198 L1231,821.3067 L1221,811.3067 L1057,811.3067 A0,0 0 0 0 1057,811.3067 " fill="#FFFFFF" style="stroke:#000000;stroke-width:1.0;"/><path d="M1221,811.3067 L1221,821.3067 L1231,821.3067 L1221,811.3067 " fill="#FFFFFF" style="stroke:#000000;stroke-width:1.0;"/><text fill="#000000" font-family="Verdana" font-size="11" font-weight="bold" lengthAdjust="spacing" textLength="114" x="1063" y="828.0656">Preprocessing Steps:</text><text fill="#000000" font-family="Verdana" font-size="11" lengthAdjust="spacing" textLength="120" x="1063" y="843.0475">1. Convert to grayscale</text><text fill="#000000" font-family="Verdana" font-size="11" lengthAdjust="spacing" textLength="153" x="1063" y="858.0294">2. Apply CLAHE enhancement</text><text fill="#000000" font-family="Verdana" font-size="11" lengthAdjust="spacing" textLength="150" x="1063" y="873.0113">3. Median blur for denoising</text><text fill="#000000" font-family="Verdana" font-size="11" lengthAdjust="spacing" textLength="103" x="1063" y="887.9932">4. Resize to 500x500</text><text fill="#000000" font-family="Verdana" font-size="11" lengthAdjust="spacing" textLength="143" x="1063" y="902.9751">5. Edge detection (optional)</text><rect fill="#FFFFFF" height="49.9638" rx="12.5" ry="12.5" style="stroke:#000000;stroke-width:1.0;" width="173" x="864" y="836.2705"/><text fill="#000000" font-family="Verdana" font-size="11" lengthAdjust="spacing" textLength="153" x="874" y="858.0294">Apply preprocessing pipeline</text><text fill="#000000" font-family="Verdana" font-size="11" lengthAdjust="spacing" textLength="97" x="874" y="873.0113">(preprocessing.py)</text><rect fill="#FFFFFF" height="79.9276" rx="12.5" ry="12.5" style="stroke:#000000;stroke-width:1.0;" width="131" x="885" y="931.198"/><text fill="#000000" font-family="Verdana" font-size="11" lengthAdjust="spacing" textLength="110" x="895" y="952.957">Extract HOG features</text><text fill="#000000" font-family="Verdana" font-size="11" lengthAdjust="spacing" textLength="106" x="895" y="967.9388">- 256x256 resolution</text><text fill="#000000" font-family="Verdana" font-size="11" lengthAdjust="spacing" textLength="111" x="895" y="982.9207">- 32x32 pixels per cell</text><text fill="#000000" font-family="Verdana" font-size="11" lengthAdjust="spacing" textLength="102" x="895" y="997.9026">- 4x4 cells per block</text><rect fill="#FFFFFF" height="49.9638" rx="12.5" ry="12.5" style="stroke:#000000;stroke-width:1.0;" width="167" x="867" y="1031.1256"/><text fill="#000000" font-family="Verdana" font-size="11" lengthAdjust="spacing" textLength="147" x="877" y="1052.8845">Save preprocessed image to</text><text fill="#000000" font-family="Verdana" font-size="11" font-weight="bold" lengthAdjust="spacing" textLength="128" x="877" y="1067.8664">Interfaces/PreProcess/</text><line style="stroke:#000000;stroke-width:1.0;" x1="858" x2="858" y1="57.6871" y2="2750.1657"/><rect fill="#FFD700" height="2692.4786" style="stroke:#FFD700;stroke-width:1.0;" width="212" x="1236" y="57.6871"/><rect fill="#FFFFFF" height="94.9094" rx="12.5" ry="12.5" style="stroke:#000000;stroke-width:1.0;" width="202" x="1242" y="1101.0894"/><text fill="#000000" font-family="Verdana" font-size="11" lengthAdjust="spacing" textLength="182" x="1252" y="1122.8483">Load trained models and encoders</text><text fill="#000000" font-family="Verdana" font-size="11" lengthAdjust="spacing" textLength="80" x="1252" y="1137.8302">- Feature scaler</text><text fill="#000000" font-family="Verdana" font-size="11" lengthAdjust="spacing" textLength="60" x="1252" y="1152.8121">- Age scaler</text><text fill="#000000" font-family="Verdana" font-size="11" lengthAdjust="spacing" textLength="71" x="1252" y="1167.794">- Sex encoder</text><text fill="#000000" font-family="Verdana" font-size="11" lengthAdjust="spacing" textLength="78" x="1252" y="1182.7758">- View encoder</text><rect fill="#FFFFFF" height="94.9094" rx="12.5" ry="12.5" style="stroke:#000000;stroke-width:1.0;" width="174" x="1256" y="1215.9988"/><text fill="#000000" font-family="Verdana" font-size="11" lengthAdjust="spacing" textLength="154" x="1266" y="1237.7577">Encode &amp; scale input features</text><text fill="#000000" font-family="Verdana" font-size="11" lengthAdjust="spacing" textLength="78" x="1266" y="1252.7396">- HOG features</text><text fill="#000000" font-family="Verdana" font-size="11" lengthAdjust="spacing" textLength="66" x="1266" y="1267.7215">- Patient age</text><text fill="#000000" font-family="Verdana" font-size="11" lengthAdjust="spacing" textLength="64" x="1266" y="1282.7034">- Patient sex</text><text fill="#000000" font-family="Verdana" font-size="11" lengthAdjust="spacing" textLength="78" x="1266" y="1297.6853">- View position</text><rect fill="#FFFFFF" height="49.9638" rx="12.5" ry="12.5" style="stroke:#000000;stroke-width:1.0;" width="169" x="1258.5" y="1330.9083"/><text fill="#000000" font-family="Verdana" font-size="11" lengthAdjust="spacing" textLength="149" x="1268.5" y="1352.6672">Run Stage 1 Binary Classifier</text><text fill="#000000" font-family="Verdana" font-size="11" lengthAdjust="spacing" textLength="114" x="1268.5" y="1367.6491">(Finding / No Finding)</text><polygon fill="#FFFFFF" points="1296,1400.872,1390,1400.872,1402,1412.872,1390,1424.872,1296,1424.872,1284,1412.872,1296,1400.872" style="stroke:#000000;stroke-width:1.0;"/><text fill="#000000" font-family="Verdana" font-size="11" lengthAdjust="spacing" textLength="94" x="1296" y="1417.14">Finding Detected?</text><text fill="#000000" font-family="Verdana" font-size="11" lengthAdjust="spacing" textLength="17" x="1267" y="1409.6491">yes</text><text fill="#000000" font-family="Verdana" font-size="11" lengthAdjust="spacing" textLength="14" x="1402" y="1409.6491">no</text><polygon fill="#FFFFFF" points="1343,1963.4917,1355,1975.4917,1343,1987.4917,1331,1975.4917,1343,1963.4917" style="stroke:#000000;stroke-width:1.0;"/><line style="stroke:#000000;stroke-width:1.0;" x1="1236" x2="1236" y1="57.6871" y2="2750.1657"/><path d="M1764.75,1444.872 L1764.75,1558.2362 L1744.75,1562.2362 L1764.75,1566.2362 L1764.75,1679.6003 A0,0 0 0 0 1764.75,1679.6003 L1913.75,1679.6003 A0,0 0 0 0 1913.75,1679.6003 L1913.75,1454.872 L1903.75,1444.872 L1764.75,1444.872 A0,0 0 0 0 1764.75,1444.872 " fill="#FFFFFF" style="stroke:#000000;stroke-width:1.0;"/><path d="M1903.75,1444.872 L1903.75,1454.872 L1913.75,1454.872 L1903.75,1444.872 " fill="#FFFFFF" style="stroke:#000000;stroke-width:1.0;"/><text fill="#000000" font-family="Verdana" font-size="11" font-weight="bold" lengthAdjust="spacing" textLength="128" x="1770.75" y="1461.6309">14 Condition Classifiers:</text><text fill="#000000" font-family="Verdana" font-size="11" lengthAdjust="spacing" textLength="61" x="1770.75" y="1476.6128">- Atelectasis</text><text fill="#000000" font-family="Verdana" font-size="11" lengthAdjust="spacing" textLength="80" x="1770.75" y="1491.5947">- Cardiomegaly</text><text fill="#000000" font-family="Verdana" font-size="11" lengthAdjust="spacing" textLength="80" x="1770.75" y="1506.5766">- Consolidation</text><text fill="#000000" font-family="Verdana" font-size="11" lengthAdjust="spacing" textLength="42" x="1770.75" y="1521.5585">- Edema</text><text fill="#000000" font-family="Verdana" font-size="11" lengthAdjust="spacing" textLength="50" x="1770.75" y="1536.5404">- Effusion</text><text fill="#000000" font-family="Verdana" font-size="11" lengthAdjust="spacing" textLength="70" x="1770.75" y="1551.5223">- Emphysema</text><text fill="#000000" font-family="Verdana" font-size="11" lengthAdjust="spacing" textLength="48" x="1770.75" y="1566.5042">- Fibrosis</text><text fill="#000000" font-family="Verdana" font-size="11" lengthAdjust="spacing" textLength="42" x="1770.75" y="1581.486">- Hernia</text><text fill="#000000" font-family="Verdana" font-size="11" lengthAdjust="spacing" textLength="64" x="1770.75" y="1596.4679">- Infiltration</text><text fill="#000000" font-family="Verdana" font-size="11" lengthAdjust="spacing" textLength="33" x="1770.75" y="1611.4498">- Mass</text><text fill="#000000" font-family="Verdana" font-size="11" lengthAdjust="spacing" textLength="45" x="1770.75" y="1626.4317">- Nodule</text><text fill="#000000" font-family="Verdana" font-size="11" lengthAdjust="spacing" textLength="104" x="1770.75" y="1641.4136">- Pleural Thickening</text><text fill="#000000" font-family="Verdana" font-size="11" lengthAdjust="spacing" textLength="67" x="1770.75" y="1656.3955">- Pneumonia</text><text fill="#000000" font-family="Verdana" font-size="11" lengthAdjust="spacing" textLength="86" x="1770.75" y="1671.3774">- Pneumothorax</text><rect fill="#FFFFFF" height="34.9819" rx="12.5" ry="12.5" style="stroke:#000000;stroke-width:1.0;" width="196" x="1548.75" y="1544.7452"/><text fill="#000000" font-family="Verdana" font-size="11" lengthAdjust="spacing" textLength="176" x="1558.75" y="1566.5042">Run Stage 2 Multi-label Classifiers</text><rect fill="#FFFFFF" height="49.9638" rx="12.5" ry="12.5" style="stroke:#000000;stroke-width:1.0;" width="137" x="1578.25" y="1699.6003"/><text fill="#000000" font-family="Verdana" font-size="11" lengthAdjust="spacing" textLength="117" x="1588.25" y="1721.3593">Predict each condition</text><text fill="#000000" font-family="Verdana" font-size="11" lengthAdjust="spacing" textLength="82" x="1588.25" y="1736.3411">(0 or 1 for each)</text><polygon fill="#FFFFFF" points="1598.75,1769.5641,1694.75,1769.5641,1706.75,1781.5641,1694.75,1793.5641,1598.75,1793.5641,1586.75,1781.5641,1598.75,1769.5641" style="stroke:#000000;stroke-width:1.0;"/><text fill="#000000" font-family="Verdana" font-size="11" lengthAdjust="spacing" textLength="96" x="1598.75" y="1785.8321">Any condition = 1?</text><text fill="#000000" font-family="Verdana" font-size="11" lengthAdjust="spacing" textLength="17" x="1569.75" y="1778.3411">yes</text><text fill="#000000" font-family="Verdana" font-size="11" lengthAdjust="spacing" textLength="14" x="1706.75" y="1778.3411">no</text><rect fill="#FFFFFF" height="49.9638" rx="12.5" ry="12.5" style="stroke:#000000;stroke-width:1.0;" width="174" x="1454" y="1803.5641"/><text fill="#000000" font-family="Verdana" font-size="11" lengthAdjust="spacing" textLength="82" x="1464" y="1825.323">Result Stage = 3</text><text fill="#000000" font-family="Verdana" font-size="11" lengthAdjust="spacing" textLength="154" x="1464" y="1840.3049">(Findings detected, likely this)</text><rect fill="#FFFFFF" height="49.9638" rx="12.5" ry="12.5" style="stroke:#000000;stroke-width:1.0;" width="149" x="1466.5" y="1873.5279"/><text fill="#000000" font-family="Verdana" font-size="11" lengthAdjust="spacing" textLength="98" x="1476.5" y="1895.2868">Create findings list</text><text fill="#000000" font-family="Verdana" font-size="11" lengthAdjust="spacing" textLength="129" x="1476.5" y="1910.2687">with detected conditions</text><rect fill="#FFFFFF" height="49.9638" rx="12.5" ry="12.5" style="stroke:#000000;stroke-width:1.0;" width="209" x="1648" y="1803.5641"/><text fill="#000000" font-family="Verdana" font-size="11" lengthAdjust="spacing" textLength="82" x="1658" y="1825.323">Result Stage = 2</text><text fill="#000000" font-family="Verdana" font-size="11" lengthAdjust="spacing" textLength="189" x="1658" y="1840.3049">(Findings detected, unknown which)</text><polygon fill="#FFFFFF" points="1646.75,1929.4917,1658.75,1941.4917,1646.75,1953.4917,1634.75,1941.4917,1646.75,1929.4917" style="stroke:#000000;stroke-width:1.0;"/><rect fill="#FFFFFF" height="49.9638" rx="12.5" ry="12.5" style="stroke:#000000;stroke-width:1.0;" width="102" x="1923.75" y="1444.872"/><text fill="#000000" font-family="Verdana" font-size="11" lengthAdjust="spacing" textLength="82" x="1933.75" y="1466.6309">Result Stage = 1</text><text fill="#000000" font-family="Verdana" font-size="11" lengthAdjust="spacing" textLength="67" x="1933.75" y="1481.6128">(No findings)</text><line style="stroke:#000000;stroke-width:1.0;" x1="1448" x2="1448" y1="57.6871" y2="2750.1657"/><line style="stroke:#000000;stroke-width:1.0;" x1="2029.75" x2="2029.75" y1="57.6871" y2="2750.1657"/><line style="stroke:#2C3E50;stroke-width:1.0;" x1="311.5" x2="311.5" y1="97.669" y2="117.669"/><polygon fill="#2C3E50" points="307.5,107.669,311.5,117.669,315.5,107.669,311.5,111.669" style="stroke:#2C3E50;stroke-width:1.0;"/><line style="stroke:#2C3E50;stroke-width:1.0;" x1="311.5" x2="311.5" y1="277.5965" y2="297.5965"/><polygon fill="#2C3E50" points="307.5,287.5965,311.5,297.5965,315.5,287.5965,311.5,291.5965" style="stroke:#2C3E50;stroke-width:1.0;"/><line style="stroke:#2C3E50;stroke-width:1.0;" x1="393" x2="393" y1="631.4154" y2="666.3973"/><polygon fill="#2C3E50" points="389,656.3973,393,666.3973,397,656.3973,393,660.3973" style="stroke:#2C3E50;stroke-width:1.0;"/><line style="stroke:#2C3E50;stroke-width:1.0;" x1="117" x2="117" y1="2356.2924" y2="2391.2743"/><polygon fill="#2C3E50" points="113,2381.2743,117,2391.2743,121,2381.2743,117,2385.2743" style="stroke:#2C3E50;stroke-width:1.0;"/><line style="stroke:#2C3E50;stroke-width:1.0;" x1="117" x2="117" y1="2426.2562" y2="2449.2562"/><polygon fill="#2C3E50" points="113,2439.2562,117,2449.2562,121,2439.2562,117,2443.2562" style="stroke:#2C3E50;stroke-width:1.0;"/><line style="stroke:#2C3E50;stroke-width:1.0;" x1="330" x2="330" y1="2356.2924" y2="2376.2924"/><polygon fill="#2C3E50" points="326,2366.2924,330,2376.2924,334,2366.2924,330,2370.2924" style="stroke:#2C3E50;stroke-width:1.0;"/><line style="stroke:#2C3E50;stroke-width:1.0;" x1="330" x2="330" y1="2426.2562" y2="2449.2562"/><polygon fill="#2C3E50" points="326,2439.2562,330,2449.2562,334,2439.2562,330,2443.2562" style="stroke:#2C3E50;stroke-width:1.0;"/><line style="stroke:#2C3E50;stroke-width:1.0;" x1="163.5" x2="260.5" y1="2344.2924" y2="2344.2924"/><polygon fill="#2C3E50" points="250.5,2340.2924,260.5,2344.2924,250.5,2348.2924,254.5,2344.2924" style="stroke:#2C3E50;stroke-width:1.0;"/><line style="stroke:#2C3E50;stroke-width:1.0;" x1="311.5" x2="311.5" y1="2312.2924" y2="2317.2924"/><line style="stroke:#2C3E50;stroke-width:1.0;" x1="311.5" x2="117" y1="2317.2924" y2="2317.2924"/><line style="stroke:#2C3E50;stroke-width:1.0;" x1="117" x2="117" y1="2317.2924" y2="2332.2924"/><polygon fill="#2C3E50" points="113,2322.2924,117,2332.2924,121,2322.2924,117,2326.2924" style="stroke:#2C3E50;stroke-width:1.0;"/><line style="stroke:#2C3E50;stroke-width:1.0;" x1="399.5" x2="524.5" y1="2344.2924" y2="2344.2924"/><line style="stroke:#2C3E50;stroke-width:1.0;" x1="524.5" x2="524.5" y1="2344.2924" y2="2379.2924"/><polygon fill="#2C3E50" points="520.5,2369.2924,524.5,2379.2924,528.5,2369.2924,524.5,2373.2924" style="stroke:#2C3E50;stroke-width:1.0;"/><line style="stroke:#2C3E50;stroke-width:1.0;" x1="524.5" x2="524.5" y1="2429.2562" y2="2449.2562"/><polygon fill="#2C3E50" points="520.5,2439.2562,524.5,2449.2562,528.5,2439.2562,524.5,2443.2562" style="stroke:#2C3E50;stroke-width:1.0;"/><line style="stroke:#2C3E50;stroke-width:1.0;" x1="117" x2="524.5" y1="2449.2562" y2="2449.2562"/><line style="stroke:#2C3E50;stroke-width:1.0;" x1="311.5" x2="311.5" y1="2449.2562" y2="2469.2562"/><polygon fill="#2C3E50" points="307.5,2459.2562,311.5,2469.2562,315.5,2459.2562,311.5,2463.2562" style="stroke:#2C3E50;stroke-width:1.0;"/><line style="stroke:#2C3E50;stroke-width:1.0;" x1="311.5" x2="311.5" y1="2504.2381" y2="2524.2381"/><polygon fill="#2C3E50" points="307.5,2514.2381,311.5,2524.2381,315.5,2514.2381,311.5,2518.2381" style="stroke:#2C3E50;stroke-width:1.0;"/><line style="stroke:#2C3E50;stroke-width:1.0;" x1="264.5" x2="254.5" y1="2621.1838" y2="2621.1838"/><line style="stroke:#2C3E50;stroke-width:1.0;" x1="254.5" x2="254.5" y1="2621.1838" y2="2643.1838"/><polygon fill="#2C3E50" points="250.5,2633.1838,254.5,2643.1838,258.5,2633.1838,254.5,2637.1838" style="stroke:#2C3E50;stroke-width:1.0;"/><line style="stroke:#2C3E50;stroke-width:1.0;" x1="358.5" x2="368.5" y1="2621.1838" y2="2621.1838"/><line style="stroke:#2C3E50;stroke-width:1.0;" x1="368.5" x2="368.5" y1="2621.1838" y2="2643.1838"/><polygon fill="#2C3E50" points="364.5,2633.1838,368.5,2643.1838,372.5,2633.1838,368.5,2637.1838" style="stroke:#2C3E50;stroke-width:1.0;"/><line style="stroke:#2C3E50;stroke-width:1.0;" x1="254.5" x2="254.5" y1="2678.1657" y2="2696.1657"/><line style="stroke:#2C3E50;stroke-width:1.0;" x1="254.5" x2="299.5" y1="2696.1657" y2="2696.1657"/><polygon fill="#2C3E50" points="289.5,2692.1657,299.5,2696.1657,289.5,2700.1657,293.5,2696.1657" style="stroke:#2C3E50;stroke-width:1.0;"/><line style="stroke:#2C3E50;stroke-width:1.0;" x1="368.5" x2="368.5" y1="2678.1657" y2="2696.1657"/><line style="stroke:#2C3E50;stroke-width:1.0;" x1="368.5" x2="323.5" y1="2696.1657" y2="2696.1657"/><polygon fill="#2C3E50" points="333.5,2692.1657,323.5,2696.1657,333.5,2700.1657,329.5,2696.1657" style="stroke:#2C3E50;stroke-width:1.0;"/><line style="stroke:#2C3E50;stroke-width:1.0;" x1="311.5" x2="311.5" y1="2589.1838" y2="2609.1838"/><polygon fill="#2C3E50" points="307.5,2599.1838,311.5,2609.1838,315.5,2599.1838,311.5,2603.1838" style="stroke:#2C3E50;stroke-width:1.0;"/><line style="stroke:#2C3E50;stroke-width:1.0;" x1="311.5" x2="311.5" y1="2708.1657" y2="2728.1657"/><polygon fill="#2C3E50" points="307.5,2718.1657,311.5,2728.1657,315.5,2718.1657,311.5,2722.1657" style="stroke:#2C3E50;stroke-width:1.0;"/><line style="stroke:#2C3E50;stroke-width:1.0;" x1="777.5" x2="777.5" y1="447.4878" y2="467.4878"/><polygon fill="#2C3E50" points="773.5,457.4878,777.5,467.4878,781.5,457.4878,777.5,461.4878" style="stroke:#2C3E50;stroke-width:1.0;"/><line style="stroke:#2C3E50;stroke-width:1.0;" x1="696" x2="696" y1="646.3973" y2="681.3792"/><polygon fill="#2C3E50" points="692,671.3792,696,681.3792,700,671.3792,696,675.3792" style="stroke:#2C3E50;stroke-width:1.0;"/><line style="stroke:#2C3E50;stroke-width:1.0;" x1="732.5" x2="696" y1="564.4335" y2="564.4335"/><line style="stroke:#2C3E50;stroke-width:1.0;" x1="696" x2="696" y1="564.4335" y2="596.4335"/><polygon fill="#2C3E50" points="692,586.4335,696,596.4335,700,586.4335,696,590.4335" style="stroke:#2C3E50;stroke-width:1.0;"/><line style="stroke:#2C3E50;stroke-width:1.0;" x1="696" x2="696" y1="731.3429" y2="736.3429"/><line style="stroke:#2C3E50;stroke-width:1.0;" x1="696" x2="950.5" y1="736.3429" y2="736.3429"/><line style="stroke:#2C3E50;stroke-width:1.0;" x1="950.5" x2="950.5" y1="736.3429" y2="751.3429"/><polygon fill="#2C3E50" points="946.5,741.3429,950.5,751.3429,954.5,741.3429,950.5,745.3429" style="stroke:#2C3E50;stroke-width:1.0;"/><line style="stroke:#2C3E50;stroke-width:1.0;" x1="777.5" x2="777.5" y1="532.4335" y2="552.4335"/><polygon fill="#2C3E50" points="773.5,542.4335,777.5,552.4335,781.5,542.4335,777.5,546.4335" style="stroke:#2C3E50;stroke-width:1.0;"/><line style="stroke:#2C3E50;stroke-width:1.0;" x1="777.5" x2="777.5" y1="2057.4554" y2="2077.4554"/><polygon fill="#2C3E50" points="773.5,2067.4554,777.5,2077.4554,781.5,2067.4554,777.5,2071.4554" style="stroke:#2C3E50;stroke-width:1.0;"/><line style="stroke:#2C3E50;stroke-width:1.0;" x1="777.5" x2="777.5" y1="2127.4192" y2="2147.4192"/><polygon fill="#2C3E50" points="773.5,2137.4192,777.5,2147.4192,781.5,2137.4192,777.5,2141.4192" style="stroke:#2C3E50;stroke-width:1.0;"/><line style="stroke:#2C3E50;stroke-width:1.0;" x1="950.5" x2="950.5" y1="801.3067" y2="836.2705"/><polygon fill="#2C3E50" points="946.5,826.2705,950.5,836.2705,954.5,826.2705,950.5,830.2705" style="stroke:#2C3E50;stroke-width:1.0;"/><line style="stroke:#2C3E50;stroke-width:1.0;" x1="950.5" x2="950.5" y1="886.2343" y2="931.198"/><polygon fill="#2C3E50" points="946.5,921.198,950.5,931.198,954.5,921.198,950.5,925.198" style="stroke:#2C3E50;stroke-width:1.0;"/><line style="stroke:#2C3E50;stroke-width:1.0;" x1="950.5" x2="950.5" y1="1011.1256" y2="1031.1256"/><polygon fill="#2C3E50" points="946.5,1021.1256,950.5,1031.1256,954.5,1021.1256,950.5,1025.1256" style="stroke:#2C3E50;stroke-width:1.0;"/><line style="stroke:#2C3E50;stroke-width:1.0;" x1="1343" x2="1343" y1="1195.9988" y2="1215.9988"/><polygon fill="#2C3E50" points="1339,1205.9988,1343,1215.9988,1347,1205.9988,1343,1209.9988" style="stroke:#2C3E50;stroke-width:1.0;"/><line style="stroke:#2C3E50;stroke-width:1.0;" x1="1343" x2="1343" y1="1310.9083" y2="1330.9083"/><polygon fill="#2C3E50" points="1339,1320.9083,1343,1330.9083,1347,1320.9083,1343,1324.9083" style="stroke:#2C3E50;stroke-width:1.0;"/><line style="stroke:#2C3E50;stroke-width:1.0;" x1="1343" x2="1343" y1="1380.872" y2="1400.872"/><polygon fill="#2C3E50" points="1339,1390.872,1343,1400.872,1347,1390.872,1343,1394.872" style="stroke:#2C3E50;stroke-width:1.0;"/><line style="stroke:#2C3E50;stroke-width:1.0;" x1="1646.75" x2="1646.75" y1="1579.7271" y2="1699.6003"/><polygon fill="#2C3E50" points="1642.75,1689.6003,1646.75,1699.6003,1650.75,1689.6003,1646.75,1693.6003" style="stroke:#2C3E50;stroke-width:1.0;"/><line style="stroke:#2C3E50;stroke-width:1.0;" x1="1541" x2="1541" y1="1853.5279" y2="1873.5279"/><polygon fill="#2C3E50" points="1537,1863.5279,1541,1873.5279,1545,1863.5279,1541,1867.5279" style="stroke:#2C3E50;stroke-width:1.0;"/><line style="stroke:#2C3E50;stroke-width:1.0;" x1="1586.75" x2="1541" y1="1781.5641" y2="1781.5641"/><line style="stroke:#2C3E50;stroke-width:1.0;" x1="1541" x2="1541" y1="1781.5641" y2="1803.5641"/><polygon fill="#2C3E50" points="1537,1793.5641,1541,1803.5641,1545,1793.5641,1541,1797.5641" style="stroke:#2C3E50;stroke-width:1.0;"/><line style="stroke:#2C3E50;stroke-width:1.0;" x1="1706.75" x2="1752.5" y1="1781.5641" y2="1781.5641"/><line style="stroke:#2C3E50;stroke-width:1.0;" x1="1752.5" x2="1752.5" y1="1781.5641" y2="1803.5641"/><polygon fill="#2C3E50" points="1748.5,1793.5641,1752.5,1803.5641,1756.5,1793.5641,1752.5,1797.5641" style="stroke:#2C3E50;stroke-width:1.0;"/><line style="stroke:#2C3E50;stroke-width:1.0;" x1="1541" x2="1541" y1="1923.4917" y2="1941.4917"/><line style="stroke:#2C3E50;stroke-width:1.0;" x1="1541" x2="1634.75" y1="1941.4917" y2="1941.4917"/><polygon fill="#2C3E50" points="1624.75,1937.4917,1634.75,1941.4917,1624.75,1945.4917,1628.75,1941.4917" style="stroke:#2C3E50;stroke-width:1.0;"/><line style="stroke:#2C3E50;stroke-width:1.0;" x1="1752.5" x2="1752.5" y1="1853.5279" y2="1941.4917"/><line style="stroke:#2C3E50;stroke-width:1.0;" x1="1752.5" x2="1658.75" y1="1941.4917" y2="1941.4917"/><polygon fill="#2C3E50" points="1668.75,1937.4917,1658.75,1941.4917,1668.75,1945.4917,1664.75,1941.4917" style="stroke:#2C3E50;stroke-width:1.0;"/><line style="stroke:#2C3E50;stroke-width:1.0;" x1="1646.75" x2="1646.75" y1="1749.5641" y2="1769.5641"/><polygon fill="#2C3E50" points="1642.75,1759.5641,1646.75,1769.5641,1650.75,1759.5641,1646.75,1763.5641" style="stroke:#2C3E50;stroke-width:1.0;"/><line style="stroke:#2C3E50;stroke-width:1.0;" x1="311.5" x2="311.5" y1="152.6509" y2="157.6509"/><line style="stroke:#2C3E50;stroke-width:1.0;" x1="311.5" x2="777.5" y1="157.6509" y2="157.6509"/><line style="stroke:#2C3E50;stroke-width:1.0;" x1="777.5" x2="777.5" y1="157.6509" y2="172.6509"/><polygon fill="#2C3E50" points="773.5,162.6509,777.5,172.6509,781.5,162.6509,777.5,166.6509" style="stroke:#2C3E50;stroke-width:1.0;"/><line style="stroke:#2C3E50;stroke-width:1.0;" x1="777.5" x2="777.5" y1="222.6146" y2="227.6146"/><line style="stroke:#2C3E50;stroke-width:1.0;" x1="777.5" x2="311.5" y1="227.6146" y2="227.6146"/><line style="stroke:#2C3E50;stroke-width:1.0;" x1="311.5" x2="311.5" y1="227.6146" y2="242.6146"/><polygon fill="#2C3E50" points="307.5,232.6146,311.5,242.6146,315.5,232.6146,311.5,236.6146" style="stroke:#2C3E50;stroke-width:1.0;"/><line style="stroke:#2C3E50;stroke-width:1.0;" x1="311.5" x2="311.5" y1="377.5241" y2="382.5241"/><line style="stroke:#2C3E50;stroke-width:1.0;" x1="311.5" x2="777.5" y1="382.5241" y2="382.5241"/><line style="stroke:#2C3E50;stroke-width:1.0;" x1="777.5" x2="777.5" y1="382.5241" y2="397.5241"/><polygon fill="#2C3E50" points="773.5,387.5241,777.5,397.5241,781.5,387.5241,777.5,391.5241" style="stroke:#2C3E50;stroke-width:1.0;"/><line style="stroke:#2C3E50;stroke-width:1.0;" x1="822.5" x2="834.5" y1="564.4335" y2="564.4335"/><line style="stroke:#2C3E50;stroke-width:1.0;" x1="834.5" x2="834.5" y1="564.4335" y2="582.4335"/><line style="stroke:#2C3E50;stroke-width:1.0;" x1="834.5" x2="393" y1="582.4335" y2="582.4335"/><line style="stroke:#2C3E50;stroke-width:1.0;" x1="393" x2="393" y1="582.4335" y2="596.4335"/><polygon fill="#2C3E50" points="389,586.4335,393,596.4335,397,586.4335,393,590.4335" style="stroke:#2C3E50;stroke-width:1.0;"/><line style="stroke:#2C3E50;stroke-width:1.0;" x1="950.5" x2="950.5" y1="1081.0894" y2="1086.0894"/><line style="stroke:#2C3E50;stroke-width:1.0;" x1="950.5" x2="1343" y1="1086.0894" y2="1086.0894"/><line style="stroke:#2C3E50;stroke-width:1.0;" x1="1343" x2="1343" y1="1086.0894" y2="1101.0894"/><polygon fill="#2C3E50" points="1339,1091.0894,1343,1101.0894,1347,1091.0894,1343,1095.0894" style="stroke:#2C3E50;stroke-width:1.0;"/><line style="stroke:#2C3E50;stroke-width:1.0;" x1="1284" x2="1272" y1="1412.872" y2="1412.872"/><line style="stroke:#2C3E50;stroke-width:1.0;" x1="1272" x2="1272" y1="1412.872" y2="1430.872"/><line style="stroke:#2C3E50;stroke-width:1.0;" x1="1272" x2="1646.75" y1="1430.872" y2="1430.872"/><line style="stroke:#2C3E50;stroke-width:1.0;" x1="1646.75" x2="1646.75" y1="1430.872" y2="1544.7452"/><polygon fill="#2C3E50" points="1642.75,1534.7452,1646.75,1544.7452,1650.75,1534.7452,1646.75,1538.7452" style="stroke:#2C3E50;stroke-width:1.0;"/><line style="stroke:#2C3E50;stroke-width:1.0;" x1="1402" x2="1974.75" y1="1412.872" y2="1412.872"/><line style="stroke:#2C3E50;stroke-width:1.0;" x1="1974.75" x2="1974.75" y1="1412.872" y2="1444.872"/><polygon fill="#2C3E50" points="1970.75,1434.872,1974.75,1444.872,1978.75,1434.872,1974.75,1438.872" style="stroke:#2C3E50;stroke-width:1.0;"/><line style="stroke:#2C3E50;stroke-width:1.0;" x1="1646.75" x2="1646.75" y1="1953.4917" y2="1957.4917"/><line style="stroke:#2C3E50;stroke-width:1.0;" x1="1646.75" x2="1313" y1="1957.4917" y2="1957.4917"/><line style="stroke:#2C3E50;stroke-width:1.0;" x1="1313" x2="1313" y1="1957.4917" y2="1975.4917"/><line style="stroke:#2C3E50;stroke-width:1.0;" x1="1313" x2="1331" y1="1975.4917" y2="1975.4917"/><polygon fill="#2C3E50" points="1321,1971.4917,1331,1975.4917,1321,1979.4917,1325,1975.4917" style="stroke:#2C3E50;stroke-width:1.0;"/><line style="stroke:#2C3E50;stroke-width:1.0;" x1="1974.75" x2="1974.75" y1="1494.8358" y2="1975.4917"/><line style="stroke:#2C3E50;stroke-width:1.0;" x1="1974.75" x2="1355" y1="1975.4917" y2="1975.4917"/><polygon fill="#2C3E50" points="1365,1971.4917,1355,1975.4917,1365,1979.4917,1361,1975.4917" style="stroke:#2C3E50;stroke-width:1.0;"/><line style="stroke:#2C3E50;stroke-width:1.0;" x1="1343" x2="1343" y1="1987.4917" y2="1992.4917"/><line style="stroke:#2C3E50;stroke-width:1.0;" x1="1343" x2="777.5" y1="1992.4917" y2="1992.4917"/><line style="stroke:#2C3E50;stroke-width:1.0;" x1="777.5" x2="777.5" y1="1992.4917" y2="2007.4917"/><polygon fill="#2C3E50" points="773.5,1997.4917,777.5,2007.4917,781.5,1997.4917,777.5,2001.4917" style="stroke:#2C3E50;stroke-width:1.0;"/><line style="stroke:#2C3E50;stroke-width:1.0;" x1="777.5" x2="777.5" y1="2242.3287" y2="2247.3287"/><line style="stroke:#2C3E50;stroke-width:1.0;" x1="777.5" x2="311.5" y1="2247.3287" y2="2247.3287"/><line style="stroke:#2C3E50;stroke-width:1.0;" x1="311.5" x2="311.5" y1="2247.3287" y2="2262.3287"/><polygon fill="#2C3E50" points="307.5,2252.3287,311.5,2262.3287,315.5,2252.3287,311.5,2256.3287" style="stroke:#2C3E50;stroke-width:1.0;"/><text fill="#000000" font-family="Verdana" font-size="11" lengthAdjust="spacing" textLength="24" x="298.5" y="69.446">User</text><text fill="#000000" font-family="Verdana" font-size="11" lengthAdjust="spacing" textLength="120" x="674.5" y="69.446">Web Application (Flask)</text><text fill="#000000" font-family="Verdana" font-size="11" lengthAdjust="spacing" textLength="118" x="988" y="69.446">Preprocessing Module</text><text fill="#000000" font-family="Verdana" font-size="11" lengthAdjust="spacing" textLength="100" x="1292" y="69.446">ML Model - Stage 1</text><text fill="#000000" font-family="Verdana" font-size="11" lengthAdjust="spacing" textLength="100" x="1688.875" y="69.446">ML Model - Stage 2</text><rect fill="none" height="208.6792" id="_legend" rx="7.5" ry="7.5" style="stroke:#000000;stroke-width:1.0;" width="313" x="1717.25" y="2755.1657"/><text fill="#000000" font-family="Verdana" font-size="14" font-weight="bold" lengthAdjust="spacing" textLength="82" x="1726.25" y="2777.1316">Component</text><text fill="#000000" font-family="Verdana" font-size="14" font-weight="bold" lengthAdjust="spacing" textLength="64" x="1830.25" y="2777.1316">Directory</text><text fill="#000000" font-family="Verdana" font-size="14" lengthAdjust="spacing" textLength="96" x="1726.25" y="2796.1995">User Interface</text><text fill="#000000" font-family="Verdana" font-size="14" lengthAdjust="spacing" textLength="153" x="1830.25" y="2796.1995">WebApplication/flaskr/</text><text fill="#000000" font-family="Verdana" font-size="14" lengthAdjust="spacing" textLength="96" x="1726.25" y="2815.2674">Preprocessing</text><text fill="#000000" font-family="Verdana" font-size="14" lengthAdjust="spacing" textLength="101" x="1830.25" y="2815.2674">Preprocessing/</text><text fill="#000000" font-family="Verdana" font-size="14" lengthAdjust="spacing" textLength="73" x="1726.25" y="2834.3353">ML Models</text><text fill="#000000" font-family="Verdana" font-size="14" lengthAdjust="spacing" textLength="47" x="1830.25" y="2834.3353">Model/</text><text fill="#000000" font-family="Verdana" font-size="14" lengthAdjust="spacing" textLength="87" x="1726.25" y="2853.4033">Data Storage</text><text fill="#000000" font-family="Verdana" font-size="14" lengthAdjust="spacing" textLength="73" x="1830.25" y="2853.4033">Interfaces/</text><line style="stroke:#000000;stroke-width:1.0;" x1="1722.25" x2="1987.25" y1="2762.1657" y2="2762.1657"/><line style="stroke:#000000;stroke-width:1.0;" x1="1722.25" x2="1987.25" y1="2781.2336" y2="2781.2336"/><line style="stroke:#000000;stroke-width:1.0;" x1="1722.25" x2="1987.25" y1="2800.3015" y2="2800.3015"/><line style="stroke:#000000;stroke-width:1.0;" x1="1722.25" x2="1987.25" y1="2819.3694" y2="2819.3694"/><line style="stroke:#000000;stroke-width:1.0;" x1="1722.25" x2="1987.25" y1="2838.4373" y2="2838.4373"/><line style="stroke:#000000;stroke-width:1.0;" x1="1722.25" x2="1987.25" y1="2857.5052" y2="2857.5052"/><line style="stroke:#000000;stroke-width:1.0;" x1="1722.25" x2="1722.25" y1="2762.1657" y2="2857.5052"/><line style="stroke:#000000;stroke-width:1.0;" x1="1826.25" x2="1826.25" y1="2762.1657" y2="2857.5052"/><line style="stroke:#000000;stroke-width:1.0;" x1="1987.25" x2="1987.25" y1="2762.1657" y2="2857.5052"/><text fill="#000000" font-family="Verdana" font-size="14" lengthAdjust="spacing" textLength="4" x="1722.25" y="2874.4712">&#160;</text><text fill="#000000" font-family="Verdana" font-size="14" font-weight="bold" lengthAdjust="spacing" textLength="69" x="1726.25" y="2895.5391">Data Flow</text><text fill="#000000" font-family="Verdana" font-size="14" font-weight="bold" lengthAdjust="spacing" textLength="79" x="1807.25" y="2895.5391">Description</text><text fill="#000000" font-family="Verdana" font-size="14" lengthAdjust="spacing" textLength="37" x="1726.25" y="2914.607">Input</text><text fill="#000000" font-family="Verdana" font-size="14" lengthAdjust="spacing" textLength="176" x="1807.25" y="2914.607">Original uploaded images</text><text fill="#000000" font-family="Verdana" font-size="14" lengthAdjust="spacing" textLength="73" x="1726.25" y="2933.6749">PreProcess</text><text fill="#000000" font-family="Verdana" font-size="14" lengthAdjust="spacing" textLength="214" x="1807.25" y="2933.6749">Intermediate processed images</text><text fill="#000000" font-family="Verdana" font-size="14" lengthAdjust="spacing" textLength="68" x="1726.25" y="2952.7428">Processed</text><text fill="#000000" font-family="Verdana" font-size="14" lengthAdjust="spacing" textLength="199" x="1807.25" y="2952.7428">Final results with annotations</text><line style="stroke:#000000;stroke-width:1.0;" x1="1722.25" x2="2025.25" y1="2880.5732" y2="2880.5732"/><line style="stroke:#000000;stroke-width:1.0;" x1="1722.25" x2="2025.25" y1="2899.6411" y2="2899.6411"/><line style="stroke:#000000;stroke-width:1.0;" x1="1722.25" x2="2025.25" y1="2918.709" y2="2918.709"/><line style="stroke:#000000;stroke-width:1.0;" x1="1722.25" x2="2025.25" y1="2937.7769" y2="2937.7769"/><line style="stroke:#000000;stroke-width:1.0;" x1="1722.25" x2="2025.25" y1="2956.8448" y2="2956.8448"/><line style="stroke:#000000;stroke-width:1.0;" x1="1722.25" x2="1722.25" y1="2880.5732" y2="2956.8448"/><line style="stroke:#000000;stroke-width:1.0;" x1="1803.25" x2="1803.25" y1="2880.5732" y2="2956.8448"/><line style="stroke:#000000;stroke-width:1.0;" x1="2025.25" x2="2025.25" y1="2880.5732" y2="2956.8448"/><!--SRC=[TLPjRzis4FwkNt5hWS49cXSxoLuS54FYboP0qWRnsktRG4idcpD5QYJLs8L__EueqPAT5aLgaNSy7fzxdYD_yaii44ebf4xSIkfIM570NAIhXJMLpaP66GjlfnF-r_78C1ULybEZ_Kn-G-ZtEyORQyrBit8mkfXSdNUDgJVszd23YylVVnlVld8pDaEx7odnqYk4MI6iXxzFdiK6Pgb5r58lOBPn7WiuWP4fIeKUuIzZLxaoBqcoVViW5qj_gohSVdPejudp52CPyW1CYTh1NpY7cx9KCXLU6dszM_M1TzWUcA4tLSAjZhR9S2mTWRY1gbH6P90RMoIzEqFOFea57d6WUi_XvzgZplo-8EjrCfneJpayKLJK7iR2Y-G4PhYc_syM242_NoI-m9DnCYRsusIUCKNv5MCo5l-hqFca9xHGcszuMcuueU4NeMGcVFH3IbigfAr6IqnNOG1-K_BC5xGotu3aT45IiWih_OQ2o1nw8Kvj- -C8Y56KomRTKG8md0dAmniuFhxd8-OYHNTshylAdnqVayEBz4lmig3yH55Uqmol6bdalCeQZtyeIN7whpCwBYZG2vwyJb0vX9usl5c3CE-wD2-0n49Bhiu5Z06SDsM2EfCvbtKw7PsFRhTF5ajhA2l7_7aqMQMG87nWuEhZvjOKoQli6K16VmFbNeHIbgYangItDzzWhWqTopAXA9_Zu_tDPnvBDmomz4-9mVeh4iK9l8KL6vSAgWt0u1JgRKSFDtSJGBqKEYKDQuvuSGgFc4cXOQugoomaeMeZEJoPBq_X6HtBbO9UdP-lwO-chqvXaj51Cz9BMbF9bFmhr17Z1Pmr7NUozbQa7ku-VO2S2bHPTCIDmTKlQ_eZcZcZAbv7anU3zSM0m5XJWQ0aRgUe5CrVhY_3PpqvLoPTCPA19YrW6B7t9jbZ3W7sLBiGVQxhCev_FJ_VFZvmxL2Hz6UUL_PZ4IbdAaS61PiT23eFwfG6bfEVrkU00AzjvBORa0AZSrHWC-Ia9-4JVgxzIHR4Youm1pX5TLDsdP4B8W-XorRSm-TAnuF0hTJ2Ki59taxcadBfJINHc2Xp1XyDD8EZHexHDWxbnEnGaw-n6WJHj5iEu95wkpnHOavUxRwkqUSUYvd7_KkcQnQox_hNP0RQwCQZeco4awwP6GcRIMgG2-f9SSfeeX3t91cqpdEJ30iHl_EySXrJKIuthZLFvToQTeCxj5f6sxscTaPKw4H-f3IRpuz1zitWIM5bXO8_bp9TXMib6ZHMXMbZrcE_D5QiQMgdbBg74LKpIMf1aIuXZUYGfNSEfCj-K2SRZnfKkNOtUjFwmdle7nQFwuIEgjEKwZrSXDbOTTUe6BDteEGAgL7ufNHXZx1Bsrtpk499LnSozDQuliqZbBtRQ5ydCVXX4fLUQVEYuONGh8zQTs1AfXloC62VWI9knoHfPUpSFxxtPlHaGEv35CbzftSqlQLk7R7dD9ETIoR0i4E7vKrXNLZIsO3qJk9rhkvtuI8dIuwMEiIUthFwDYVLbJKb65AQQ4xiVBYUTk-3P_An11xtwEVcAFo6I7hDmPghXEdI1Mt7b7uWTEmAzJNSF4-6y8OiOgxfUKANjj_i2lNcEbQ4umuenEUcSBiu8Vn-i9llH7f7BdDgX2sD6mgqMq3lWdjFYIcrYVH7cRuYqnkoFn1Nlq_HXXxrtV_wAk7o4GE-IkhOk2uDtQpr9HTADPusapomzC1f2y9uJ8BjB5XUFN4-e4RBWk8efEbc_HwxnqRZBiNm3aaKBhXZn3QwVH_UhEH7bA71E930KD_dvho5y4ZTiPacI0OT5PpbB09xrdZlFomEnj4ftWEEl_aZ6lZz2SnrvlGMEXeA3dMsmMbAB-imG9TQ6V1iOeHN4lr-eWFI_QNQHsOeXsiJRNGPDohu0UCxoZnS4AUtJ1mA7FKUP2iqjU2022yWW6kOa_y1]--></g></svg>