<?xml version="1.0" encoding="us-ascii" standalone="no"?><svg xmlns="http://www.w3.org/2000/svg" xmlns:xlink="http://www.w3.org/1999/xlink" contentStyleType="text/css" height="1085px" preserveAspectRatio="none" style="width:575px;height:1085px;background:#FEFEFE;" version="1.1" viewBox="0 0 575 1085" width="575px" zoomAndPan="magnify"><defs/><g><rect fill="#FEFEFE" height="1085" style="stroke:none;stroke-width:1.0;" width="575" x="0" y="0"/><text fill="#000000" font-family="sans-serif" font-size="14" font-weight="bold" lengthAdjust="spacing" textLength="389" x="85.25" y="24.9659">Smart X-Ray Screening - Image Preprocessing Use Cases</text><!--cluster Image Preprocessing Pipeline--><g id="cluster_Image Preprocessing Pipeline"><rect fill="none" height="792" rx="2.5" ry="2.5" style="stroke:#181818;stroke-width:1.0;" width="315" x="14" y="169.0679"/><text fill="#000000" font-family="sans-serif" font-size="14" font-weight="bold" lengthAdjust="spacing" textLength="205" x="69" y="186.0339">Image Preprocessing Pipeline</text></g><!--entity DataScientist--><g id="elem_DataScientist"><ellipse cx="224" cy="52.5679" fill="#90EE90" rx="8" ry="8" style="stroke:#181818;stroke-width:0.5;"/><path d="M224,60.5679 L224,87.5679 M211,68.5679 L237,68.5679 M224,87.5679 L211,102.5679 M224,87.5679 L237,102.5679 " fill="none" style="stroke:#181818;stroke-width:0.5;"/><text fill="#000000" font-family="sans-serif" font-size="14" lengthAdjust="spacing" textLength="97" x="175.5" y="119.0339">Data Scientist/</text><text fill="#000000" font-family="sans-serif" font-size="14" lengthAdjust="spacing" textLength="85" x="175.5" y="138.1018">ML Engineer</text></g><g id="elem_GMN21"><path d="M337.5,705.0679 L337.5,723.5679 L314.5859,727.5679 L337.5,731.5679 L337.5,750.4799 A0,0 0 0 0 337.5,750.4799 L484.5,750.4799 A0,0 0 0 0 484.5,750.4799 L484.5,715.0679 L474.5,705.0679 L337.5,705.0679 A0,0 0 0 0 337.5,705.0679 " fill="#FEFFDD" style="stroke:#181818;stroke-width:0.5;"/><path d="M474.5,705.0679 L474.5,715.0679 L484.5,715.0679 L474.5,705.0679 " fill="#FEFFDD" style="stroke:#181818;stroke-width:0.5;"/><text fill="#000000" font-family="sans-serif" font-size="13" font-weight="bold" lengthAdjust="spacing" textLength="125" x="343.5" y="723.9649">Resize Parameters:</text><text fill="#000000" font-family="sans-serif" font-size="13" lengthAdjust="spacing" textLength="126" x="343.5" y="741.6709">- Target size: 256x256</text></g><g id="elem_GMN24"><path d="M337.5,297.0679 L337.5,360.186 A0,0 0 0 0 337.5,360.186 L568.5,360.186 A0,0 0 0 0 568.5,360.186 L568.5,307.0679 L558.5,297.0679 L391.0116,297.0679 L268.425,242.1315 L383.0116,297.0679 L337.5,297.0679 A0,0 0 0 0 337.5,297.0679 " fill="#FEFFDD" style="stroke:#181818;stroke-width:0.5;"/><path d="M558.5,297.0679 L558.5,307.0679 L568.5,307.0679 L558.5,297.0679 " fill="#FEFFDD" style="stroke:#181818;stroke-width:0.5;"/><text fill="#000000" font-family="sans-serif" font-size="13" lengthAdjust="spacing" textLength="172" x="343.5" y="315.9649">Processes all images in batch</text><text fill="#000000" font-family="sans-serif" font-size="13" lengthAdjust="spacing" textLength="126" x="343.5" y="333.6709">using multithreading</text><text fill="#000000" font-family="sans-serif" font-size="13" lengthAdjust="spacing" textLength="210" x="343.5" y="351.377">Output: soft_tissue_&lt;image_index&gt;</text></g><g id="elem_UC1"><ellipse cx="224.2398" cy="220.8159" fill="#F1F1F1" rx="96.7398" ry="21.748" style="stroke:#181818;stroke-width:0.5;"/><text fill="#000000" font-family="sans-serif" font-size="14" lengthAdjust="spacing" textLength="147" x="147.7398" y="225.5488">Batch Process Images</text></g><g id="elem_UC2"><ellipse cx="215.7909" cy="328.7261" fill="#F1F1F1" rx="98.7909" ry="22.1582" style="stroke:#181818;stroke-width:0.5;"/><text fill="#000000" font-family="sans-serif" font-size="14" lengthAdjust="spacing" textLength="152" x="136.7909" y="333.4591">Load Raw X-Ray Image</text></g><g id="elem_UC3"><ellipse cx="209.9397" cy="433.1559" fill="#F1F1F1" rx="78.4397" ry="18.0879" style="stroke:#181818;stroke-width:0.5;"/><text fill="#000000" font-family="sans-serif" font-size="14" lengthAdjust="spacing" textLength="99" x="157.4397" y="437.8888">Convert to HSV</text></g><g id="elem_UC4"><ellipse cx="208.9938" cy="530.7667" fill="#F1F1F1" rx="111.4938" ry="24.6988" style="stroke:#181818;stroke-width:0.5;"/><text fill="#000000" font-family="sans-serif" font-size="14" lengthAdjust="spacing" textLength="182" x="114.9938" y="535.4996">Apply CLAHE Enhancement</text></g><g id="elem_UC5"><ellipse cx="227.0009" cy="630.0681" fill="#F1F1F1" rx="88.0009" ry="20.0002" style="stroke:#181818;stroke-width:0.5;"/><text fill="#000000" font-family="sans-serif" font-size="14" lengthAdjust="spacing" textLength="125" x="161.5009" y="634.8011">Apply Median Blur</text></g><g id="elem_UC6"><ellipse cx="238.8803" cy="727.544" fill="#F1F1F1" rx="75.3803" ry="17.4761" style="stroke:#181818;stroke-width:0.5;"/><text fill="#000000" font-family="sans-serif" font-size="14" lengthAdjust="spacing" textLength="90" x="190.8803" y="732.2769">Resize Image</text></g><g id="elem_UC7"><ellipse cx="123.7797" cy="827.7239" fill="#F1F1F1" rx="101.2797" ry="22.6559" style="stroke:#181818;stroke-width:0.5;"/><text fill="#000000" font-family="sans-serif" font-size="14" lengthAdjust="spacing" textLength="158" x="41.7797" y="832.4568">Detect Edges (Optional)</text></g><g id="elem_UC8"><ellipse cx="171.1191" cy="928.9917" fill="#F1F1F1" rx="107.6191" ry="23.9238" style="stroke:#181818;stroke-width:0.5;"/><text fill="#000000" font-family="sans-serif" font-size="14" lengthAdjust="spacing" textLength="173" x="81.6191" y="933.7247">Save Preprocessed Image</text></g><polygon fill="#181818" points="224,198.8969,228,189.8969,224,193.8969,220,189.8969,224,198.8969" style="stroke:#181818;stroke-width:1.0;"/><path d="M224,142.2306 C224,161.8619 224,177.5097 224,192.8969 " fill="none" style="stroke:#181818;stroke-width:1.0;"/><polygon fill="#181818" points="217.6124,306.2039,222.2784,297.5305,217.9887,301.2181,214.301,296.9284,217.6124,306.2039" style="stroke:#181818;stroke-width:1.0;"/><path d="M222.4385,242.2574 C221.0471,260.6939 219.4706,281.5823 218.0639,300.2209 " fill="none" style="stroke:#181818;stroke-width:1.0;stroke-dasharray:7.0,7.0;"/><text fill="#000000" font-family="sans-serif" font-size="13" lengthAdjust="spacing" textLength="57" x="221" y="274.9649">&#171;include&#187;</text><polygon fill="#181818" points="211.0032,414.9298,215.5223,406.1789,211.2954,409.9383,207.536,405.7114,211.0032,414.9298" style="stroke:#181818;stroke-width:1.0;"/><path d="M214.7568,350.806 C213.6447,369.8048 212.3858,391.31 211.3538,408.94 " fill="none" style="stroke:#181818;stroke-width:1.0;stroke-dasharray:7.0,7.0;"/><text fill="#000000" font-family="sans-serif" font-size="13" lengthAdjust="spacing" textLength="57" x="214" y="392.9649">&#171;include&#187;</text><polygon fill="#181818" points="209.2486,505.827,213.3426,496.8693,209.3009,500.8272,205.3431,496.7856,209.2486,505.827" style="stroke:#181818;stroke-width:1.0;"/><path d="M209.8212,451.1414 C209.6617,466.3782 209.4893,482.8421 209.3114,499.8273 " fill="none" style="stroke:#181818;stroke-width:1.0;stroke-dasharray:7.0,7.0;"/><text fill="#000000" font-family="sans-serif" font-size="13" lengthAdjust="spacing" textLength="57" x="210" y="483.9649">&#171;include&#187;</text><polygon fill="#181818" points="223.4673,609.9323,225.7669,600.3557,222.5595,605.0154,217.8998,601.808,223.4673,609.9323" style="stroke:#181818;stroke-width:1.0;"/><path d="M213.3573,555.1699 C216.4579,571.9647 219.4815,588.3427 222.378,604.032 " fill="none" style="stroke:#181818;stroke-width:1.0;stroke-dasharray:7.0,7.0;"/><text fill="#000000" font-family="sans-serif" font-size="13" lengthAdjust="spacing" textLength="57" x="221" y="587.9649">&#171;include&#187;</text><polygon fill="#181818" points="236.896,709.8238,239.7428,700.3953,236.2727,704.8628,231.8052,701.3927,236.896,709.8238" style="stroke:#181818;stroke-width:1.0;"/><path d="M229.4284,650.3938 C231.6199,667.8346 234.0629,687.2768 236.148,703.8706 " fill="none" style="stroke:#181818;stroke-width:1.0;stroke-dasharray:7.0,7.0;"/><text fill="#000000" font-family="sans-serif" font-size="13" lengthAdjust="spacing" textLength="57" x="234" y="682.9649">&#171;include&#187;</text><polygon fill="#181818" points="149.2484,805.0519,158.6929,802.2589,153.054,801.8089,153.504,796.17,149.2484,805.0519" style="stroke:#181818;stroke-width:1.0;"/><path d="M219.4918,745.1923 C200.139,761.6842 174.9601,783.141 153.8151,801.1603 " fill="none" style="stroke:#181818;stroke-width:1.0;stroke-dasharray:7.0,7.0;"/><text fill="#000000" font-family="sans-serif" font-size="13" lengthAdjust="spacing" textLength="56" x="192" y="782.9649">&#171;extend&#187;</text><polygon fill="#181818" points="196.2517,904.6514,205.4132,901.0364,199.7565,901.0854,199.7076,895.4287,196.2517,904.6514" style="stroke:#181818;stroke-width:1.0;"/><path d="M246.2919,745.1444 C248.9684,752.0838 251.6682,760.3239 253,768.0679 C259.3239,804.8403 250.1201,815.9566 235,850.0679 C227.1536,867.7695 224.0358,871.9004 212,887.0679 C207.2445,893.0608 205.9047,894.8298 200.4575,900.3722 " fill="none" style="stroke:#181818;stroke-width:1.0;stroke-dasharray:7.0,7.0;"/><text fill="#000000" font-family="sans-serif" font-size="13" lengthAdjust="spacing" textLength="57" x="254" y="832.9649">&#171;include&#187;</text><polygon fill="#181818" points="160.0019,904.7847,159.7747,894.9385,157.8664,900.2637,152.5411,898.3554,160.0019,904.7847" style="stroke:#181818;stroke-width:1.0;"/><path d="M134.1983,850.1579 C141.8118,866.2759 149.6401,882.8485 157.4393,899.3595 " fill="none" style="stroke:#181818;stroke-width:1.0;stroke-dasharray:7.0,7.0;"/><text fill="#000000" font-family="sans-serif" font-size="13" lengthAdjust="spacing" textLength="56" x="151" y="882.9649">&#171;extend&#187;</text><rect fill="none" height="90.2717" id="_legend" rx="7.5" ry="7.5" style="stroke:#000000;stroke-width:1.0;" width="207" x="176.25" y="975.0679"/><text fill="#000000" font-family="sans-serif" font-size="14" font-weight="bold" lengthAdjust="spacing" textLength="86" x="185.25" y="997.0339">Relationship</text><text fill="#000000" font-family="sans-serif" font-size="14" font-weight="bold" lengthAdjust="spacing" textLength="79" x="279.25" y="997.0339">Description</text><text fill="#000000" font-family="sans-serif" font-size="14" lengthAdjust="spacing" textLength="24" x="185.25" y="1016.1018">&#9472;&#9472;&gt;</text><text fill="#000000" font-family="sans-serif" font-size="14" lengthAdjust="spacing" textLength="93" x="279.25" y="1016.1018">Actor initiates</text><text fill="#000000" font-family="sans-serif" font-size="14" lengthAdjust="spacing" textLength="84" x="185.25" y="1035.1697">..&gt; &#171;include&#187;</text><text fill="#000000" font-family="sans-serif" font-size="14" lengthAdjust="spacing" textLength="95" x="279.25" y="1035.1697">Required step</text><text fill="#000000" font-family="sans-serif" font-size="14" lengthAdjust="spacing" textLength="80" x="185.25" y="1054.2376">..&gt; &#171;extend&#187;</text><text fill="#000000" font-family="sans-serif" font-size="14" lengthAdjust="spacing" textLength="91" x="279.25" y="1054.2376">Optional step</text><line style="stroke:#000000;stroke-width:1.0;" x1="181.25" x2="378.25" y1="982.0679" y2="982.0679"/><line style="stroke:#000000;stroke-width:1.0;" x1="181.25" x2="378.25" y1="1001.1358" y2="1001.1358"/><line style="stroke:#000000;stroke-width:1.0;" x1="181.25" x2="378.25" y1="1020.2038" y2="1020.2038"/><line style="stroke:#000000;stroke-width:1.0;" x1="181.25" x2="378.25" y1="1039.2717" y2="1039.2717"/><line style="stroke:#000000;stroke-width:1.0;" x1="181.25" x2="378.25" y1="1058.3396" y2="1058.3396"/><line style="stroke:#000000;stroke-width:1.0;" x1="181.25" x2="181.25" y1="982.0679" y2="1058.3396"/><line style="stroke:#000000;stroke-width:1.0;" x1="275.25" x2="275.25" y1="982.0679" y2="1058.3396"/><line style="stroke:#000000;stroke-width:1.0;" x1="378.25" x2="378.25" y1="982.0679" y2="1058.3396"/><!--SRC=[RLHXJzim4FtkNt4h7xPLAjE05bInIgND1bAXLLAc8Kr29ZbIQucTsGwZ6vFs8_OBzqjsJWnBoDfKgkyztvtVk_X5eNcQSyZuLfKMJ8wMIyxC5o4BhdaEDpp-acfLocIcCgLXvttWlWr69YJQRO6WjDqengom6KAKSstXqo3aMuXYZIY5J640PpbF4LOQ2wrYDCP5Bmt2Z1iqZBs4TuqFJ6VhPHYrOep7blhepRdbb5cWjCBODv_b-G82cL8pg7l03JZ24mux2v5kx0VNIATAT1MjWtCuMLvUpAVXLRkSnfWaIUb8lV_rlX85EWLwy8C1q5CQZEaiq3lXDjuGkwBMvpPLOvUpjqtUGl44GlxDYrKHFM-loPifUOUagLLm6dtqZFqcOreKsHPcY-bfG59ik8mnf-Dxwa6NUew9u19Eib9xqh192j68xzZgQDJ4vsX970WIEXcyMXPMACcprvvwsAH6_Awf72Qjh4ViPyUKC5XCrsVBY-ZqRFLi0bZRsi5WKcbA6LR_Z2cyCOmWsDrrb3qOm_6na75M9ZYPC1UfaVqEik-HWmvou95X1nbwPDH1HXuvh12yjoYJ5d3KsNBOGfwsF9VfOhaEdiaZbKNGRjn1tNhF-drlvigzi-IRDkD-du01hBbEaLvzGiUmDnpTquzHCN1vM9tjHbchyZgT6rwlCzdEimn4DTiW9DqMDFELxyw2lCpeCjXev0ajARmiRL7QCHXrQw_9ErFYzN6r-rh81EydZRePfcvHLwQz3pGIc74tOsOZ2hUUeucrgCOE7Xm5_lp-HS-4_ashMq98OGMtr5oDEqaRCbCanA-bq3IFncBHOZrAJe77qNuaKRnkZ_q5]--></g></svg>